<?xml version="1.0" encoding="UTF-8" standalone="no"?>
<svg
   xmlns:dc="http://purl.org/dc/elements/1.1/"
   xmlns:cc="http://creativecommons.org/ns#"
   xmlns:rdf="http://www.w3.org/1999/02/22-rdf-syntax-ns#"
   xmlns:svg="http://www.w3.org/2000/svg"
   xmlns="http://www.w3.org/2000/svg"
   xmlns:sodipodi="http://sodipodi.sourceforge.net/DTD/sodipodi-0.dtd"
   xmlns:inkscape="http://www.inkscape.org/namespaces/inkscape"
   sodipodi:docname="ADSR-gates.svg"
   inkscape:version="1.0 (4035a4f, 2020-05-01)"
   id="svg8033"
   version="1.1"
   viewBox="0 0 31.797726 100.54167"
   height="380.00003"
   width="120.18038">
  <defs
     id="defs8027" />
  <sodipodi:namedview
     inkscape:document-rotation="0"
     units="px"
     inkscape:window-maximized="0"
     inkscape:window-y="23"
     inkscape:window-x="0"
     inkscape:window-height="958"
     inkscape:window-width="1680"
     fit-margin-bottom="0"
     fit-margin-right="0"
     fit-margin-left="0"
     fit-margin-top="0"
     showgrid="false"
     inkscape:current-layer="layer1"
     inkscape:document-units="mm"
     inkscape:cy="236.79607"
     inkscape:cx="-30.457699"
     inkscape:zoom="1.4"
     inkscape:pageshadow="2"
     inkscape:pageopacity="0.0"
     borderopacity="1.0"
     bordercolor="#666666"
     pagecolor="#ffffff"
     id="base" />
  <metadata
     id="metadata8030">
    <rdf:RDF>
      <cc:Work
         rdf:about="">
        <dc:format>image/svg+xml</dc:format>
        <dc:type
           rdf:resource="http://purl.org/dc/dcmitype/StillImage" />
        <dc:title></dc:title>
      </cc:Work>
    </rdf:RDF>
  </metadata>
  <g
     transform="translate(-84.642804,-25.235117)"
     id="layer1"
     inkscape:groupmode="layer"
     inkscape:label="Layer 1">
    <path
       style="fill:#e6e6e6;fill-opacity:1;fill-rule:nonzero;stroke:none;stroke-width:0.27602378"
       d="M 84.716122,25.308436 H 116.36721 V 125.70454 H 84.716122 Z m 0,0"
       id="path33441"
       inkscape:connector-curvature="0" />
    <path
       style="fill:#000000;fill-opacity:1;fill-rule:nonzero;stroke:none;stroke-width:0.27602378"
       d="m 98.387927,122.53566 c -0.09165,0 -0.174673,-0.0517 -0.215646,-0.1337 l -0.783863,-1.56881 c -0.06038,-0.1186 -0.01188,-0.26416 0.107823,-0.32346 0.118602,-0.0593 0.264163,-0.0108 0.323464,0.10782 l 0.568222,1.13752 0.568221,-1.13752 c 0.0593,-0.1186 0.204862,-0.16712 0.323464,-0.10782 0.119684,0.0593 0.168204,0.20486 0.1089,0.32346 l -0.784942,1.56881 c -0.04097,0.0819 -0.123994,0.1337 -0.215643,0.1337"
       id="path33693"
       inkscape:connector-curvature="0" />
    <path
       style="fill:#000000;fill-opacity:1;fill-rule:nonzero;stroke:none;stroke-width:0.27602378"
       d="m 102.69541,122.53566 c -0.0906,0 -0.17467,-0.0517 -0.21565,-0.1337 l -0.78386,-1.56881 c -0.0593,-0.1186 -0.0119,-0.26416 0.10782,-0.32346 0.1186,-0.0593 0.26417,-0.0108 0.32347,0.10782 l 0.56822,1.13752 0.56822,-1.13752 c 0.0604,-0.1186 0.20486,-0.16712 0.32454,-0.10782 0.11861,0.0593 0.16713,0.20486 0.10782,0.32346 l -0.78386,1.56881 c -0.041,0.0819 -0.12507,0.1337 -0.21672,0.1337"
       id="path33695"
       inkscape:connector-curvature="0" />
    <path
       style="fill:#000000;fill-opacity:1;fill-rule:nonzero;stroke:none;stroke-width:0.27602378"
       d="m 100.65865,122.53566 c -0.56498,0 -1.025382,-0.4604 -1.025382,-1.02538 0,-0.56607 0.460402,-1.02647 1.025382,-1.02647 0.22427,0 0.43776,0.0712 0.61567,0.20594 0.10674,0.0798 0.1283,0.23074 0.0485,0.33749 -0.0809,0.10674 -0.23182,0.1283 -0.33856,0.0485 -0.0938,-0.0712 -0.20702,-0.1089 -0.32562,-0.1089 -0.29975,0 -0.54235,0.24367 -0.54235,0.54342 0,0.29866 0.2426,0.54234 0.54235,0.54234 0.1186,0 0.23181,-0.0377 0.32562,-0.10782 0.10674,-0.0809 0.25769,-0.0593 0.33856,0.0474 0.0798,0.10674 0.0582,0.2577 -0.0485,0.33856 -0.17791,0.1337 -0.3914,0.20486 -0.61567,0.20486"
       id="path33697"
       inkscape:connector-curvature="0" />
    <path
       style="fill:#000000;fill-opacity:1;fill-rule:nonzero;stroke:none;stroke-width:0.27602378"
       d="m 100.98859,121.49734 c 0,0.17359 -0.14125,0.31376 -0.31376,0.31376 -0.1736,0 -0.31377,-0.14017 -0.31377,-0.31376 0,-0.17252 0.14017,-0.31376 0.31377,-0.31376 0.17251,0 0.31376,0.14124 0.31376,0.31376"
       id="path33699"
       inkscape:connector-curvature="0" />
    <path
       inkscape:connector-curvature="0"
       id="path9367"
       d="m 88.394439,108.58996 c 0.185455,0 0.336405,-0.0647 0.444225,-0.13801 0.05175,-0.0302 0.07763,-0.0776 0.07763,-0.13801 v -0.3364 c 0,-0.0604 -0.04744,-0.11214 -0.112133,-0.11214 H 88.45482 c -0.05175,0 -0.0992,0.0431 -0.0992,0.0992 0,0.0518 0.04744,0.0949 0.0992,0.0949 h 0.250145 v 0.2329 c -0.07763,0.0604 -0.185452,0.0949 -0.306213,0.0949 -0.25446,0 -0.426974,-0.18977 -0.426974,-0.44854 0,-0.24152 0.176826,-0.44423 0.409723,-0.44423 0.133699,0 0.224269,0.0388 0.3019,0.0992 0.02156,0.0129 0.04313,0.0259 0.06901,0.0259 0.06038,0 0.112136,-0.0517 0.112136,-0.11213 0,-0.0431 -0.02588,-0.0733 -0.04744,-0.0906 -0.112136,-0.0819 -0.241522,-0.12508 -0.426974,-0.12508 -0.379534,0 -0.64693,0.29759 -0.64693,0.64693 v 0.004 c 0,0.3666 0.254458,0.64693 0.651243,0.64693 z m 0,0"
       style="fill:#000000;fill-opacity:1;stroke:none;stroke-width:0.27602378" />
    <path
       inkscape:connector-curvature="0"
       id="path9363"
       d="m 89.154246,108.47352 c 0,0.0604 0.04744,0.1035 0.10351,0.1035 0.04744,0 0.08626,-0.0259 0.103508,-0.069 l 0.103507,-0.24152 H 90.0772 l 0.10351,0.2329 c 0.01725,0.0474 0.05175,0.0776 0.10782,0.0776 0.05607,0 0.103511,-0.0474 0.103511,-0.10351 0,-0.0173 -0.0043,-0.0345 -0.01294,-0.0474 l -0.465791,-1.04371 c -0.02588,-0.0518 -0.06901,-0.0863 -0.1337,-0.0863 h -0.0086 c -0.06469,0 -0.107823,0.0345 -0.133699,0.0863 l -0.465791,1.04371 c -0.0086,0.0173 -0.01725,0.0345 -0.01725,0.0474 z m 0.396785,-0.40541 0.219956,-0.50461 0.219956,0.50461 z m 0,0"
       style="fill:#000000;fill-opacity:1;stroke:none;stroke-width:0.27602378" />
    <path
       inkscape:connector-curvature="0"
       id="path9359"
       d="m 90.833858,108.4692 c 0,0.0604 0.05175,0.10782 0.112133,0.10782 0.06038,0 0.112136,-0.0474 0.112136,-0.10782 v -0.95314 h 0.306213 c 0.05607,0 0.0992,-0.0474 0.0992,-0.0992 0,-0.0561 -0.04313,-0.10351 -0.0992,-0.10351 h -0.836698 c -0.05607,0 -0.09919,0.0474 -0.09919,0.10351 0,0.0517 0.04313,0.0992 0.09919,0.0992 h 0.306216 z m 0,0"
       style="fill:#000000;fill-opacity:1;stroke:none;stroke-width:0.27602378" />
    <path
       inkscape:connector-curvature="0"
       id="path9355"
       d="m 91.840407,108.5684 h 0.741815 c 0.05175,0 0.09919,-0.0431 0.09919,-0.0992 0,-0.0517 -0.04744,-0.0992 -0.09919,-0.0992 H 91.95254 v -0.33641 h 0.53911 c 0.05175,0 0.0992,-0.0431 0.0992,-0.0949 0,-0.0561 -0.04744,-0.1035 -0.0992,-0.1035 h -0.53911 v -0.32347 h 0.621054 c 0.05175,0 0.09489,-0.0431 0.09489,-0.0992 0,-0.0561 -0.04313,-0.0992 -0.09489,-0.0992 h -0.733187 c -0.06038,0 -0.112136,0.0474 -0.112136,0.11213 v 1.03078 c 0,0.0647 0.05175,0.11213 0.112136,0.11213 z m 0,0"
       style="fill:#000000;fill-opacity:1;stroke:none;stroke-width:0.27602378" />
    <path
       inkscape:connector-curvature="0"
       id="path9335"
       d="m 97.094056,108.4692 c 0,0.0604 0.05175,0.10782 0.112136,0.10782 0.06038,0 0.112133,-0.0474 0.112133,-0.10782 v -0.34071 h 0.276024 l 0.306215,0.39247 c 0.02588,0.0345 0.05607,0.0561 0.107821,0.0561 0.05175,0 0.10351,-0.0388 0.10351,-0.10351 0,-0.0345 -0.01294,-0.0561 -0.0345,-0.0819 l -0.24152,-0.3019 c 0.168201,-0.0561 0.284649,-0.17683 0.284649,-0.37522 v -0.004 c 0,-0.11214 -0.0345,-0.20271 -0.10351,-0.27171 -0.07763,-0.0776 -0.202703,-0.12508 -0.362281,-0.12508 h -0.448537 c -0.06038,0 -0.112136,0.0474 -0.112136,0.11214 z m 0.224269,-0.53479 v -0.42267 h 0.319153 c 0.163889,0 0.258773,0.0733 0.258773,0.21134 0,0.12938 -0.0992,0.21133 -0.258773,0.21133 z m 0,0"
       style="fill:#000000;fill-opacity:1;stroke:none;stroke-width:0.27602378" />
    <path
       inkscape:connector-curvature="0"
       id="path9331"
       d="m 98.5667,108.5684 h 0.741815 c 0.05175,0 0.09919,-0.0431 0.09919,-0.0992 0,-0.0517 -0.04744,-0.0992 -0.09919,-0.0992 h -0.629682 v -0.33641 h 0.53911 c 0.05175,0 0.0992,-0.0431 0.0992,-0.0949 0,-0.0561 -0.04744,-0.1035 -0.0992,-0.1035 h -0.53911 v -0.32347 h 0.621054 c 0.05175,0 0.09488,-0.0431 0.09488,-0.0992 0,-0.0561 -0.04313,-0.0992 -0.09488,-0.0992 H 98.5667 c -0.06038,0 -0.112135,0.0474 -0.112135,0.11213 v 1.03078 c 0,0.0647 0.05175,0.11213 0.112135,0.11213 z m 0,0"
       style="fill:#000000;fill-opacity:1;stroke:none;stroke-width:0.27602378" />
    <path
       inkscape:connector-curvature="0"
       id="path9327"
       d="m 100.03716,108.4692 c 0,0.0604 0.0517,0.10782 0.11213,0.10782 0.0604,0 0.11213,-0.0474 0.11213,-0.10782 v -0.95314 h 0.30622 c 0.0561,0 0.0992,-0.0474 0.0992,-0.0992 0,-0.0561 -0.0431,-0.10351 -0.0992,-0.10351 h -0.836699 c -0.05607,0 -0.09919,0.0474 -0.09919,0.10351 0,0.0517 0.04313,0.0992 0.09919,0.0992 h 0.306219 z m 0,0"
       style="fill:#000000;fill-opacity:1;stroke:none;stroke-width:0.27602378" />
    <path
       inkscape:connector-curvature="0"
       id="path9323"
       d="m 100.9314,108.4692 c 0,0.0604 0.0517,0.10782 0.11214,0.10782 0.0604,0 0.11213,-0.0474 0.11213,-0.10782 v -0.34071 h 0.27602 l 0.30622,0.39247 c 0.0259,0.0345 0.0561,0.0561 0.10782,0.0561 0.0517,0 0.10351,-0.0388 0.10351,-0.10351 0,-0.0345 -0.0129,-0.0561 -0.0345,-0.0819 l -0.24152,-0.3019 c 0.1682,-0.0561 0.28465,-0.17683 0.28465,-0.37522 v -0.004 c 0,-0.11214 -0.0345,-0.20271 -0.10351,-0.27171 -0.0776,-0.0776 -0.2027,-0.12508 -0.36228,-0.12508 h -0.44854 c -0.0604,0 -0.11213,0.0474 -0.11213,0.11214 z m 0.22427,-0.53479 v -0.42267 h 0.31915 c 0.16389,0 0.25878,0.0733 0.25878,0.21134 0,0.12938 -0.0992,0.21133 -0.25878,0.21133 z m 0,0"
       style="fill:#000000;fill-opacity:1;stroke:none;stroke-width:0.27602378" />
    <path
       inkscape:connector-curvature="0"
       id="path9319"
       d="m 102.29892,108.4692 c 0,0.0604 0.0517,0.10782 0.11213,0.10782 0.0604,0 0.11214,-0.0474 0.11214,-0.10782 v -1.05665 c 0,-0.0604 -0.0518,-0.10782 -0.11214,-0.10782 -0.0604,0 -0.11213,0.0474 -0.11213,0.10782 z m 0,0"
       style="fill:#000000;fill-opacity:1;stroke:none;stroke-width:0.27602378" />
    <path
       inkscape:connector-curvature="0"
       id="path9315"
       d="m 103.50159,108.58996 c 0.18545,0 0.3364,-0.0647 0.44422,-0.13801 0.0517,-0.0302 0.0776,-0.0776 0.0776,-0.13801 v -0.3364 c 0,-0.0604 -0.0474,-0.11214 -0.11213,-0.11214 h -0.34934 c -0.0518,0 -0.0992,0.0431 -0.0992,0.0992 0,0.0518 0.0474,0.0949 0.0992,0.0949 h 0.25014 v 0.2329 c -0.0776,0.0604 -0.18545,0.0949 -0.30621,0.0949 -0.25446,0 -0.42698,-0.18977 -0.42698,-0.44854 0,-0.24152 0.17683,-0.44423 0.40973,-0.44423 0.1337,0 0.22427,0.0388 0.3019,0.0992 0.0216,0.0129 0.0431,0.0259 0.069,0.0259 0.0604,0 0.11213,-0.0517 0.11213,-0.11213 0,-0.0431 -0.0259,-0.0733 -0.0474,-0.0906 -0.11213,-0.0819 -0.24152,-0.12508 -0.42697,-0.12508 -0.37953,0 -0.64693,0.29759 -0.64693,0.64693 v 0.004 c 0,0.3666 0.25446,0.64693 0.65124,0.64693 z m 0,0"
       style="fill:#000000;fill-opacity:1;stroke:none;stroke-width:0.27602378" />
    <path
       inkscape:connector-curvature="0"
       id="path9075"
       d="m 88.275867,32.877182 c 0,0.133699 0.09919,0.241521 0.232894,0.241521 0.107823,0 0.19408,-0.06038 0.237207,-0.159577 l 0.159578,-0.383845 h 1.022149 l 0.155265,0.366594 c 0.04744,0.103509 0.125071,0.176828 0.245833,0.176828 0.133699,0 0.241522,-0.112135 0.241522,-0.245834 0,-0.0345 -0.0086,-0.06901 -0.02588,-0.103509 L 89.73362,30.945015 C 89.67755,30.819942 89.578355,30.74231 89.440343,30.74231 h -0.03019 c -0.138012,0 -0.24152,0.07763 -0.297587,0.202705 l -0.806509,1.824345 c -0.01725,0.0345 -0.03019,0.07332 -0.03019,0.107822 z m 0.819443,-0.75044 0.323467,-0.763378 0.319153,0.763378 z m 0,0"
       style="fill:#000000;fill-opacity:1;stroke:none;stroke-width:0.276024" />
    <path
       inkscape:connector-curvature="0"
       id="path9071"
       d="m 90.947809,32.842679 c 0,0.142325 0.112136,0.254459 0.254461,0.254459 h 0.64693 c 0.728876,0 1.233486,-0.508919 1.233486,-1.160162 v -0.0043 c 0,-0.655556 -0.50461,-1.15585 -1.233486,-1.15585 h -0.64693 c -0.142325,0 -0.254461,0.116448 -0.254461,0.258773 z m 0.508918,-0.207018 v -1.39737 H 91.8492 c 0.418348,0 0.698686,0.288962 0.698686,0.698685 v 0.0086 c 0,0.409723 -0.280338,0.690059 -0.698686,0.690059 z m 0,0"
       style="fill:#000000;fill-opacity:1;stroke:none;stroke-width:0.276024" />
    <path
       inkscape:connector-curvature="0"
       id="path9067"
       d="m 94.361766,33.131641 c 0.50029,0 0.84964,-0.258772 0.84964,-0.720249 v -0.0086 c 0,-0.401097 -0.26309,-0.569299 -0.73319,-0.694373 -0.4011,-0.103504 -0.5003,-0.150946 -0.5003,-0.301896 v -0.0086 c 0,-0.112135 0.0992,-0.202705 0.29759,-0.202705 0.15958,0 0.31916,0.05607 0.48736,0.155263 0.0388,0.02588 0.0776,0.03882 0.12938,0.03882 0.12939,0 0.23721,-0.103509 0.23721,-0.237208 0,-0.0992 -0.0561,-0.168202 -0.11213,-0.202705 -0.21133,-0.129386 -0.45285,-0.202705 -0.7375,-0.202705 -0.47442,0 -0.81082,0.276024 -0.81082,0.698685 v 0.0043 c 0,0.461478 0.3019,0.590864 0.76769,0.711624 0.38816,0.0992 0.4701,0.16389 0.4701,0.293276 v 0.0086 c 0,0.133699 -0.12939,0.215643 -0.3364,0.215643 -0.22427,0 -0.41835,-0.07763 -0.59087,-0.207017 -0.0345,-0.02588 -0.0819,-0.04744 -0.14664,-0.04744 -0.13369,0 -0.24152,0.103508 -0.24152,0.237207 0,0.07763 0.0431,0.150951 0.0992,0.189767 0.25878,0.185453 0.56499,0.280336 0.87121,0.280336 z m 0,0"
       style="fill:#000000;fill-opacity:1;stroke:none;stroke-width:0.276024" />
    <path
       inkscape:connector-curvature="0"
       id="path9063"
       d="m 95.692656,32.85993 c 0,0.142325 0.11214,0.258773 0.25446,0.258773 0.14232,0 0.25446,-0.116448 0.25446,-0.258773 v -0.504606 h 0.40541 l 0.49598,0.62968 c 0.0604,0.07763 0.13801,0.133699 0.25446,0.133699 0.12076,0 0.24152,-0.09488 0.24152,-0.237208 0,-0.07763 -0.0345,-0.133699 -0.0819,-0.19408 l -0.35366,-0.431287 c 0.28034,-0.116447 0.46148,-0.340717 0.46148,-0.707311 v -0.0043 c 0,-0.219956 -0.069,-0.401097 -0.1984,-0.530483 -0.15095,-0.150953 -0.37953,-0.237211 -0.67712,-0.237211 h -0.80219 c -0.14232,0 -0.25446,0.116448 -0.25446,0.258773 z m 0.50892,-0.953144 v -0.668495 h 0.50461 c 0.25014,0 0.40109,0.112134 0.40109,0.332091 v 0.0043 c 0,0.198392 -0.14232,0.332091 -0.38816,0.332091 z m 0,0"
       style="fill:#000000;fill-opacity:1;stroke:none;stroke-width:0.276024" />
    <path
       inkscape:connector-curvature="0"
       id="path9003"
       d="m 89.599095,40.443363 c 0.202705,0 0.336402,-0.06469 0.45285,-0.168202 0.02156,-0.01725 0.03882,-0.04744 0.03882,-0.07763 0,-0.05607 -0.05175,-0.103509 -0.107823,-0.103509 -0.02588,0 -0.04744,0.0086 -0.06469,0.02588 -0.09057,0.07763 -0.181139,0.12076 -0.314838,0.12076 -0.237209,0 -0.414036,-0.202705 -0.414036,-0.448538 0,-0.245834 0.176827,-0.444226 0.414036,-0.444226 0.120759,0 0.215643,0.04313 0.3019,0.112134 0.01294,0.01294 0.0345,0.02156 0.06469,0.02156 0.06038,0 0.112136,-0.04744 0.112136,-0.107822 0,-0.03882 -0.02156,-0.06901 -0.04313,-0.08626 -0.112136,-0.08626 -0.237207,-0.142325 -0.431287,-0.142325 -0.379534,0 -0.64693,0.293275 -0.64693,0.646931 v 0.0043 c 0,0.362281 0.271709,0.64693 0.638305,0.64693 z m 0,0"
       style="fill:#000000;fill-opacity:1;stroke:none;stroke-width:0.27602378" />
    <path
       inkscape:connector-curvature="0"
       id="path8999"
       d="m 90.889301,40.43905 h 0.01294 c 0.06038,0 0.103508,-0.0345 0.125071,-0.09057 l 0.444228,-1.039402 c 0.0043,-0.01294 0.0086,-0.03019 0.0086,-0.04744 0,-0.05607 -0.04744,-0.103508 -0.107823,-0.103508 -0.05175,0 -0.09057,0.0345 -0.107821,0.06901 l -0.3666,0.914322 -0.362281,-0.905703 c -0.01725,-0.04744 -0.05607,-0.07763 -0.112133,-0.07763 -0.06469,0 -0.112135,0.04744 -0.112135,0.107821 0,0.01725 0.0043,0.0345 0.01294,0.05175 l 0.439914,1.030776 c 0.02156,0.05607 0.06469,0.09057 0.125072,0.09057 z m 0,0"
       style="fill:#000000;fill-opacity:1;stroke:none;stroke-width:0.27602378" />
    <path
       style="fill:none;stroke:#000000;stroke-width:0.18383184;stroke-linecap:round;stroke-linejoin:round;stroke-miterlimit:10;stroke-opacity:1"
       d="m 90.69484,62.766808 h 15.01634"
       id="path34093"
       inkscape:connector-curvature="0" />
    <path
       style="fill:none;stroke:#000000;stroke-width:0.18383184;stroke-linecap:round;stroke-linejoin:round;stroke-miterlimit:10;stroke-opacity:1"
       d="m 90.69484,80.370871 h 15.01634"
       id="path34095"
       inkscape:connector-curvature="0" />
    <path
       style="fill:none;stroke:#000000;stroke-width:0.18383184;stroke-linecap:round;stroke-linejoin:round;stroke-miterlimit:10;stroke-opacity:1"
       d="m 90.69484,97.976013 h 15.01634"
       id="path34097"
       inkscape:connector-curvature="0" />
    <path
       style="fill:none;stroke:#000000;stroke-width:0.18383184;stroke-linecap:round;stroke-linejoin:round;stroke-miterlimit:10;stroke-opacity:1"
       d="m 90.69484,45.161663 h 15.01634"
       id="path34099"
       inkscape:connector-curvature="0" />
    <path
       inkscape:connector-curvature="0"
       id="path8947"
       d="m 103.55021,37.705675 c 0,0.07332 0.0517,0.129387 0.12507,0.129387 0.0561,0 0.10351,-0.0345 0.12507,-0.08626 l 0.12939,-0.301901 h 0.75044 l 0.12507,0.293275 c 0.0259,0.05607 0.069,0.09488 0.1337,0.09488 0.0733,0 0.12939,-0.06038 0.12939,-0.133699 0,-0.01725 -0.004,-0.0345 -0.0173,-0.05607 l -0.57361,-1.280923 c -0.0302,-0.06901 -0.082,-0.112134 -0.15958,-0.112134 h -0.0129 c -0.0776,0 -0.1337,0.04313 -0.16389,0.112134 l -0.57361,1.280923 c -0.0129,0.02156 -0.0172,0.04313 -0.0172,0.06038 z m 0.48304,-0.49598 0.27171,-0.625366 0.27171,0.625366 z m 0,0"
       style="fill:#000000;fill-opacity:1;stroke:none;stroke-width:0.27602378" />
    <path
       inkscape:connector-curvature="0"
       id="path8943"
       d="m 105.59003,37.69705 c 0,0.07763 0.0604,0.138012 0.13801,0.138012 0.0733,0 0.13801,-0.06038 0.13801,-0.138012 v -1.168788 h 0.37522 c 0.069,0 0.12507,-0.05607 0.12507,-0.125074 0,-0.06901 -0.0561,-0.125073 -0.12507,-0.125073 h -1.02646 c -0.069,0 -0.12508,0.05607 -0.12508,0.125073 0,0.06901 0.0561,0.125074 0.12508,0.125074 h 0.37522 z m 0,0"
       style="fill:#000000;fill-opacity:1;stroke:none;stroke-width:0.27602378" />
    <path
       inkscape:connector-curvature="0"
       id="path8939"
       d="m 107.11235,37.69705 c 0,0.07763 0.0604,0.138012 0.13801,0.138012 0.0733,0 0.13802,-0.06038 0.13802,-0.138012 v -1.168788 h 0.37522 c 0.069,0 0.12507,-0.05607 0.12507,-0.125074 0,-0.06901 -0.0561,-0.125073 -0.12507,-0.125073 h -1.02647 c -0.069,0 -0.12507,0.05607 -0.12507,0.125073 0,0.06901 0.0561,0.125074 0.12507,0.125074 h 0.37522 z m 0,0"
       style="fill:#000000;fill-opacity:1;stroke:none;stroke-width:0.27602378" />
    <path
       inkscape:connector-curvature="0"
       id="path8935"
       d="m 103.46161,55.466665 c 0,0.07763 0.0604,0.138012 0.13801,0.138012 h 0.43991 c 0.48304,0 0.81945,-0.336404 0.81945,-0.772004 v -0.0043 c 0,-0.4356 -0.33641,-0.767692 -0.81945,-0.767692 h -0.43991 c -0.0776,0 -0.13801,0.05607 -0.13801,0.1337 z m 0.27171,-0.107823 v -1.05234 h 0.30621 c 0.32347,0 0.5348,0.224271 0.5348,0.526171 v 0.0043 c 0,0.3019 -0.21133,0.521856 -0.5348,0.521856 z m 0,0"
       style="fill:#000000;fill-opacity:1;stroke:none;stroke-width:0.27602378" />
    <path
       inkscape:connector-curvature="0"
       id="path8931"
       d="m 105.37433,55.604677 h 0.91002 c 0.0647,0 0.12076,-0.05175 0.12076,-0.120761 0,-0.06901 -0.0561,-0.120758 -0.12076,-0.120758 h -0.77632 v -0.418349 h 0.66418 c 0.069,0 0.12077,-0.05175 0.12077,-0.116448 0,-0.06901 -0.0518,-0.125074 -0.12077,-0.125074 h -0.66418 v -0.401098 h 0.76338 c 0.069,0 0.12076,-0.05175 0.12076,-0.120758 0,-0.06901 -0.0517,-0.120762 -0.12076,-0.120762 h -0.89708 c -0.0776,0 -0.13801,0.05607 -0.13801,0.1337 v 1.272296 c 0,0.07763 0.0604,0.138012 0.13801,0.138012 z m 0,0"
       style="fill:#000000;fill-opacity:1;stroke:none;stroke-width:0.27602378" />
    <path
       inkscape:connector-curvature="0"
       id="path8927"
       d="m 107.44279,55.630554 c 0.25015,0 0.41835,-0.07763 0.56499,-0.207018 0.0216,-0.02156 0.0431,-0.05607 0.0431,-0.09919 0,-0.06469 -0.0604,-0.125074 -0.12939,-0.125074 -0.0345,0 -0.0604,0.01294 -0.0819,0.03019 -0.11213,0.09488 -0.22427,0.15095 -0.38384,0.15095 -0.29759,0 -0.51324,-0.245834 -0.51324,-0.547735 v -0.0043 c 0,-0.301901 0.21565,-0.547735 0.51324,-0.547735 0.14663,0 0.25877,0.05607 0.36659,0.142324 0.0173,0.01294 0.0431,0.02588 0.0819,0.02588 0.0733,0 0.1337,-0.06038 0.1337,-0.133696 0,-0.04744 -0.0216,-0.08626 -0.0517,-0.107823 -0.1337,-0.103508 -0.29327,-0.176829 -0.53048,-0.176829 -0.4701,0 -0.79788,0.362283 -0.79788,0.802195 v 0.0043 c 0,0.444225 0.3364,0.793568 0.78494,0.793568 z m 0,0"
       style="fill:#000000;fill-opacity:1;stroke:none;stroke-width:0.27602378" />
    <path
       inkscape:connector-curvature="0"
       id="path8923"
       d="m 104.14855,73.229933 c 0.32346,0 0.55205,-0.172514 0.55205,-0.461476 v -0.0043 c 0,-0.254461 -0.1682,-0.370909 -0.49598,-0.452853 -0.29759,-0.06901 -0.37091,-0.125074 -0.37091,-0.24152 v -0.0043 c 0,-0.10351 0.0949,-0.185454 0.25446,-0.185454 0.12076,0 0.23289,0.04313 0.35366,0.116448 0.0216,0.01294 0.0431,0.02156 0.0733,0.02156 0.069,0 0.12507,-0.05607 0.12507,-0.125074 0,-0.05175 -0.0259,-0.09057 -0.0604,-0.10782 -0.13801,-0.09489 -0.29328,-0.146638 -0.48735,-0.146638 -0.30622,0 -0.53049,0.185452 -0.53049,0.448538 v 0.0043 c 0,0.284649 0.18546,0.383847 0.51755,0.461478 0.28465,0.06901 0.34934,0.129384 0.34934,0.237207 v 0.0043 c 0,0.116448 -0.10782,0.194079 -0.27602,0.194079 -0.16821,0 -0.30622,-0.05607 -0.43129,-0.159575 -0.0173,-0.01294 -0.0431,-0.02156 -0.082,-0.02156 -0.069,0 -0.12507,0.05607 -0.12507,0.125074 0,0.04313 0.0216,0.08194 0.0517,0.103511 0.17251,0.129383 0.37091,0.194077 0.58224,0.194077 z m 0,0"
       style="fill:#000000;fill-opacity:1;stroke:none;stroke-width:0.27602378" />
    <path
       inkscape:connector-curvature="0"
       id="path8919"
       d="m 105.70536,73.234246 c 0.40541,0 0.66418,-0.232894 0.66418,-0.694373 v -0.75475 c 0,-0.07332 -0.0604,-0.133699 -0.13369,-0.133699 -0.0776,0 -0.13802,0.06038 -0.13802,0.133699 v 0.767691 c 0,0.284649 -0.14664,0.426974 -0.38816,0.426974 -0.24151,0 -0.39247,-0.15095 -0.39247,-0.439915 v -0.75475 c 0,-0.07332 -0.0561,-0.133699 -0.1337,-0.133699 -0.0776,0 -0.13801,0.06038 -0.13801,0.133699 v 0.767691 c 0,0.448538 0.25877,0.681432 0.65987,0.681432 z m 0,0"
       style="fill:#000000;fill-opacity:1;stroke:none;stroke-width:0.27602378" />
    <path
       inkscape:connector-curvature="0"
       id="path8915"
       d="m 107.34137,73.229933 c 0.32347,0 0.55205,-0.172514 0.55205,-0.461476 v -0.0043 c 0,-0.254461 -0.1682,-0.370909 -0.49598,-0.452853 -0.29759,-0.06901 -0.37091,-0.125074 -0.37091,-0.24152 v -0.0043 c 0,-0.10351 0.0949,-0.185454 0.25446,-0.185454 0.12076,0 0.2329,0.04313 0.35366,0.116448 0.0216,0.01294 0.0431,0.02156 0.0733,0.02156 0.069,0 0.12507,-0.05607 0.12507,-0.125074 0,-0.05175 -0.0259,-0.09057 -0.0604,-0.10782 -0.13801,-0.09489 -0.29327,-0.146638 -0.48735,-0.146638 -0.30622,0 -0.53049,0.185452 -0.53049,0.448538 v 0.0043 c 0,0.284649 0.18546,0.383847 0.51755,0.461478 0.28465,0.06901 0.34934,0.129384 0.34934,0.237207 v 0.0043 c 0,0.116448 -0.10782,0.194079 -0.27602,0.194079 -0.1682,0 -0.30622,-0.05607 -0.43129,-0.159575 -0.0173,-0.01294 -0.0431,-0.02156 -0.082,-0.02156 -0.069,0 -0.12507,0.05607 -0.12507,0.125074 0,0.04313 0.0216,0.08194 0.0517,0.103511 0.17252,0.129383 0.37091,0.194077 0.58224,0.194077 z m 0,0"
       style="fill:#000000;fill-opacity:1;stroke:none;stroke-width:0.27602378" />
    <path
       inkscape:connector-curvature="0"
       id="path8911"
       d="m 103.63384,90.686993 c 0,0.07763 0.0604,0.138012 0.13801,0.138012 0.0733,0 0.1337,-0.06038 0.1337,-0.138012 v -0.414036 h 0.34071 l 0.37522,0.478729 c 0.0345,0.04313 0.0733,0.07332 0.1337,0.07332 0.069,0 0.12939,-0.05175 0.12939,-0.129386 0,-0.03881 -0.0172,-0.06901 -0.0431,-0.103508 l -0.29328,-0.370906 c 0.20702,-0.06469 0.34935,-0.215646 0.34935,-0.461478 v -0.0043 c 0,-0.133699 -0.0474,-0.250148 -0.12939,-0.336405 -0.0992,-0.09488 -0.25015,-0.15095 -0.44423,-0.15095 h -0.55204 c -0.0776,0 -0.13802,0.05607 -0.13802,0.1337 z m 0.27171,-0.655555 v -0.517546 h 0.39678 c 0.19839,0 0.31915,0.09057 0.31915,0.25446 v 0.0043 c 0,0.159575 -0.12507,0.258773 -0.31915,0.258773 z m 0,0"
       style="fill:#000000;fill-opacity:1;stroke:none;stroke-width:0.27602378" />
    <path
       inkscape:connector-curvature="0"
       id="path8907"
       d="m 105.42954,90.812067 h 0.91002 c 0.0647,0 0.12076,-0.05175 0.12076,-0.120761 0,-0.06901 -0.0561,-0.120759 -0.12076,-0.120759 h -0.77632 v -0.418348 h 0.66418 c 0.069,0 0.12076,-0.05175 0.12076,-0.116449 0,-0.06901 -0.0517,-0.125073 -0.12076,-0.125073 h -0.66418 v -0.401098 h 0.76338 c 0.069,0 0.12076,-0.05175 0.12076,-0.120759 0,-0.06901 -0.0517,-0.120761 -0.12076,-0.120761 h -0.89708 c -0.0776,0 -0.13801,0.05607 -0.13801,0.1337 v 1.272296 c 0,0.07763 0.0604,0.138012 0.13801,0.138012 z m 0,0"
       style="fill:#000000;fill-opacity:1;stroke:none;stroke-width:0.27602378" />
    <path
       inkscape:connector-curvature="0"
       id="path8903"
       d="m 106.81739,90.674055 c 0,0.07763 0.0604,0.138012 0.13801,0.138012 h 0.83239 c 0.069,0 0.12507,-0.05607 0.12507,-0.125074 0,-0.06901 -0.0561,-0.120761 -0.12507,-0.120761 H 107.0891 V 89.38882 c 0,-0.07332 -0.0604,-0.133699 -0.1337,-0.133699 -0.0776,0 -0.13801,0.06038 -0.13801,0.133699 z m 0,0"
       style="fill:#000000;fill-opacity:1;stroke:none;stroke-width:0.27602378" />
    <path
       inkscape:connector-curvature="0"
       id="path8863"
       d="m 89.599095,58.047964 c 0.202705,0 0.336402,-0.06469 0.45285,-0.168201 0.02156,-0.01725 0.03882,-0.04744 0.03882,-0.07763 0,-0.05607 -0.05175,-0.10351 -0.107823,-0.10351 -0.02588,0 -0.04744,0.0086 -0.06469,0.02588 -0.09057,0.07763 -0.181139,0.120758 -0.314838,0.120758 -0.237209,0 -0.414036,-0.202702 -0.414036,-0.448537 0,-0.245835 0.176827,-0.444225 0.414036,-0.444225 0.120759,0 0.215643,0.04313 0.3019,0.112133 0.01294,0.01294 0.0345,0.02156 0.06469,0.02156 0.06038,0 0.112136,-0.04744 0.112136,-0.107823 0,-0.03882 -0.02156,-0.06901 -0.04313,-0.08626 -0.112136,-0.08626 -0.237207,-0.142325 -0.431287,-0.142325 -0.379534,0 -0.64693,0.293275 -0.64693,0.64693 v 0.0043 c 0,0.36228 0.271709,0.64693 0.638305,0.64693 z m 0,0"
       style="fill:#000000;fill-opacity:1;stroke:none;stroke-width:0.27602378" />
    <path
       inkscape:connector-curvature="0"
       id="path8859"
       d="m 90.889301,58.043651 h 0.01294 c 0.06038,0 0.103508,-0.0345 0.125071,-0.09057 l 0.444228,-1.039403 c 0.0043,-0.01294 0.0086,-0.03019 0.0086,-0.04744 0,-0.05607 -0.04744,-0.103508 -0.107823,-0.103508 -0.05175,0 -0.09057,0.0345 -0.107821,0.06901 l -0.3666,0.914324 -0.362281,-0.905703 c -0.01725,-0.04744 -0.05607,-0.07763 -0.112133,-0.07763 -0.06469,0 -0.112135,0.04744 -0.112135,0.107821 0,0.01725 0.0043,0.0345 0.01294,0.05175 l 0.439914,1.030777 c 0.02156,0.05607 0.06469,0.09057 0.125072,0.09057 z m 0,0"
       style="fill:#000000;fill-opacity:1;stroke:none;stroke-width:0.27602378" />
    <path
       inkscape:connector-curvature="0"
       id="path8855"
       d="m 89.599095,75.652209 c 0.202705,0 0.336402,-0.06469 0.45285,-0.168201 0.02156,-0.01725 0.03882,-0.04744 0.03882,-0.07763 0,-0.05607 -0.05175,-0.10351 -0.107823,-0.10351 -0.02588,0 -0.04744,0.0086 -0.06469,0.02588 -0.09057,0.07763 -0.181139,0.120758 -0.314838,0.120758 -0.237209,0 -0.414036,-0.202702 -0.414036,-0.448537 0,-0.245835 0.176827,-0.444225 0.414036,-0.444225 0.120759,0 0.215643,0.04313 0.3019,0.112133 0.01294,0.01294 0.0345,0.02156 0.06469,0.02156 0.06038,0 0.112136,-0.04744 0.112136,-0.107823 0,-0.03882 -0.02156,-0.06901 -0.04313,-0.08626 -0.112136,-0.08626 -0.237207,-0.142325 -0.431287,-0.142325 -0.379534,0 -0.64693,0.293275 -0.64693,0.64693 v 0.0043 c 0,0.362281 0.271709,0.64693 0.638305,0.64693 z m 0,0"
       style="fill:#000000;fill-opacity:1;stroke:none;stroke-width:0.27602378" />
    <path
       inkscape:connector-curvature="0"
       id="path8851"
       d="m 90.889301,75.647897 h 0.01294 c 0.06038,0 0.103508,-0.0345 0.125071,-0.09057 l 0.444228,-1.039402 c 0.0043,-0.01294 0.0086,-0.03019 0.0086,-0.04744 0,-0.05607 -0.04744,-0.103507 -0.107823,-0.103507 -0.05175,0 -0.09057,0.0345 -0.107821,0.06901 l -0.3666,0.914321 -0.362281,-0.905703 c -0.01725,-0.04744 -0.05607,-0.07763 -0.112133,-0.07763 -0.06469,0 -0.112135,0.04744 -0.112135,0.10782 0,0.01725 0.0043,0.0345 0.01294,0.05175 l 0.439914,1.030777 c 0.02156,0.05607 0.06469,0.09057 0.125072,0.09057 z m 0,0"
       style="fill:#000000;fill-opacity:1;stroke:none;stroke-width:0.27602378" />
    <path
       inkscape:connector-curvature="0"
       id="path8847"
       d="m 89.599095,93.256455 c 0.202705,0 0.336402,-0.06469 0.45285,-0.168201 0.02156,-0.01725 0.03882,-0.04744 0.03882,-0.07763 0,-0.05607 -0.05175,-0.10351 -0.107823,-0.10351 -0.02588,0 -0.04744,0.0086 -0.06469,0.02588 -0.09057,0.07763 -0.181139,0.120759 -0.314838,0.120759 -0.237209,0 -0.414036,-0.202703 -0.414036,-0.448538 0,-0.245835 0.176827,-0.444225 0.414036,-0.444225 0.120759,0 0.215643,0.04313 0.3019,0.112133 0.01294,0.01294 0.0345,0.02156 0.06469,0.02156 0.06038,0 0.112136,-0.04744 0.112136,-0.107823 0,-0.03882 -0.02156,-0.06901 -0.04313,-0.08626 -0.112136,-0.08626 -0.237207,-0.142325 -0.431287,-0.142325 -0.379534,0 -0.64693,0.293275 -0.64693,0.646931 v 0.0043 c 0,0.362281 0.271709,0.64693 0.638305,0.64693 z m 0,0"
       style="fill:#000000;fill-opacity:1;stroke:none;stroke-width:0.27602378" />
    <path
       inkscape:connector-curvature="0"
       id="path8843"
       d="m 90.889301,93.252142 h 0.01294 c 0.06038,0 0.103508,-0.0345 0.125071,-0.09057 L 91.47154,92.12217 c 0.0043,-0.01294 0.0086,-0.03019 0.0086,-0.04744 0,-0.05607 -0.04744,-0.103508 -0.107823,-0.103508 -0.05175,0 -0.09057,0.0345 -0.107821,0.06901 l -0.3666,0.914322 -0.362281,-0.905703 c -0.01725,-0.04744 -0.05607,-0.07763 -0.112133,-0.07763 -0.06469,0 -0.112135,0.04744 -0.112135,0.10782 0,0.01725 0.0043,0.0345 0.01294,0.05175 l 0.439914,1.030777 c 0.02156,0.05607 0.06469,0.09057 0.125072,0.09057 z m 0,0"
       style="fill:#000000;fill-opacity:1;stroke:none;stroke-width:0.27602378" />
    <path
       style="fill:#000000;fill-opacity:1;fill-rule:nonzero;stroke:none;stroke-width:0.27602378"
       d="m 114.66902,106.93601 c 0,-0.43022 -0.35258,-0.78279 -0.78279,-0.78279 h -6.00999 c -0.43129,0 -0.78278,0.35257 -0.78278,0.78279 v 9.52389 c 0,0.43021 0.35149,0.78279 0.78278,0.78279 h 6.00999 c 0.43021,0 0.78279,-0.35258 0.78279,-0.78279 z m 0,0"
       id="path36497"
       inkscape:connector-curvature="0" />
    <path
       inkscape:connector-curvature="0"
       id="path6923"
       d="m 109.5627,108.59052 c 0.38816,0 0.67281,-0.29328 0.67281,-0.65125 0,-0.35796 -0.28034,-0.64693 -0.66849,-0.64693 -0.38816,0 -0.6685,0.29328 -0.6685,0.64693 v 0.004 c 0,0.35797 0.28034,0.64693 0.66418,0.64693 z m 0.004,-0.25446 c -0.21995,0 -0.37953,-0.18114 -0.37953,-0.39679 0,-0.21564 0.15526,-0.39247 0.37522,-0.39247 0.22427,0 0.38385,0.17683 0.38385,0.39247 v 0.004 c 0,0.21565 -0.15527,0.39248 -0.37954,0.39248 z m 0,0"
       style="fill:#e6e6e6;fill-opacity:1;stroke:none;stroke-width:0.27602378" />
    <path
       inkscape:connector-curvature="0"
       id="path6919"
       d="m 111.0623,108.59052 c 0.34072,0 0.55205,-0.18977 0.55205,-0.5693 v -0.58224 c 0,-0.0776 -0.0604,-0.13801 -0.13801,-0.13801 -0.0776,0 -0.13801,0.0604 -0.13801,0.13801 v 0.59518 c 0,0.19839 -0.10351,0.3019 -0.27171,0.3019 -0.16821,0 -0.27171,-0.10782 -0.27171,-0.31053 v -0.58655 c 0,-0.0776 -0.0604,-0.13801 -0.13802,-0.13801 -0.0733,0 -0.13801,0.0604 -0.13801,0.13801 v 0.59086 c 0,0.37091 0.20702,0.56068 0.54342,0.56068 z m 0,0"
       style="fill:#e6e6e6;fill-opacity:1;stroke:none;stroke-width:0.27602378" />
    <path
       inkscape:connector-curvature="0"
       id="path6915"
       d="m 112.24034,108.43957 c 0,0.0776 0.0604,0.13801 0.13801,0.13801 0.0776,0 0.13801,-0.0604 0.13801,-0.13801 v -0.8712 h 0.26309 c 0.0733,0 0.12939,-0.0561 0.12939,-0.12939 0,-0.069 -0.0561,-0.12507 -0.12939,-0.12507 h -0.80651 c -0.069,0 -0.12507,0.0561 -0.12507,0.12507 0,0.0733 0.0561,0.12939 0.12507,0.12939 h 0.2674 z m 0,0"
       style="fill:#e6e6e6;fill-opacity:1;stroke:none;stroke-width:0.27602378" />
    <g
       style="font-style:normal;font-weight:normal;font-size:10.5833px;line-height:1.25;font-family:sans-serif;fill:#000000;fill-opacity:1;stroke:none;stroke-width:0.264583"
       id="text3886"
       aria-label="+ gates">
      <path
         id="path4467"
         style="font-style:normal;font-variant:normal;font-weight:normal;font-stretch:normal;font-size:3.52778px;font-family:Phosphate;-inkscape-font-specification:Phosphate;fill:#ff2100;fill-opacity:1;stroke-width:0.264583"
         d="m 99.76084,31.974407 h -0.448028 v -0.585611 h 0.448028 v -0.448029 h 0.58561 v 0.448029 h 0.44803 v 0.585611 h -0.44803 v 0.448028 h -0.58561 z m 0.33514,0.236361 v -0.486833 h 0.48683 v -0.08467 h -0.48683 v -0.486834 h -0.0847 v 0.486834 h -0.486831 v 0.08467 h 0.486831 v 0.486833 z" />
      <path
         id="path4469"
         style="font-style:normal;font-variant:normal;font-weight:normal;font-stretch:normal;font-size:3.52778px;font-family:Phosphate;-inkscape-font-specification:Phosphate;fill:#ff2100;fill-opacity:1;stroke-width:0.264583"
         d="m 103.19392,31.081879 q -0.0635,-0.05645 -0.15875,-0.08467 -0.0952,-0.03175 -0.18697,-0.03175 -0.10231,0 -0.18697,0.0388 -0.0847,0.03528 -0.14817,0.102306 -0.06,0.0635 -0.0952,0.155222 -0.0353,0.09172 -0.0353,0.197556 0,0.105834 0.0388,0.197556 0.0388,0.09172 0.10583,0.15875 0.067,0.0635 0.15522,0.102306 0.0917,0.03528 0.19403,0.03528 0.11995,0 0.21872,-0.04939 0.0988,-0.05292 0.16934,-0.141111 h -0.21167 v -0.493889 h 0.90664 v 0.783167 q -0.0811,0.144639 -0.19403,0.264584 -0.11289,0.116416 -0.254,0.201083 -0.13758,0.08467 -0.29986,0.130528 -0.16228,0.04586 -0.33514,0.04586 -0.254,0 -0.47978,-0.09525 -0.22578,-0.09525 -0.39511,-0.261056 -0.1658,-0.165805 -0.26458,-0.391583 -0.0952,-0.225778 -0.0952,-0.486834 0,-0.254 0.0917,-0.479778 0.0917,-0.225778 0.25047,-0.391584 0.16228,-0.169333 0.381,-0.264583 0.22225,-0.09878 0.47625,-0.09878 0.19756,0 0.3422,0.03881 0.14464,0.0388 0.24341,0.08819 0.11642,0.05645 0.19403,0.123472 z m 0.0353,-0.455084 q -0.0459,-0.02117 -0.10231,-0.03528 -0.0494,-0.01411 -0.11641,-0.02469 -0.067,-0.01058 -0.14817,-0.01058 -0.18697,0 -0.34925,0.06703 -0.16228,0.06703 -0.28222,0.186973 -0.11995,0.116416 -0.1905,0.282222 -0.067,0.165806 -0.067,0.366889 0,0.201084 0.0705,0.366889 0.0706,0.165806 0.19403,0.28575 0.12347,0.116417 0.28575,0.183445 0.16581,0.06703 0.35278,0.06703 0.24342,0 0.44097,-0.112889 0.19756,-0.116417 0.32103,-0.306917 v -0.462139 h -0.37394 v 0.08467 h 0.28222 v 0.352778 q -0.10936,0.162277 -0.28575,0.257527 -0.17286,0.09525 -0.38453,0.09525 -0.16933,0 -0.3175,-0.05645 -0.14464,-0.05997 -0.25753,-0.165806 -0.10936,-0.109361 -0.17286,-0.257528 -0.0635,-0.151694 -0.0635,-0.331611 0,-0.179917 0.06,-0.328083 0.0635,-0.151695 0.16934,-0.257528 0.10936,-0.109362 0.254,-0.165806 0.14464,-0.05997 0.31397,-0.05997 0.0635,0 0.11994,0.01058 0.0565,0.01058 0.0988,0.02117 0.0494,0.01411 0.0917,0.02822 z" />
      <path
         id="path4471"
         style="font-style:normal;font-variant:normal;font-weight:normal;font-stretch:normal;font-size:3.52778px;font-family:Phosphate;-inkscape-font-specification:Phosphate;fill:#ff2100;fill-opacity:1;stroke-width:0.264583"
         d="m 104.85291,30.281073 h 0.56445 l 0.89253,2.353029 h -0.74084 l -0.0776,-0.211667 h -0.71261 l -0.0776,0.211667 h -0.74083 z m 0.44098,1.622778 -0.15875,-0.41275 -0.15875,0.41275 z m -0.80786,0.448028 0.067,-0.176389 h 1.16417 l 0.067,0.176389 h 0.0988 l -0.68087,-1.788584 h -0.13405 l -0.68086,1.788584 z m 0.64911,-1.703917 0.55033,1.442862 h -1.10067 z" />
      <path
         id="path4473"
         style="font-style:normal;font-variant:normal;font-weight:normal;font-stretch:normal;font-size:3.52778px;font-family:Phosphate;-inkscape-font-specification:Phosphate;fill:#ff2100;fill-opacity:1;stroke-width:0.264583"
         d="m 106.67661,30.898434 h -0.43392 v -0.617361 h 1.64395 v 0.617361 h -0.43392 v 1.735668 h -0.77611 z m 0.43392,1.453445 v -1.703917 h 0.50447 v -0.08467 h -1.10067 v 0.08467 h 0.50448 v 1.703917 z" />
      <path
         id="path4475"
         style="font-style:normal;font-variant:normal;font-weight:normal;font-stretch:normal;font-size:3.52778px;font-family:Phosphate;-inkscape-font-specification:Phosphate;fill:#ff2100;fill-opacity:1;stroke-width:0.264583"
         d="m 108.01292,30.281073 h 1.38642 v 0.617361 h -0.635 v 0.261056 h 0.62442 v 0.585611 h -0.62442 v 0.271639 h 0.6597 v 0.617362 h -1.41112 z m 1.15006,2.070806 v -0.08467 h -0.70556 v -0.772584 h 0.67028 v -0.08467 h -0.67028 v -0.762 h 0.70556 v -0.08467 h -0.79728 v 1.788584 z" />
      <path
         id="path4477"
         style="font-style:normal;font-variant:normal;font-weight:normal;font-stretch:normal;font-size:3.52778px;font-family:Phosphate;-inkscape-font-specification:Phosphate;fill:#ff2100;fill-opacity:1;stroke-width:0.264583"
         d="m 109.87184,32.327185 q 0.0494,0.01058 0.10584,0.01764 0.0494,0.0071 0.1023,0.01411 0.0564,0.0035 0.11289,0.0035 0.0988,0 0.1905,-0.02117 0.0953,-0.02469 0.16933,-0.07761 0.0741,-0.05292 0.11642,-0.134056 0.0459,-0.08467 0.0459,-0.204611 0,-0.102306 -0.0529,-0.194028 -0.0494,-0.09172 -0.13053,-0.176389 -0.0776,-0.08467 -0.16934,-0.162278 -0.0882,-0.07761 -0.16933,-0.155222 -0.0776,-0.08114 -0.13053,-0.15875 -0.0494,-0.08114 -0.0494,-0.165806 0,-0.127 0.0811,-0.194028 0.0811,-0.07055 0.26106,-0.07055 0.0282,0 0.0564,0.0035 0.0318,0 0.06,0.0035 0.0282,0.0035 0.0564,0.0035 v -0.09172 q -0.0247,0 -0.0529,-0.0035 -0.0247,-0.0035 -0.0564,-0.0035 -0.0282,-0.0035 -0.06,-0.0035 -0.1905,0 -0.31398,0.08819 -0.12347,0.08467 -0.12347,0.268111 0,0.09878 0.0494,0.186973 0.0529,0.08467 0.13053,0.169333 0.0811,0.08114 0.16933,0.15875 0.0917,0.07761 0.16934,0.15875 0.0811,0.07761 0.13052,0.162278 0.0529,0.08467 0.0529,0.176389 0,0.169334 -0.11642,0.257528 -0.11289,0.08819 -0.31397,0.08819 -0.11994,0 -0.21872,-0.01764 -0.0529,-0.0071 -0.10231,-0.01764 z m -0.29633,-0.423334 q 0.0776,0.0247 0.16228,0.03881 0.0705,0.01764 0.15875,0.02822 0.0917,0.01058 0.18344,0.01058 0.16228,0 0.16228,-0.119945 0,-0.04586 -0.0494,-0.09172 -0.0494,-0.04939 -0.127,-0.105834 -0.0741,-0.05997 -0.16228,-0.130528 -0.0847,-0.07055 -0.16227,-0.162277 -0.0741,-0.09172 -0.12348,-0.204612 -0.0494,-0.116416 -0.0494,-0.264583 0,-0.165806 0.06,-0.292806 0.06,-0.127 0.1658,-0.211667 0.10584,-0.08467 0.24695,-0.127 0.14464,-0.04586 0.30691,-0.04586 0.0847,0 0.16934,0.01058 0.0847,0.0071 0.15169,0.01411 0.0776,0.01058 0.1517,0.02117 v 0.659695 q -0.0282,-0.0035 -0.0635,-0.0071 -0.0282,-0.0035 -0.0635,-0.0071 -0.0353,-0.0035 -0.0741,-0.0035 -0.0212,0 -0.0529,0.0035 -0.0318,0 -0.06,0.0071 -0.0282,0.0071 -0.0494,0.02469 -0.0212,0.01764 -0.0212,0.04939 0,0.02822 0.0459,0.07056 0.0494,0.04233 0.11642,0.09878 0.0706,0.05645 0.15169,0.130528 0.0847,0.07408 0.15169,0.169334 0.0706,0.09525 0.11642,0.215194 0.0494,0.119945 0.0494,0.268112 0,0.155222 -0.0494,0.292805 -0.0494,0.134056 -0.15522,0.236362 -0.10231,0.09878 -0.26458,0.155222 -0.16228,0.05997 -0.38453,0.05997 -0.13406,0 -0.25047,-0.01411 -0.11289,-0.01058 -0.20109,-0.02822 -0.1023,-0.01764 -0.18697,-0.04233 z" />
    </g>
  </g>
</svg>
