<?xml version="1.0" encoding="UTF-8" standalone="no"?>
<svg
   width="50.799999mm"
   height="128.5mm"
   viewBox="0 0 50.8 128.5"
   version="1.1"
   id="svg1238"
   inkscape:version="1.1 (c4e8f9e, 2021-05-24)"
   sodipodi:docname="Inpulse.svg"
   xmlns:inkscape="http://www.inkscape.org/namespaces/inkscape"
   xmlns:sodipodi="http://sodipodi.sourceforge.net/DTD/sodipodi-0.dtd"
   xmlns="http://www.w3.org/2000/svg"
   xmlns:svg="http://www.w3.org/2000/svg"
   xmlns:rdf="http://www.w3.org/1999/02/22-rdf-syntax-ns#"
   xmlns:cc="http://creativecommons.org/ns#"
   xmlns:dc="http://purl.org/dc/elements/1.1/">
  <defs
     id="defs1232">
    <marker
       style="overflow:visible;"
       id="Arrow1Send"
       refX="0.0"
       refY="0.0"
       orient="auto"
       inkscape:stockid="Arrow1Send"
       inkscape:isstock="true">
      <path
         transform="scale(0.2) rotate(180) translate(6,0)"
         style="fill-rule:evenodd;fill:context-stroke;stroke:context-stroke;stroke-width:1.0pt;"
         d="M 0.0,0.0 L 5.0,-5.0 L -12.5,0.0 L 5.0,5.0 L 0.0,0.0 z "
         id="path2602" />
    </marker>
    <marker
       style="overflow:visible;"
       id="Arrow1Lend"
       refX="0.0"
       refY="0.0"
       orient="auto"
       inkscape:stockid="Arrow1Lend"
       inkscape:isstock="true">
      <path
         transform="scale(0.8) rotate(180) translate(12.5,0)"
         style="fill-rule:evenodd;fill:context-stroke;stroke:context-stroke;stroke-width:1.0pt;"
         d="M 0.0,0.0 L 5.0,-5.0 L -12.5,0.0 L 5.0,5.0 L 0.0,0.0 z "
         id="path2590" />
    </marker>
    <marker
       style="overflow:visible"
       id="marker2867"
       refX="0.0"
       refY="0.0"
       orient="auto"
       inkscape:stockid="Arrow1Lstart"
       inkscape:isstock="true">
      <path
         transform="scale(0.8) translate(12.5,0)"
         style="fill-rule:evenodd;fill:context-stroke;stroke:context-stroke;stroke-width:1.0pt"
         d="M 0.0,0.0 L 5.0,-5.0 L -12.5,0.0 L 5.0,5.0 L 0.0,0.0 z "
         id="path2865" />
    </marker>
    <marker
       style="overflow:visible"
       id="marker2857"
       refX="0.0"
       refY="0.0"
       orient="auto"
       inkscape:stockid="Arrow1Lstart"
       inkscape:isstock="true">
      <path
         transform="scale(0.8) translate(12.5,0)"
         style="fill-rule:evenodd;fill:context-stroke;stroke:context-stroke;stroke-width:1.0pt"
         d="M 0.0,0.0 L 5.0,-5.0 L -12.5,0.0 L 5.0,5.0 L 0.0,0.0 z "
         id="path2855" />
    </marker>
    <marker
       style="overflow:visible"
       id="Arrow1Lstart"
       refX="0.0"
       refY="0.0"
       orient="auto"
       inkscape:stockid="Arrow1Lstart"
       inkscape:isstock="true">
      <path
         transform="scale(0.8) translate(12.5,0)"
         style="fill-rule:evenodd;fill:context-stroke;stroke:context-stroke;stroke-width:1.0pt"
         d="M 0.0,0.0 L 5.0,-5.0 L -12.5,0.0 L 5.0,5.0 L 0.0,0.0 z "
         id="path2587" />
    </marker>
  </defs>
  <sodipodi:namedview
     id="base"
     pagecolor="#ffffff"
     bordercolor="#666666"
     borderopacity="1.0"
     inkscape:pageopacity="0.0"
     inkscape:pageshadow="2"
     inkscape:zoom="0.99372559"
     inkscape:cx="-147.425"
     inkscape:cy="237.49011"
     inkscape:document-units="mm"
     inkscape:current-layer="layer3"
     inkscape:document-rotation="0"
     showgrid="false"
     inkscape:window-width="1469"
     inkscape:window-height="847"
     inkscape:window-x="1585"
     inkscape:window-y="147"
     inkscape:window-maximized="0"
     inkscape:pagecheckerboard="0"
     width="50.8mm" />
  <metadata
     id="metadata1235">
    <rdf:RDF>
      <cc:Work
         rdf:about="">
        <dc:format>image/svg+xml</dc:format>
        <dc:type
           rdf:resource="http://purl.org/dc/dcmitype/StillImage" />
      </cc:Work>
    </rdf:RDF>
  </metadata>
  <g
     style="display:inline"
     inkscape:label="Layer 1"
     inkscape:groupmode="layer"
     id="layer1"
     sodipodi:insensitive="true">
    <rect
       y="4.6888422e-07"
       x="8.422399e-07"
       height="128.5"
       width="50.799999"
       id="rect1391"
       style="opacity:0.98;fill:#c6c6c6;fill-opacity:1;stroke:#fff700;stroke-width:0" />
  </g>
  <g
     inkscape:groupmode="layer"
     id="layer3"
     inkscape:label="Panel Art">
    <g
       aria-label="ZEROLAB"
       id="text21901-7"
       style="font-size:4.23333px;line-height:1.25;font-family:'Train One';-inkscape-font-specification:'Train One';display:inline;fill:none;stroke:#000000;stroke-width:0.2"
       transform="translate(0,-0.05184393)">
      <path
         d="m 17.134061,124.44357 v -0.3048 h -2.133598 v -0.2032 h 2.336798 v 0.57574 l -1.553632,2.0828 h 1.557865 v 0.2032 h -1.960032 z m -2.243665,2.1717 1.536699,-2.03623 h -1.426632 v -0.2032 h 1.833032 l -1.739899,2.30717 v 0.35136 h 2.247898 v 0.2032 h -2.451098 z"
         id="path11464" />
      <path
         d="m 17.956451,123.93557 h 2.285998 v 0.2032 h -2.082798 v 2.8956 h 2.167465 v 0.2032 h -2.370665 z m 0.567267,0.44027 h 1.718731 v 0.2032 h -1.515532 v 0.65193 h 1.299633 v 0.2032 h -1.502832 z m 0,1.2827 h 1.502832 v 0.2032 h -1.299633 v 0.73237 h 1.600199 v 0.2032 h -1.803398 z"
         id="path11466" />
      <path
         d="m 22.488032,125.72204 q 0.254,-0.0931 0.3937,-0.2032 0.143933,-0.11007 0.198967,-0.25823 0.05927,-0.14817 0.05927,-0.34714 0,-0.23706 -0.1143,-0.41063 -0.110066,-0.17357 -0.3048,-0.2667 -0.194733,-0.0974 -0.448732,-0.0974 h -1.193799 v 3.0988 h -0.2032 v -3.302 h 1.396999 q 0.317499,0 0.558799,0.12277 0.2413,0.12277 0.376766,0.3429 0.135467,0.2159 0.135467,0.51223 0,0.38524 -0.148167,0.60537 -0.143933,0.2159 -0.414866,0.31327 l 0.783166,1.40546 h -0.2413 z m -1.054099,-1.3462 h 0.694266 q 0.287867,0 0.461433,0.15663 0.173567,0.1524 0.173567,0.4191 0,0.2921 -0.173567,0.45297 -0.169333,0.16087 -0.457199,0.16087 h -0.6985 z m 0.6985,0.98637 q 0.194733,0 0.309033,-0.10584 0.118533,-0.11006 0.118533,-0.3048 0,-0.1778 -0.122767,-0.27516 -0.118533,-0.0974 -0.309033,-0.0974 h -0.491066 v 0.78317 z m -0.06773,0.60536 H 21.6329 v 1.27 h -0.2032 v -1.4732 h 0.766233 l 0.677332,1.4732 h -0.224366 z"
         id="path11468" />
      <path
         d="m 25.355187,127.32224 q -0.457199,0 -0.800099,-0.21167 -0.3429,-0.21166 -0.5334,-0.60113 -0.190499,-0.3937 -0.190499,-0.93133 0,-0.52494 0.190499,-0.9144 0.1905,-0.38947 0.5334,-0.60114 0.3429,-0.2159 0.800099,-0.2159 0.4572,0 0.795866,0.2159 0.3429,0.2159 0.529167,0.60537 0.186266,0.38947 0.186266,0.91017 0,0.53763 -0.186266,0.93133 -0.186267,0.38947 -0.529167,0.60113 -0.338666,0.21167 -0.795866,0.21167 z m 0,-0.19897 q 0.402167,0 0.694266,-0.1905 0.2921,-0.1905 0.452967,-0.53763 0.160866,-0.34713 0.160866,-0.81703 0,-0.4572 -0.160866,-0.8001 -0.160867,-0.3429 -0.452967,-0.5334 -0.292099,-0.19474 -0.694266,-0.19474 -0.402166,0 -0.698499,0.1905 -0.296333,0.1905 -0.461433,0.5334 -0.160867,0.3429 -0.160867,0.80434 0,0.4699 0.160867,0.81703 0.1651,0.34713 0.461433,0.53763 0.296333,0.1905 0.698499,0.1905 z m 0,-0.25823 q -0.253999,0 -0.469899,-0.14817 -0.211667,-0.14816 -0.338667,-0.4318 -0.127,-0.28786 -0.127,-0.70696 0,-0.42334 0.135467,-0.70274 0.135467,-0.28363 0.347133,-0.42333 0.2159,-0.14393 0.452966,-0.14393 0.254,0 0.461433,0.14393 0.211667,0.1397 0.334433,0.42333 0.127,0.2794 0.127,0.70274 0,0.4191 -0.131233,0.70696 -0.131233,0.28364 -0.3429,0.4318 -0.207433,0.14817 -0.448733,0.14817 z m 0,-0.2032 q 0.198967,0 0.359833,-0.127 0.1651,-0.127 0.262467,-0.3683 0.09737,-0.24553 0.09737,-0.58843 0,-0.51647 -0.203199,-0.79164 -0.2032,-0.27516 -0.516467,-0.27516 -0.194733,0 -0.364066,0.12276 -0.1651,0.12277 -0.2667,0.35984 -0.1016,0.23706 -0.1016,0.5842 0,0.3429 0.09313,0.58843 0.09737,0.2413 0.262466,0.3683 0.169333,0.127 0.376766,0.127 z"
         id="path11470" />
      <path
         d="m 28.028336,123.93557 h 0.2032 v 2.61197 h 1.401232 v 0.2032 h -1.604432 z m -0.579966,0 h 0.2032 v 3.0988 h 1.981198 v 0.2032 H 27.44837 Z"
         id="path11472" />
      <path
         d="m 31.697641,124.13877 h -0.6858 l -1.037165,3.0988 h -0.211667 l 1.100666,-3.302 h 0.982132 l 1.100666,3.302 H 32.72634 Z m -0.474133,0.33444 h 0.245533 l 0.508,1.54516 h -1.261533 z m 0.474133,1.34196 q -0.02117,-0.0677 -0.06773,-0.2032 -0.04657,-0.13546 -0.1016,-0.30056 -0.05503,-0.16934 -0.1016,-0.33444 -0.04657,-0.16933 -0.06773,-0.30056 h -0.0254 q -0.02117,0.127 -0.06773,0.29633 -0.04233,0.1651 -0.09737,0.33443 -0.05503,0.1651 -0.1016,0.3048 -0.04657,0.13547 -0.06773,0.2032 z m 0.211666,0.6477 h -1.117599 l -0.262466,0.7747 h -0.211667 l 0.3302,-0.9779 h 1.409699 l 0.3175,0.9779 h -0.211667 z"
         id="path11474" />
      <path
         d="m 33.318808,123.93557 h 1.384299 q 0.313266,0 0.541866,0.11007 0.2286,0.10583 0.3556,0.2921 0.126999,0.18627 0.126999,0.42757 0,0.2794 -0.114299,0.46566 -0.110067,0.18204 -0.300567,0.22437 l 0.0042,0.0127 q 0.127,0.008 0.262467,0.1143 0.1397,0.1016 0.232833,0.28363 0.09737,0.18204 0.09737,0.44027 0,0.27093 -0.135467,0.4826 -0.131233,0.20743 -0.385233,0.3302 -0.249766,0.11853 -0.605366,0.11853 h -1.464732 z m 1.464732,3.0988 q 0.427566,0 0.673099,-0.19896 0.249767,-0.2032 0.249767,-0.52917 0,-0.1905 -0.09313,-0.36407 -0.0889,-0.1778 -0.245534,-0.2921 -0.156633,-0.11853 -0.347133,-0.13546 l -0.01693,-0.0593 q 0.211667,-0.0423 0.321733,-0.15663 0.1143,-0.1143 0.156633,-0.25824 0.04233,-0.14816 0.04233,-0.27516 0,-0.28364 -0.2286,-0.45297 -0.2286,-0.17357 -0.592666,-0.17357 H 33.52201 v 2.8956 z m -0.897466,-2.6797 h 0.698499 q 0.249767,0 0.414867,0.1524 0.1651,0.1524 0.1651,0.40217 0,0.23707 -0.143934,0.38523 -0.143933,0.14394 -0.419099,0.14394 h -0.715433 z m 0.715433,0.88054 q 0.173566,0 0.266699,-0.0889 0.09313,-0.0889 0.09313,-0.23707 0,-0.16087 -0.110067,-0.254 -0.105833,-0.0974 -0.2667,-0.0974 H 34.08927 v 0.67734 z m -0.715433,0.38946 h 0.766233 q 0.300566,0 0.491066,0.15664 0.194733,0.15663 0.194733,0.42333 0,0.27517 -0.1778,0.43603 -0.173566,0.16087 -0.486833,0.16087 h -0.787399 z m 0.787399,0.97367 q 0.211667,0 0.334433,-0.1016 0.127,-0.10583 0.127,-0.2921 0,-0.18203 -0.1397,-0.2794 -0.135466,-0.0974 -0.342899,-0.0974 h -0.563033 v 0.77047 z"
         id="path11476" />
    </g>
    <text
       xml:space="preserve"
       style="font-size:4.23333px;line-height:1.25;font-family:'Train One';-inkscape-font-specification:'Train One';display:inline;fill:none;fill-opacity:1;stroke:#000000;stroke-width:0.2;stroke-linejoin:miter;stroke-miterlimit:4;stroke-dasharray:none;stroke-dashoffset:0;stroke-opacity:1"
       x="-49.462685"
       y="74.408691"
       id="text21901-7-6"><tspan
         sodipodi:role="line"
         id="tspan21899-4-1"
         style="font-size:4.23333px;fill:none;fill-opacity:1;stroke:#000000;stroke-width:0.2;stroke-linejoin:miter;stroke-miterlimit:4;stroke-dasharray:none;stroke-dashoffset:0;stroke-opacity:1"
         x="-49.462685"
         y="74.408691">ZEROLAB</tspan></text>
    <text
       xml:space="preserve"
       style="font-style:normal;font-variant:normal;font-weight:normal;font-stretch:normal;font-size:6.35px;line-height:1.25;font-family:Rockwell;-inkscape-font-specification:Rockwell;display:inline;stroke-width:0.264583"
       x="-57.837273"
       y="14.651017"
       id="text59999"><tspan
         sodipodi:role="line"
         id="tspan59997"
         style="font-style:normal;font-variant:normal;font-weight:normal;font-stretch:normal;font-size:6.35px;font-family:Rockwell;-inkscape-font-specification:Rockwell;stroke-width:0.264583"
         x="-57.837273"
         y="14.651017">in-pulse</tspan></text>
    <g
       aria-label="in-pulse"
       id="text59999-3"
       style="font-size:6.35px;line-height:1.25;font-family:Rockwell;-inkscape-font-specification:Rockwell;display:inline;stroke-width:0.264583">
      <path
         d="m 13.619632,2.3146487 q 0,0.1581299 -0.114722,0.2728516 -0.114722,0.1147216 -0.272852,0.1147216 -0.15813,0 -0.269751,-0.1147216 -0.111621,-0.1147217 -0.111621,-0.2728516 0,-0.1581299 0.111621,-0.2728516 0.111621,-0.1147216 0.269751,-0.1147216 0.164331,0 0.275952,0.111621 0.111622,0.1116211 0.111622,0.2759522 z m 0.458886,3.7858154 V 6.6709719 H 12.432107 V 6.1004641 h 0.508496 V 3.9858645 H 12.432107 V 3.4122561 h 1.150318 v 2.688208 z"
         id="path7993" />
      <path
         d="m 17.566677,4.4788576 v 1.6216065 h 0.545704 V 6.6709719 H 16.924856 V 4.5191653 q 0,-0.306958 -0.08992,-0.4402832 -0.08682,-0.1333252 -0.288354,-0.1333252 -0.427881,0 -0.961182,0.4216797 v 1.7332275 h 0.561206 V 6.6709719 H 14.379275 V 6.1004641 h 0.573609 V 3.9858645 H 14.379275 V 3.4122561 h 1.206128 v 0.3937744 q 0.598413,-0.4371826 1.125513,-0.4371826 0.437182,0 0.644922,0.269751 0.210839,0.2697509 0.210839,0.8402587 z"
         id="path7995" />
      <path
         d="M 18.456545,5.374927 V 4.7331057 h 2.012281 V 5.374927 Z"
         id="path7997" />
      <path
         d="m 24.729031,5.0586672 q 0,0.4557861 -0.21084,0.8526611 -0.21084,0.396875 -0.576709,0.6263184 -0.362769,0.2294433 -0.806153,0.2294433 -0.654223,0 -1.144116,-0.5022949 V 7.56084 h 0.63562 V 8.1313478 H 20.760281 V 7.56084 h 0.589111 V 3.9858645 H 20.803689 V 3.4122561 h 1.187524 v 0.5208984 q 0.241846,-0.2852539 0.533301,-0.4247802 0.291455,-0.1395264 0.623218,-0.1395264 0.461987,0 0.821655,0.2294434 0.359668,0.2263427 0.558105,0.613916 0.201539,0.3875732 0.201539,0.8464599 z m -1.603003,1.1224121 q 0.26665,0 0.48059,-0.1550293 0.213941,-0.1550293 0.334864,-0.4216797 0.120923,-0.2666504 0.120923,-0.5643066 0,-0.3007568 -0.133326,-0.5519043 -0.133325,-0.254248 -0.365869,-0.4030762 -0.232544,-0.1519287 -0.523999,-0.1519287 -0.303857,0 -0.545703,0.1612305 -0.241846,0.1581299 -0.375171,0.4216797 -0.133325,0.2635498 -0.133325,0.5798095 0,0.5084961 0.31936,0.7968506 0.322461,0.2883545 0.821656,0.2883545 z"
         id="path7999" />
      <path
         d="m 26.676199,6.168677 q 0.430981,0 0.933276,-0.4185791 V 3.9858645 H 27.032766 V 3.4122561 h 1.21853 v 2.688208 h 0.558106 V 6.6709719 H 27.609475 V 6.295801 q -0.564307,0.4309814 -1.072803,0.4309814 -0.458886,0 -0.679028,-0.2728515 Q 25.640603,6.1810793 25.640603,5.5485598 V 3.9858645 H 25.184817 V 3.4122561 h 1.097607 V 5.681885 q 0,0.2511474 0.08992,0.3689697 0.09302,0.1178223 0.303858,0.1178223 z"
         id="path8001" />
      <path
         d="M 30.790676,6.1004641 V 6.6709719 H 29.076052 V 6.1004641 h 0.576709 V 2.5626956 H 29.076052 V 1.9983889 h 1.218531 v 4.1020752 z"
         id="path8003" />
      <path
         d="M 33.206032,3.5517825 V 3.4122561 h 0.558105 V 4.4943606 H 33.206032 V 4.2959231 q -0.279053,-0.3999756 -0.762744,-0.3999756 -0.254248,0 -0.415479,0.1116211 -0.16123,0.1116211 -0.16123,0.2883545 0,0.1581299 0.120923,0.2480468 0.124023,0.089917 0.551904,0.1581299 l 0.430981,0.083716 q 0.964282,0.1767334 0.964282,0.9456787 0,0.449585 -0.350366,0.7224366 -0.347265,0.2728515 -0.923974,0.2728515 -0.229444,0 -0.452686,-0.065112 -0.220141,-0.068213 -0.36897,-0.1674316 v 0.1767334 h -0.570507 v -1.116211 h 0.570507 V 5.666382 q 0.04651,0.2356446 0.26045,0.3782715 0.217041,0.142627 0.502295,0.142627 0.313159,0 0.492993,-0.1085205 0.179834,-0.1116211 0.179834,-0.3286621 0,-0.1581299 -0.142627,-0.2356446 -0.142627,-0.080615 -0.573609,-0.164331 L 32.226247,5.2788088 Q 31.733253,5.1795901 31.50381,4.9377444 31.274367,4.6958987 31.274367,4.3207278 q 0,-0.3038575 0.167431,-0.5177979 0.170533,-0.217041 0.434082,-0.3255615 0.26355,-0.1085205 0.542603,-0.1085205 0.468188,0 0.787549,0.1829346 z"
         id="path8005" />
      <path
         d="m 37.860012,5.2043947 h -2.731617 q 0.05891,0.4681885 0.362769,0.7410401 0.303857,0.2697509 0.744141,0.2697509 0.322461,0 0.598413,-0.1333251 0.275952,-0.1333252 0.461987,-0.4092774 l 0.564307,0.2542481 Q 37.593361,6.3423098 37.159279,6.5562502 36.728298,6.76709 36.219802,6.76709 q -0.5271,0 -0.936377,-0.2201416 -0.409278,-0.2201416 -0.638721,-0.613916 -0.226343,-0.3937744 -0.226343,-0.8867675 0,-0.4898926 0.223242,-0.883667 0.226343,-0.3937744 0.617017,-0.613916 0.390674,-0.2232422 0.861963,-0.2232422 0.514697,0 0.896069,0.2294434 0.384473,0.2263427 0.604615,0.651123 0.220141,0.4216797 0.238745,0.9983886 z M 36.132985,3.8587405 q -0.362768,0 -0.63562,0.2449463 -0.272851,0.2418457 -0.350366,0.6418212 h 2.040185 Q 37.097267,4.3455325 36.805812,4.1036868 36.514357,3.8587405 36.132985,3.8587405 Z"
         id="path8007" />
    </g>
    <text
       xml:space="preserve"
       style="font-style:normal;font-variant:normal;font-weight:normal;font-stretch:normal;font-size:6.35px;line-height:1.25;font-family:Rockwell;-inkscape-font-specification:Rockwell;display:inline;stroke-width:0.264583"
       x="-70.769295"
       y="42.548893"
       id="text59999-2"><tspan
         sodipodi:role="line"
         id="tspan59997-2"
         style="font-style:normal;font-variant:normal;font-weight:normal;font-stretch:normal;font-size:6.35px;font-family:Rockwell;-inkscape-font-specification:Rockwell;stroke-width:0.264583"
         x="-70.769295"
         y="42.548893">pluckt</tspan></text>
    <text
       xml:space="preserve"
       style="font-size:3.52778px;line-height:1.25;font-family:'Train One';-inkscape-font-specification:'Train One';display:inline;stroke-width:0.264583"
       x="-100.51591"
       y="11.419454"
       id="text79187-1-0-5-83-3"><tspan
         sodipodi:role="line"
         id="tspan79185-2-97-7-9-6"
         style="font-style:normal;font-variant:normal;font-weight:normal;font-stretch:normal;font-size:3.52778px;font-family:Rockwell;-inkscape-font-specification:Rockwell;stroke-width:0.264583"
         x="-100.51591"
         y="11.419454">freq</tspan></text>
    <g
       aria-label="v/oct"
       id="text79187-1-0-1-4-9"
       style="font-size:2.82222px;line-height:1.25;font-family:'Train One';-inkscape-font-specification:'Train One';display:inline;stroke-width:0.264583"
       transform="translate(2.0068446,-0.75256673)">
      <path
         d="M 2.2117856,107.94531 2.5246,108.76662 2.8360364,107.94531 H 2.634843 v -0.25494 h 0.6945307 v 0.25494 H 3.1088878 l -0.4616425,1.21818 H 2.3895524 L 1.9182637,107.94531 H 1.6619488 v -0.25494 h 0.7386279 v 0.25494 z"
         style="font-family:Rockwell;-inkscape-font-specification:Rockwell"
         id="path22627" />
      <path
         d="M 3.3886293,109.17314 4.452474,107.01927 H 4.6991427 L 3.636676,109.17314 Z"
         style="font-family:Rockwell;-inkscape-font-specification:Rockwell"
         id="path22629" />
      <path
         d="m 6.3431409,108.4166 q 0,0.21084 -0.1005967,0.38585 -0.1005967,0.17501 -0.2742294,0.27698 -0.1736327,0.10198 -0.3844724,0.10198 -0.2177298,0 -0.3927406,-0.10198 -0.1750107,-0.10197 -0.2728513,-0.27698 -0.096463,-0.17501 -0.096463,-0.38585 0,-0.22049 0.096463,-0.39412 0.097841,-0.17364 0.2714733,-0.27148 0.1736327,-0.0992 0.3941186,-0.0992 0.2135958,0 0.3872285,0.10473 0.1736327,0.10335 0.2728513,0.27836 0.099219,0.17501 0.099219,0.38172 z m -0.7592985,0.48782 q 0.1267795,0 0.2328883,-0.0661 0.1061089,-0.0661 0.1653645,-0.17777 0.059256,-0.11162 0.059256,-0.24391 0,-0.12954 -0.059256,-0.24116 -0.059256,-0.11162 -0.1653645,-0.17915 -0.1061088,-0.0689 -0.2356443,-0.0689 -0.1267795,0 -0.2328883,0.0675 -0.1061089,0.0661 -0.1667425,0.17914 -0.060634,0.113 -0.060634,0.24254 0,0.12953 0.060634,0.24253 0.060634,0.113 0.1681205,0.17915 0.1074869,0.0661 0.2342663,0.0661 z"
         style="font-family:Rockwell;-inkscape-font-specification:Rockwell"
         id="path22631" />
      <path
         d="m 7.6757027,107.7951 v -0.10473 h 0.2535588 v 0.54846 H 7.6757027 q -0.016536,-0.15848 -0.1267794,-0.24116 -0.110243,-0.0841 -0.2549369,-0.0841 -0.1240233,0 -0.223242,0.0661 -0.097841,0.0661 -0.1515841,0.17914 -0.053743,0.113 -0.053743,0.24667 0,0.22738 0.1212672,0.37207 0.1212673,0.14332 0.3197047,0.14332 0.3073022,0 0.4340817,-0.28526 l 0.2370223,0.113 q -0.1998153,0.43271 -0.6835064,0.43271 -0.2163518,0 -0.3844723,-0.10198 -0.1681206,-0.10197 -0.2604491,-0.27974 -0.09095,-0.17777 -0.09095,-0.39412 0,-0.21222 0.092329,-0.38585 0.093706,-0.17363 0.2563149,-0.27009 0.1626084,-0.0978 0.3624238,-0.0978 0.2370223,0 0.4065209,0.14331 z"
         style="font-family:Rockwell;-inkscape-font-specification:Rockwell"
         id="path22633" />
      <path
         d="m 8.875973,107.69037 v 0.25494 H 8.6113899 v 0.7593 q 0,0.11851 0.024805,0.15434 0.026183,0.0345 0.088194,0.0345 0.075792,0 0.1515841,-0.0262 v 0.2577 q -0.1322915,0.0386 -0.2135957,0.0386 -0.1791449,0 -0.257693,-0.0896 -0.078548,-0.091 -0.078548,-0.31006 v -0.81855 H 8.1373451 v -0.25494 h 0.1887911 v -0.21911 l 0.2852537,-0.26045 v 0.47956 z"
         style="font-family:Rockwell;-inkscape-font-specification:Rockwell"
         id="path22635" />
    </g>
    <g
       aria-label="pluck"
       id="text79187-1-0-1-4-9-6"
       style="font-size:2.82222px;line-height:1.25;font-family:'Train One';-inkscape-font-specification:'Train One';display:inline;stroke-width:0.264583"
       transform="translate(-0.42566988,-0.49264)">
      <path
         d="m 5.5513213,120.46745 q 0,0.20257 -0.093706,0.37896 -0.093706,0.17639 -0.2563149,0.27836 -0.1612303,0.10198 -0.3582897,0.10198 -0.2907658,0 -0.5084957,-0.22324 v 0.57602 h 0.2824976 v 0.25355 H 3.7874338 v -0.25355 h 0.261827 v -1.58888 H 3.8067263 v -0.25494 h 0.5277882 v 0.23151 q 0.1074869,-0.12678 0.2370224,-0.18879 0.1295355,-0.062 0.2769855,-0.062 0.2053275,0 0.3651798,0.10197 0.1598523,0.1006 0.2480467,0.27286 0.089572,0.17225 0.089572,0.3762 z m -0.7124452,0.49885 q 0.1185112,0 0.2135958,-0.0689 0.095085,-0.0689 0.148828,-0.18742 0.053743,-0.11851 0.053743,-0.2508 0,-0.13367 -0.059256,-0.24529 -0.059256,-0.113 -0.1626084,-0.17914 -0.1033528,-0.0675 -0.2328883,-0.0675 -0.1350477,0 -0.2425345,0.0717 -0.1074869,0.0703 -0.1667425,0.18741 -0.059256,0.11714 -0.059256,0.2577 0,0.22599 0.1419378,0.35415 0.1433158,0.12816 0.3651798,0.12816 z"
         style="font-family:Rockwell;-inkscape-font-specification:Rockwell"
         id="path22638" />
      <path
         d="m 6.4759843,120.93047 v 0.25356 H 5.7139297 v -0.25356 h 0.2563149 v -1.57234 H 5.7139297 v -0.2508 h 0.5415686 v 1.82314 z"
         style="font-family:Rockwell;-inkscape-font-specification:Rockwell"
         id="path22640" />
      <path
         d="m 7.3207211,120.96079 q 0.1915472,0 0.4147892,-0.18604 v -0.7841 H 7.4791954 v -0.25494 H 8.020764 v 1.19476 h 0.2480467 v 0.25356 H 7.7355103 v -0.16674 q -0.2508028,0.19154 -0.4768009,0.19154 -0.2039495,0 -0.3017901,-0.12126 -0.096463,-0.12127 -0.096463,-0.40239 v -0.69453 H 6.6578852 v -0.25494 h 0.4878252 v 1.00872 q 0,0.11163 0.039963,0.16399 0.041341,0.0524 0.1350476,0.0524 z"
         style="font-family:Rockwell;-inkscape-font-specification:Rockwell"
         id="path22642" />
      <path
         d="m 9.5586534,119.84044 v -0.10473 h 0.2535588 v 0.54846 H 9.5586534 q -0.016537,-0.15847 -0.1267794,-0.24116 -0.110243,-0.0841 -0.2549369,-0.0841 -0.1240234,0 -0.223242,0.0661 -0.097841,0.0662 -0.1515841,0.17914 -0.053743,0.113 -0.053743,0.24667 0,0.22738 0.1212673,0.37207 0.1212673,0.14332 0.3197046,0.14332 0.3073023,0 0.4340817,-0.28525 l 0.2370224,0.11299 q -0.1998154,0.43271 -0.6835064,0.43271 -0.2163518,0 -0.3844724,-0.10198 -0.1681205,-0.10197 -0.260449,-0.27974 -0.09095,-0.17777 -0.09095,-0.39412 0,-0.21221 0.092328,-0.38585 0.093707,-0.17363 0.2563149,-0.27009 0.1626084,-0.0978 0.3624238,-0.0978 0.2370224,0 0.406521,0.14331 z"
         style="font-family:Rockwell;-inkscape-font-specification:Rockwell"
         id="path22644" />
      <path
         d="m 11.04969,119.97273 h -0.228755 v -0.23702 h 0.802018 v 0.23702 h -0.223242 l -0.541569,0.44924 0.511252,0.5085 h 0.253559 v 0.25356 h -0.376204 l -0.724848,-0.73036 v 0.4768 h 0.245291 v 0.25356 H 9.9775766 v -0.25356 h 0.2590714 v -1.57234 H 9.9775766 v -0.2508 h 0.5443244 v 1.30913 z"
         style="font-family:Rockwell;-inkscape-font-specification:Rockwell"
         id="path22646" />
    </g>
    <g
       aria-label="refret"
       id="text79187-1-0-1-4-9-5"
       style="font-size:2.82222px;line-height:1.25;font-family:'Train One';-inkscape-font-specification:'Train One';display:inline;stroke-width:0.264583"
       transform="translate(5.091029,0.12285506)">
      <path
         d="m 16.875761,120.08665 v 0.32797 h 0.315571 v 0.25356 h -0.888834 v -0.25356 h 0.290766 v -0.93982 h -0.290766 v -0.25493 h 0.516764 v 0.32797 q 0.08682,-0.19431 0.214974,-0.2701 0.129535,-0.0772 0.369314,-0.0772 h 0.06477 v 0.28801 h -0.06201 q -0.231511,0 -0.34451,0.0606 -0.112999,0.0606 -0.150206,0.18328 -0.03583,0.12264 -0.03583,0.35415 z"
         style="font-family:Rockwell;-inkscape-font-specification:Rockwell"
         id="path22649" />
      <path
         d="m 18.985536,120.01637 h -1.214051 q 0.02618,0.20808 0.161231,0.32935 0.135047,0.11989 0.330729,0.11989 0.143316,0 0.265961,-0.0592 0.122645,-0.0593 0.205327,-0.18191 l 0.250803,0.113 q -0.118511,0.18466 -0.311436,0.27974 -0.191547,0.0937 -0.417546,0.0937 -0.234266,0 -0.416167,-0.0978 -0.181901,-0.0978 -0.283875,-0.27285 -0.100597,-0.17501 -0.100597,-0.39412 0,-0.21773 0.09922,-0.39274 0.100596,-0.17501 0.274229,-0.27285 0.173633,-0.0992 0.383094,-0.0992 0.228754,0 0.398253,0.10198 0.170877,0.10059 0.268717,0.28938 0.09784,0.18742 0.106109,0.44373 z m -0.767567,-0.59807 q -0.16123,0 -0.282497,0.10887 -0.121267,0.10748 -0.155718,0.28525 h 0.906748 q -0.03996,-0.17777 -0.169498,-0.28525 -0.129536,-0.10887 -0.299035,-0.10887 z"
         style="font-family:Rockwell;-inkscape-font-specification:Rockwell"
         id="path22651" />
      <path
         d="m 20.148599,118.88225 -0.253559,0.0386 q -0.0124,-0.14056 -0.107486,-0.14056 -0.06752,0 -0.09095,0.0482 -0.02205,0.0482 -0.02205,0.17226 v 0.21911 H 19.9226 v 0.25493 h -0.248046 v 0.93982 h 0.272851 v 0.25356 h -0.770323 v -0.25356 H 19.3893 v -0.93982 h -0.212218 v -0.25493 H 19.3893 v -0.22462 q 0,-0.19844 0.09646,-0.32247 0.09784,-0.12402 0.28801,-0.12402 0.157096,0 0.252181,0.0841 0.09646,0.0827 0.122645,0.24943 z"
         style="font-family:Rockwell;-inkscape-font-specification:Rockwell"
         id="path22653" />
      <path
         d="m 20.624022,120.08665 v 0.32797 h 0.315571 v 0.25356 h -0.888834 v -0.25356 h 0.290766 v -0.93982 h -0.290766 v -0.25493 h 0.516764 v 0.32797 q 0.08682,-0.19431 0.214974,-0.2701 0.129535,-0.0772 0.369313,-0.0772 h 0.06477 v 0.28801 h -0.06201 q -0.231511,0 -0.34451,0.0606 -0.112999,0.0606 -0.150206,0.18328 -0.03583,0.12264 -0.03583,0.35415 z"
         style="font-family:Rockwell;-inkscape-font-specification:Rockwell"
         id="path22655" />
      <path
         d="m 22.733797,120.01637 h -1.21405 q 0.02618,0.20808 0.16123,0.32935 0.135048,0.11989 0.330729,0.11989 0.143316,0 0.265961,-0.0592 0.122645,-0.0593 0.205328,-0.18191 l 0.250802,0.113 q -0.118511,0.18466 -0.311436,0.27974 -0.191547,0.0937 -0.417545,0.0937 -0.234267,0 -0.416168,-0.0978 -0.1819,-0.0978 -0.283875,-0.27285 -0.100597,-0.17501 -0.100597,-0.39412 0,-0.21773 0.09922,-0.39274 0.100597,-0.17501 0.274229,-0.27285 0.173633,-0.0992 0.383095,-0.0992 0.228754,0 0.398252,0.10198 0.170877,0.10059 0.268717,0.28938 0.09784,0.18742 0.106109,0.44373 z m -0.767566,-0.59807 q -0.161231,0 -0.282498,0.10887 -0.121267,0.10748 -0.155718,0.28525 h 0.906748 q -0.03996,-0.17777 -0.169498,-0.28525 -0.129536,-0.10887 -0.299034,-0.10887 z"
         style="font-family:Rockwell;-inkscape-font-specification:Rockwell"
         id="path22657" />
      <path
         d="m 23.676374,119.21987 v 0.25493 h -0.264583 v 0.7593 q 0,0.11851 0.02481,0.15434 0.02618,0.0344 0.08819,0.0344 0.07579,0 0.151584,-0.0262 v 0.25769 q -0.132291,0.0386 -0.213595,0.0386 -0.179145,0 -0.257693,-0.0896 -0.07855,-0.0909 -0.07855,-0.31005 v -0.81856 h -0.188792 v -0.25493 h 0.188792 v -0.21911 l 0.285253,-0.26045 v 0.47956 z"
         style="font-family:Rockwell;-inkscape-font-specification:Rockwell"
         id="path22659" />
    </g>
    <g
       aria-label="dry out"
       id="text79187-1-0-1-4-9-9"
       style="font-size:2.82222px;line-height:1.25;font-family:'Train One';-inkscape-font-specification:'Train One';display:inline;stroke-width:0.264583"
       transform="translate(8.3720786,-0.10559)">
      <path
         d="m 29.152613,120.54338 v 0.25356 h -0.544325 v -0.21221 q -0.21773,0.23702 -0.51952,0.23702 -0.209461,0 -0.370692,-0.0978 -0.159852,-0.0992 -0.249425,-0.26872 -0.08819,-0.1695 -0.08819,-0.37483 0,-0.20946 0.09371,-0.38585 0.09508,-0.17638 0.261827,-0.27974 0.166742,-0.10473 0.361045,-0.10473 0.14056,0 0.265962,0.0565 0.126779,0.0565 0.24529,0.17777 v -0.57327 h -0.279741 v -0.2508 h 0.562239 v 1.82314 z m -1.010101,0.0248 q 0.132291,0 0.2384,-0.0703 0.106109,-0.0703 0.166743,-0.18741 0.06063,-0.11714 0.06063,-0.25081 0,-0.13504 -0.06063,-0.24666 -0.06063,-0.11163 -0.168121,-0.17639 -0.107487,-0.0648 -0.242535,-0.0648 -0.130913,0 -0.234266,0.0703 -0.101975,0.0689 -0.16123,0.18466 -0.05926,0.11437 -0.05926,0.24529 0,0.14056 0.06063,0.25355 0.06063,0.113 0.165364,0.17777 0.104731,0.0648 0.234267,0.0648 z"
         style="font-family:Rockwell;-inkscape-font-specification:Rockwell"
         id="path22662" />
      <path
         d="m 29.820961,120.21541 v 0.32797 h 0.31557 v 0.25356 h -0.888834 v -0.25356 h 0.290766 v -0.93982 h -0.290766 v -0.25493 h 0.516764 v 0.32797 q 0.08682,-0.1943 0.214974,-0.2701 0.129536,-0.0772 0.369314,-0.0772 h 0.06477 v 0.28801 h -0.06201 q -0.23151,0 -0.344509,0.0606 -0.112999,0.0606 -0.150206,0.18328 -0.03583,0.12264 -0.03583,0.35415 z"
         style="font-family:Rockwell;-inkscape-font-specification:Rockwell"
         id="path22664" />
      <path
         d="m 31.117694,119.60356 0.314192,0.81856 0.304546,-0.81856 h -0.192925 v -0.25493 h 0.691775 v 0.25493 h -0.213596 l -0.715201,1.84244 h -0.482313 v -0.24805 h 0.285254 l 0.172254,-0.42581 -0.474045,-1.16858 h -0.242534 v -0.25493 h 0.724847 v 0.25493 z"
         style="font-family:Rockwell;-inkscape-font-specification:Rockwell"
         id="path22666" />
      <path
         d="m 34.678542,120.07485 q 0,0.21084 -0.100597,0.38585 -0.100597,0.17501 -0.27423,0.27699 -0.173632,0.10197 -0.384472,0.10197 -0.21773,0 -0.39274,-0.10197 -0.175011,-0.10198 -0.272852,-0.27699 -0.09646,-0.17501 -0.09646,-0.38585 0,-0.22048 0.09646,-0.39412 0.09784,-0.17363 0.271474,-0.27147 0.173632,-0.0992 0.394118,-0.0992 0.213596,0 0.387229,0.10473 0.173632,0.10336 0.272851,0.27837 0.09922,0.17501 0.09922,0.38171 z m -0.759299,0.48783 q 0.12678,0 0.232888,-0.0661 0.106109,-0.0661 0.165365,-0.17777 0.05926,-0.11162 0.05926,-0.24391 0,-0.12953 -0.05926,-0.24115 -0.05926,-0.11163 -0.165365,-0.17915 -0.106108,-0.0689 -0.235644,-0.0689 -0.126779,0 -0.232888,0.0675 -0.106109,0.0661 -0.166743,0.17915 -0.06063,0.113 -0.06063,0.24253 0,0.12954 0.06063,0.24254 0.06063,0.113 0.168121,0.17914 0.107487,0.0661 0.234266,0.0661 z"
         style="font-family:Rockwell;-inkscape-font-specification:Rockwell"
         id="path22668" />
      <path
         d="m 35.542571,120.5737 q 0.191547,0 0.414789,-0.18603 v -0.78411 h -0.256314 v -0.25493 h 0.541568 v 1.19475 h 0.248047 v 0.25356 H 35.95736 v -0.16674 q -0.250802,0.19155 -0.4768,0.19155 -0.20395,0 -0.301791,-0.12127 -0.09646,-0.12127 -0.09646,-0.40239 v -0.69453 h -0.202572 v -0.25493 h 0.487826 v 1.00872 q 0,0.11162 0.03996,0.16399 0.04134,0.0524 0.135047,0.0524 z"
         style="font-family:Rockwell;-inkscape-font-specification:Rockwell"
         id="path22670" />
      <path
         d="m 37.387763,119.34863 v 0.25493 H 37.12318 v 0.7593 q 0,0.11851 0.0248,0.15434 0.02618,0.0344 0.08819,0.0344 0.07579,0 0.151584,-0.0262 v 0.25769 q -0.132292,0.0386 -0.213596,0.0386 -0.179145,0 -0.257693,-0.0896 -0.07855,-0.091 -0.07855,-0.31006 v -0.81856 h -0.188791 v -0.25493 h 0.188791 v -0.21911 l 0.285254,-0.26045 v 0.47956 z"
         style="font-family:Rockwell;-inkscape-font-specification:Rockwell"
         id="path22672" />
    </g>
    <text
       xml:space="preserve"
       style="font-size:2.82222px;line-height:1.25;font-family:'Train One';-inkscape-font-specification:'Train One';display:inline;stroke-width:0.264583"
       x="-131.1868"
       y="108.54278"
       id="text79187-1-0-1-4-9-8"><tspan
         sodipodi:role="line"
         id="tspan79185-2-97-3-3-6-4"
         style="font-style:normal;font-variant:normal;font-weight:normal;font-stretch:normal;font-size:2.82222px;font-family:Rockwell;-inkscape-font-specification:Rockwell;stroke-width:0.264583"
         x="-131.1868"
         y="108.54278">v/oct</tspan></text>
    <text
       xml:space="preserve"
       style="font-size:2.82222px;line-height:1.25;font-family:'Train One';-inkscape-font-specification:'Train One';display:inline;stroke-width:0.264583"
       x="-129.05029"
       y="120.58812"
       id="text79187-1-0-1-4-9-6-8"><tspan
         sodipodi:role="line"
         id="tspan79185-2-97-3-3-6-7-3"
         style="font-style:normal;font-variant:normal;font-weight:normal;font-stretch:normal;font-size:2.82222px;font-family:Rockwell;-inkscape-font-specification:Rockwell;stroke-width:0.264583"
         x="-129.05029"
         y="120.58812">pluck</tspan></text>
    <g
       aria-label="impulse
in"
       id="text79187-1-0-1-4-9-6-8-1"
       style="font-size:2.82222px;line-height:1.25;font-family:'Train One';-inkscape-font-specification:'Train One';display:inline;stroke-width:0.264583"
       transform="translate(-17.572759,-0.53250784)">
      <path
         d="m 37.026195,106.34426 q 0,0.0703 -0.05099,0.12127 -0.05099,0.051 -0.121267,0.051 -0.07028,0 -0.119889,-0.051 -0.04961,-0.051 -0.04961,-0.12127 0,-0.0703 0.04961,-0.12127 0.04961,-0.051 0.119889,-0.051 0.07304,0 0.122645,0.0496 0.04961,0.0496 0.04961,0.12264 z m 0.203949,1.68258 v 0.25356 h -0.731737 v -0.25356 h 0.225998 v -0.93982 h -0.225998 v -0.25493 h 0.511251 v 1.19475 z"
         style="font-family:Rockwell;-inkscape-font-specification:Rockwell;text-align:center;text-anchor:middle"
         id="path10604" />
      <path
         d="m 37.618751,108.02684 v -0.93982 h -0.243913 v -0.25493 h 0.527788 v 0.18328 q 0.254937,-0.20258 0.500228,-0.20258 0.250803,0 0.344509,0.226 0.278364,-0.226 0.525032,-0.226 0.175011,0 0.278364,0.10336 0.104731,0.10335 0.104731,0.31694 v 0.79375 h 0.253558 v 0.25356 h -0.536056 v -0.91777 q 0,-0.0951 -0.0096,-0.15434 -0.0096,-0.0593 -0.05099,-0.1006 -0.03996,-0.0413 -0.128157,-0.0413 -0.07855,0 -0.183279,0.0469 -0.104731,0.0469 -0.220486,0.14056 v 0.77307 h 0.245291 v 0.25356 h -0.530545 v -0.9536 q 0,-0.13918 -0.04272,-0.19981 -0.04134,-0.0606 -0.137803,-0.0606 -0.157097,0 -0.412034,0.18742 v 0.77307 h 0.254937 v 0.25356 h -0.799261 v -0.25356 z"
         style="font-family:Rockwell;-inkscape-font-specification:Rockwell;text-align:center;text-anchor:middle"
         id="path10606" />
      <path
         d="m 41.748728,107.56382 q 0,0.20258 -0.09371,0.37896 -0.09371,0.17639 -0.256315,0.27837 -0.161231,0.10197 -0.35829,0.10197 -0.290766,0 -0.508496,-0.22324 v 0.57602 h 0.282498 v 0.25356 h -0.829578 v -0.25356 h 0.261827 v -1.58888 h -0.242535 v -0.25493 h 0.527788 v 0.23151 q 0.107487,-0.12678 0.237023,-0.18879 0.129535,-0.062 0.276985,-0.062 0.205328,0 0.36518,0.10198 0.159852,0.1006 0.248047,0.27285 0.08957,0.17225 0.08957,0.3762 z m -0.712445,0.49885 q 0.118511,0 0.213596,-0.0689 0.09508,-0.0689 0.148828,-0.18741 0.05374,-0.11851 0.05374,-0.2508 0,-0.13367 -0.05926,-0.2453 -0.05926,-0.11299 -0.162609,-0.17914 -0.103353,-0.0675 -0.232888,-0.0675 -0.135048,0 -0.242535,0.0717 -0.107487,0.0703 -0.166742,0.18742 -0.05926,0.11713 -0.05926,0.25769 0,0.226 0.141938,0.35416 0.143316,0.12815 0.36518,0.12815 z"
         style="font-family:Rockwell;-inkscape-font-specification:Rockwell;text-align:center;text-anchor:middle"
         id="path10608" />
      <path
         d="m 42.614135,108.05716 q 0.191547,0 0.414789,-0.18603 v -0.78411 H 42.77261 v -0.25493 h 0.541568 v 1.19475 h 0.248047 v 0.25356 h -0.533301 v -0.16674 q -0.250802,0.19155 -0.4768,0.19155 -0.20395,0 -0.301791,-0.12127 -0.09646,-0.12127 -0.09646,-0.40239 v -0.69453 h -0.202572 v -0.25493 h 0.487826 v 1.00872 q 0,0.11162 0.03996,0.16399 0.04134,0.0524 0.135047,0.0524 z"
         style="font-family:Rockwell;-inkscape-font-specification:Rockwell;text-align:center;text-anchor:middle"
         id="path10610" />
      <path
         d="m 44.442791,108.02684 v 0.25356 h -0.762055 v -0.25356 h 0.256315 v -1.57234 h -0.256315 v -0.2508 h 0.541569 v 1.82314 z"
         style="font-family:Rockwell;-inkscape-font-specification:Rockwell;text-align:center;text-anchor:middle"
         id="path10612" />
      <path
         d="m 45.516282,106.8941 v -0.062 h 0.248046 v 0.48093 h -0.248046 v -0.0882 q -0.124024,-0.17777 -0.338997,-0.17777 -0.112999,0 -0.184657,0.0496 -0.07166,0.0496 -0.07166,0.12816 0,0.0703 0.05374,0.11024 0.05512,0.04 0.245291,0.0703 l 0.191547,0.0372 q 0.428569,0.0785 0.428569,0.4203 0,0.19981 -0.155718,0.32108 -0.15434,0.12127 -0.410655,0.12127 -0.101975,0 -0.201193,-0.0289 -0.09784,-0.0303 -0.163987,-0.0744 v 0.0785 h -0.253558 v -0.49609 h 0.253558 v 0.0496 q 0.02067,0.10473 0.115755,0.16812 0.09646,0.0634 0.223242,0.0634 0.139182,0 0.219108,-0.0482 0.07993,-0.0496 0.07993,-0.14607 0,-0.0703 -0.06339,-0.10473 -0.06339,-0.0358 -0.254937,-0.073 l -0.14745,-0.0317 q -0.219108,-0.0441 -0.321083,-0.15158 -0.101974,-0.10749 -0.101974,-0.27423 0,-0.13505 0.07441,-0.23013 0.07579,-0.0965 0.192925,-0.1447 0.117133,-0.0482 0.241156,-0.0482 0.208084,0 0.350022,0.0813 z"
         style="font-family:Rockwell;-inkscape-font-specification:Rockwell;text-align:center;text-anchor:middle"
         id="path10614" />
      <path
         d="m 47.584715,107.62859 h -1.21405 q 0.02618,0.20809 0.16123,0.32935 0.135048,0.11989 0.330729,0.11989 0.143316,0 0.265961,-0.0593 0.122645,-0.0593 0.205328,-0.1819 l 0.250802,0.11299 q -0.118511,0.18466 -0.311436,0.27975 -0.191547,0.0937 -0.417545,0.0937 -0.234266,0 -0.416167,-0.0978 -0.181901,-0.0978 -0.283876,-0.27285 -0.100597,-0.17501 -0.100597,-0.39412 0,-0.21773 0.09922,-0.39274 0.100597,-0.17501 0.274229,-0.27285 0.173633,-0.0992 0.383095,-0.0992 0.228754,0 0.398252,0.10198 0.170877,0.10059 0.268718,0.28938 0.09784,0.18742 0.106108,0.44373 z m -0.767566,-0.59807 q -0.161231,0 -0.282498,0.10887 -0.121267,0.10749 -0.155718,0.28525 h 0.906748 q -0.03996,-0.17776 -0.169498,-0.28525 -0.129536,-0.10887 -0.299034,-0.10887 z"
         style="font-family:Rockwell;-inkscape-font-specification:Rockwell;text-align:center;text-anchor:middle"
         id="path10616" />
      <path
         d="m 41.333939,110.2203 q 0,0.0703 -0.05099,0.12127 -0.05099,0.051 -0.121268,0.051 -0.07028,0 -0.119889,-0.051 -0.04961,-0.051 -0.04961,-0.12127 0,-0.0703 0.04961,-0.12126 0.04961,-0.051 0.119889,-0.051 0.07304,0 0.122646,0.0496 0.04961,0.0496 0.04961,0.12264 z m 0.203949,1.68259 v 0.25356 h -0.731737 v -0.25356 h 0.225998 v -0.93983 h -0.225998 v -0.25493 h 0.511251 v 1.19476 z"
         style="font-family:Rockwell;-inkscape-font-specification:Rockwell;text-align:center;text-anchor:middle"
         id="path10618" />
      <path
         d="m 43.08818,111.18217 v 0.72072 h 0.242535 v 0.25356 h -0.527788 v -0.95636 q 0,-0.13643 -0.03996,-0.19568 -0.03858,-0.0593 -0.128157,-0.0593 -0.190169,0 -0.427192,0.18741 v 0.77033 h 0.249425 v 0.25356 h -0.785481 v -0.25356 h 0.254937 v -0.93983 h -0.254937 v -0.25493 h 0.536056 v 0.17501 q 0.265962,-0.1943 0.500228,-0.1943 0.194303,0 0.286632,0.11988 0.09371,0.11989 0.09371,0.37345 z"
         style="font-family:Rockwell;-inkscape-font-specification:Rockwell;text-align:center;text-anchor:middle"
         id="path10620" />
    </g>
    <text
       xml:space="preserve"
       style="font-size:2.82222px;line-height:1.25;font-family:'Train One';-inkscape-font-specification:'Train One';display:inline;stroke-width:0.264583"
       x="-49.769501"
       y="89.110001"
       id="text79187-1-0-1-4-9-6-8-1-1"><tspan
         sodipodi:role="line"
         id="tspan79185-2-97-3-3-6-7-3-9-6"
         style="font-style:normal;font-variant:normal;font-weight:normal;font-stretch:normal;font-size:2.82222px;font-family:Rockwell;-inkscape-font-specification:Rockwell;text-align:center;text-anchor:middle;stroke-width:0.264583"
         x="-49.769501"
         y="89.110001">impulse</tspan><tspan
         sodipodi:role="line"
         style="font-style:normal;font-variant:normal;font-weight:normal;font-stretch:normal;font-size:2.82222px;font-family:Rockwell;-inkscape-font-specification:Rockwell;text-align:center;text-anchor:middle;stroke-width:0.264583"
         x="-49.769501"
         y="92.986046"
         id="tspan8826-1">in</tspan></text>
    <text
       xml:space="preserve"
       style="font-size:2.82222px;line-height:1.25;font-family:'Train One';-inkscape-font-specification:'Train One';display:inline;stroke-width:0.264583"
       x="-116.56278"
       y="120.07227"
       id="text79187-1-0-1-4-9-5-9"><tspan
         sodipodi:role="line"
         id="tspan79185-2-97-3-3-6-5-2"
         style="font-style:normal;font-variant:normal;font-weight:normal;font-stretch:normal;font-size:2.82222px;font-family:Rockwell;-inkscape-font-specification:Rockwell;stroke-width:0.264583"
         x="-116.56278"
         y="120.07227">refret</tspan></text>
    <text
       xml:space="preserve"
       style="font-size:2.82222px;line-height:1.25;font-family:'Train One';-inkscape-font-specification:'Train One';display:inline;stroke-width:0.264583"
       x="-105.5303"
       y="120.20103"
       id="text79187-1-0-1-4-9-9-3"><tspan
         sodipodi:role="line"
         id="tspan79185-2-97-3-3-6-51-0"
         style="font-style:normal;font-variant:normal;font-weight:normal;font-stretch:normal;font-size:2.82222px;font-family:Rockwell;-inkscape-font-specification:Rockwell;stroke-width:0.264583"
         x="-105.5303"
         y="120.20103">dry out</tspan></text>
    <text
       xml:space="preserve"
       style="font-size:2.82222px;line-height:1.25;font-family:'Train One';-inkscape-font-specification:'Train One';display:inline;stroke-width:0.264583"
       x="-93.429611"
       y="120.12719"
       id="text79187-1-0-1-4-9-0-9"><tspan
         sodipodi:role="line"
         id="tspan79185-2-97-3-3-6-3-2"
         style="font-style:normal;font-variant:normal;font-weight:normal;font-stretch:normal;font-size:2.82222px;font-family:Rockwell;-inkscape-font-specification:Rockwell;stroke-width:0.264583"
         x="-93.429611"
         y="120.12719">mix out</tspan></text>
    <text
       xml:space="preserve"
       style="font-size:3.52778px;line-height:1.25;font-family:'Train One';-inkscape-font-specification:'Train One';display:inline;stroke-width:0.264583"
       x="-101.77751"
       y="15.389394"
       id="text79187-1-0-5-83-3-5"><tspan
         sodipodi:role="line"
         id="tspan79185-2-97-7-9-6-8"
         style="font-style:normal;font-variant:normal;font-weight:normal;font-stretch:normal;font-size:3.52778px;font-family:Rockwell;-inkscape-font-specification:Rockwell;stroke-width:0.264583"
         x="-101.77751"
         y="15.389394">decay</tspan></text>
    <text
       xml:space="preserve"
       style="font-size:3.52778px;line-height:1.25;font-family:'Train One';-inkscape-font-specification:'Train One';display:inline;stroke-width:0.264583"
       x="-103.31948"
       y="18.773655"
       id="text79187-1-0-5-83-3-1"><tspan
         sodipodi:role="line"
         id="tspan79185-2-97-7-9-6-1"
         style="font-style:normal;font-variant:normal;font-weight:normal;font-stretch:normal;font-size:3.52778px;font-family:Rockwell;-inkscape-font-specification:Rockwell;stroke-width:0.264583"
         x="-103.31948"
         y="18.773655">stretch</tspan></text>
    <text
       xml:space="preserve"
       style="font-size:3.52778px;line-height:1.25;font-family:'Train One';-inkscape-font-specification:'Train One';display:inline;stroke-width:0.264583"
       x="-103.72338"
       y="24.562914"
       id="text79187-1-0-5-83-3-0"><tspan
         sodipodi:role="line"
         id="tspan79185-2-97-7-9-6-18"
         style="font-style:normal;font-variant:normal;font-weight:normal;font-stretch:normal;font-size:3.52778px;font-family:Rockwell;-inkscape-font-specification:Rockwell;stroke-width:0.264583"
         x="-103.72338"
         y="24.562914">attack</tspan></text>
    <text
       xml:space="preserve"
       style="font-size:3.52778px;line-height:1.25;font-family:'Train One';-inkscape-font-specification:'Train One';display:inline;stroke-width:0.264583"
       x="-103.58875"
       y="28.601934"
       id="text79187-1-0-5-83-3-6"><tspan
         sodipodi:role="line"
         id="tspan79185-2-97-7-9-6-2"
         style="font-style:normal;font-variant:normal;font-weight:normal;font-stretch:normal;font-size:3.52778px;font-family:Rockwell;-inkscape-font-specification:Rockwell;stroke-width:0.264583"
         x="-103.58875"
         y="28.601934">pick pos</tspan></text>
    <text
       xml:space="preserve"
       style="font-size:3.52778px;line-height:1.25;font-family:'Train One';-inkscape-font-specification:'Train One';display:inline;stroke-width:0.264583"
       x="-103.85802"
       y="32.371685"
       id="text79187-1-0-5-83-3-7"><tspan
         sodipodi:role="line"
         id="tspan79185-2-97-7-9-6-7"
         style="font-style:normal;font-variant:normal;font-weight:normal;font-stretch:normal;font-size:3.52778px;font-family:Rockwell;-inkscape-font-specification:Rockwell;stroke-width:0.264583"
         x="-103.85802"
         y="32.371685">dynamics</tspan></text>
    <text
       xml:space="preserve"
       style="font-size:3.52778px;line-height:1.25;font-family:'Train One';-inkscape-font-specification:'Train One';display:inline;stroke-width:0.264583"
       x="-103.45412"
       y="36.67997"
       id="text79187-1-0-5-83-3-3"><tspan
         sodipodi:role="line"
         id="tspan79185-2-97-7-9-6-89"
         style="font-style:normal;font-variant:normal;font-weight:normal;font-stretch:normal;font-size:3.52778px;font-family:Rockwell;-inkscape-font-specification:Rockwell;stroke-width:0.264583"
         x="-103.45412"
         y="36.67997">body size</tspan></text>
    <text
       xml:space="preserve"
       style="font-size:3.52778px;line-height:1.25;font-family:'Train One';-inkscape-font-specification:'Train One';display:inline;stroke-width:0.264583"
       x="-103.05022"
       y="41.257526"
       id="text79187-1-0-5-83-3-2"><tspan
         sodipodi:role="line"
         id="tspan79185-2-97-7-9-6-4"
         style="font-style:normal;font-variant:normal;font-weight:normal;font-stretch:normal;font-size:3.52778px;font-family:Rockwell;-inkscape-font-specification:Rockwell;stroke-width:0.264583"
         x="-103.05022"
         y="41.257526">Q</tspan></text>
    <text
       xml:space="preserve"
       style="font-size:3.52778px;line-height:1.25;font-family:'Train One';-inkscape-font-specification:'Train One';display:inline;stroke-width:0.264583"
       x="-102.10778"
       y="45.969715"
       id="text79187-1-0-5-83-3-59"><tspan
         sodipodi:role="line"
         id="tspan79185-2-97-7-9-6-19"
         style="font-style:normal;font-variant:normal;font-weight:normal;font-stretch:normal;font-size:3.52778px;font-family:Rockwell;-inkscape-font-specification:Rockwell;stroke-width:0.264583"
         x="-102.10778"
         y="45.969715">res mix</tspan></text>
    <g
       aria-label="freq"
       id="text79187-1-0-5-83-3-22"
       style="font-size:3.52778px;line-height:1.25;font-family:'Train One';-inkscape-font-specification:'Train One';display:inline;stroke-width:0.264583">
      <path
         d="m 3.2745113,24.204079 -0.316949,0.04823 q -0.015503,-0.1757 -0.1343588,-0.1757 -0.084405,0 -0.1136883,0.06029 -0.027561,0.06029 -0.027561,0.215318 v 0.273886 h 0.3100587 v 0.318671 H 2.6819545 v 1.174778 h 0.3410646 v 0.316949 H 2.0601143 V 26.119553 H 2.3253868 V 24.944775 H 2.0601143 v -0.318671 h 0.2652725 v -0.280776 q 0,-0.248047 0.1205785,-0.403076 0.1223009,-0.15503 0.3600127,-0.15503 0.1963705,0 0.3152264,0.105076 0.1205784,0.103353 0.1533069,0.311781 z"
         style="font-family:Rockwell;-inkscape-font-specification:Rockwell"
         id="path22514" />
      <path
         d="m 3.8687906,25.709587 v 0.409966 h 0.3944637 v 0.316949 H 3.1522103 V 26.119553 H 3.5156681 V 24.944775 H 3.1522103 v -0.318671 h 0.6459558 v 0.409966 q 0.1085206,-0.242879 0.2687176,-0.337619 0.1619196,-0.09646 0.4616431,-0.09646 h 0.08096 v 0.360013 h -0.077515 q -0.2893882,0 -0.4306372,0.07579 -0.141249,0.07579 -0.1877578,0.229099 -0.044786,0.153307 -0.044786,0.442695 z"
         style="font-family:Rockwell;-inkscape-font-specification:Rockwell"
         id="path22516" />
      <path
         d="M 6.506013,25.621737 H 4.9884475 q 0.032728,0.260105 0.2015382,0.411689 0.1688098,0.149862 0.4134117,0.149862 0.1791451,0 0.332452,-0.07407 0.1533068,-0.07407 0.2566598,-0.227376 l 0.3135038,0.141249 q -0.1481392,0.230821 -0.389296,0.349677 -0.2394343,0.117133 -0.5219323,0.117133 -0.2928333,0 -0.5202098,-0.1223 Q 4.8471985,26.2453 4.7197299,26.026536 4.5939838,25.807772 4.5939838,25.533887 q 0,-0.272163 0.1240235,-0.490927 0.1257461,-0.218763 0.3427873,-0.341064 0.2170411,-0.124024 0.4788685,-0.124024 0.2859431,0 0.4978167,0.127469 0.213596,0.125746 0.335897,0.361735 0.122301,0.234267 0.1326362,0.554661 z M 5.5465533,24.874151 q -0.2015382,0 -0.3531225,0.136081 -0.1515843,0.134359 -0.194648,0.356568 H 6.1322199 Q 6.082266,25.144591 5.9203464,25.010232 5.7584268,24.874151 5.5465533,24.874151 Z"
         style="font-family:Rockwell;-inkscape-font-specification:Rockwell"
         id="path22518" />
      <path
         d="m 8.2991862,24.915492 v -0.289388 h 0.6580136 v 0.318671 H 8.6540312 v 1.986099 h 0.3290069 v 0.316949 H 7.9495087 v -0.316949 h 0.3496775 v -0.723471 q -0.2721628,0.282498 -0.6390657,0.282498 -0.2549372,0 -0.4564754,-0.129191 -0.1998157,-0.129191 -0.3135039,-0.347955 -0.1119657,-0.218763 -0.1119657,-0.475423 0,-0.258382 0.1119657,-0.473701 0.1136882,-0.215319 0.3135039,-0.33762 0.2015382,-0.124023 0.4530303,-0.124023 0.3841284,0 0.6425108,0.313504 z M 7.730745,26.16434 q 0.1550294,0 0.2859431,-0.07751 0.1326363,-0.07752 0.210151,-0.215319 0.079237,-0.137803 0.079237,-0.310058 0,-0.16881 -0.075792,-0.316949 -0.075792,-0.14814 -0.2118735,-0.237712 -0.1360814,-0.09129 -0.3100588,-0.09129 -0.2497696,0 -0.404799,0.172255 -0.1550294,0.170532 -0.1550294,0.44614 0,0.285943 0.1584745,0.458198 0.1584745,0.172255 0.423747,0.172255 z"
         style="font-family:Rockwell;-inkscape-font-specification:Rockwell"
         id="path22520" />
    </g>
    <g
       aria-label="decay"
       id="text79187-1-0-5-83-3-5-9"
       style="font-size:3.52778px;line-height:1.25;font-family:'Train One';-inkscape-font-specification:'Train One';display:inline;stroke-width:0.264583">
      <path
         d="m 20.951796,26.464314 v 0.316949 h -0.680407 v -0.265272 q -0.272162,0.296278 -0.6494,0.296278 -0.261828,0 -0.463366,-0.122301 -0.199816,-0.124023 -0.311781,-0.335897 -0.110244,-0.211873 -0.110244,-0.468533 0,-0.261827 0.117134,-0.482314 0.118856,-0.220486 0.327284,-0.349677 0.208428,-0.130914 0.451308,-0.130914 0.1757,0 0.332452,0.07062 0.158474,0.07062 0.306613,0.222208 v -0.71658 h -0.349677 v -0.313504 h 0.7028 v 2.278932 z m -1.262628,0.03101 q 0.165365,0 0.298001,-0.08785 0.132636,-0.08785 0.208428,-0.234266 0.07579,-0.146417 0.07579,-0.313504 0,-0.16881 -0.07579,-0.308337 -0.07579,-0.139526 -0.210151,-0.220486 -0.134358,-0.08096 -0.303168,-0.08096 -0.163642,0 -0.292834,0.08785 -0.127468,0.08613 -0.201538,0.230822 -0.07407,0.142972 -0.07407,0.306614 0,0.1757 0.07579,0.316949 0.07579,0.141249 0.206706,0.222208 0.130913,0.08096 0.292833,0.08096 z"
         style="font-family:Rockwell;-inkscape-font-specification:Rockwell"
         id="path22523" />
      <path
         d="M 23.039525,25.966498 H 21.52196 q 0.03273,0.260105 0.201538,0.411689 0.16881,0.149862 0.413412,0.149862 0.179145,0 0.332452,-0.07407 0.153307,-0.07407 0.25666,-0.227376 l 0.313503,0.141249 q -0.148139,0.230821 -0.389296,0.349677 -0.239434,0.117133 -0.521932,0.117133 -0.292833,0 -0.52021,-0.122301 -0.227376,-0.122301 -0.354845,-0.341064 -0.125746,-0.218764 -0.125746,-0.492649 0,-0.272163 0.124024,-0.490927 0.125746,-0.218763 0.342787,-0.341064 0.217041,-0.124024 0.478868,-0.124024 0.285944,0 0.497817,0.127469 0.213596,0.125746 0.335897,0.361735 0.122301,0.234267 0.132636,0.554661 z m -0.959459,-0.747586 q -0.201539,0 -0.353123,0.136081 -0.151584,0.134359 -0.194648,0.356568 h 1.133437 q -0.04995,-0.222209 -0.211873,-0.356568 -0.16192,-0.136081 -0.373793,-0.136081 z"
         style="font-family:Rockwell;-inkscape-font-specification:Rockwell"
         id="path22525" />
      <path
         d="m 24.708675,25.101778 v -0.130913 h 0.316949 v 0.685574 h -0.316949 q -0.02067,-0.198093 -0.158474,-0.301446 -0.137804,-0.105076 -0.318672,-0.105076 -0.155029,0 -0.279053,0.08268 -0.122301,0.08268 -0.18948,0.223931 -0.06718,0.141249 -0.06718,0.308336 0,0.284221 0.151585,0.465089 0.151584,0.179145 0.399631,0.179145 0.384128,0 0.542603,-0.356568 l 0.296278,0.141249 q -0.249769,0.54088 -0.854384,0.54088 -0.27044,0 -0.480591,-0.127468 -0.210151,-0.127469 -0.325562,-0.349678 -0.113688,-0.222208 -0.113688,-0.492649 0,-0.265272 0.115411,-0.482313 0.117133,-0.217041 0.320394,-0.33762 0.20326,-0.122301 0.45303,-0.122301 0.296278,0 0.508152,0.179145 z"
         style="font-family:Rockwell;-inkscape-font-specification:Rockwell"
         id="path22527" />
      <path
         d="m 26.844636,25.60993 v 0.854384 h 0.303168 v 0.316949 h -0.616672 v -0.222208 q -0.258382,0.253214 -0.575331,0.253214 -0.167088,0 -0.306614,-0.07751 -0.137804,-0.07751 -0.222209,-0.206706 -0.08268,-0.130914 -0.08268,-0.289389 0,-0.170532 0.09129,-0.303168 0.09302,-0.134359 0.249769,-0.206706 0.156752,-0.07235 0.315227,-0.07235 0.265272,0 0.494371,0.155029 V 25.61682 q 0,-0.211873 -0.08957,-0.303168 -0.08957,-0.0913 -0.294556,-0.0913 -0.144694,0 -0.242879,0.0534 -0.09646,0.05168 -0.160197,0.158474 l -0.341065,-0.08441 q 0.115411,-0.215318 0.311781,-0.320394 0.196371,-0.106798 0.466811,-0.106798 0.363458,0 0.530545,0.165365 0.16881,0.165365 0.16881,0.521932 z m -0.840604,0.928454 q 0.261827,0 0.490926,-0.218764 v -0.211873 q -0.232544,-0.180868 -0.465088,-0.180868 -0.141249,0 -0.244602,0.08957 -0.10163,0.08785 -0.10163,0.222208 0,0.129192 0.08957,0.215319 0.08957,0.08441 0.230822,0.08441 z"
         style="font-family:Rockwell;-inkscape-font-specification:Rockwell"
         id="path22529" />
      <path
         d="m 27.96257,25.289536 0.392741,1.023194 0.380684,-1.023194 h -0.241157 v -0.318671 h 0.864719 v 0.318671 h -0.266995 l -0.894003,2.303048 h -0.602892 v -0.310059 h 0.356568 l 0.215318,-0.532268 -0.592556,-1.460721 h -0.303169 v -0.318671 h 0.906061 v 0.318671 z"
         style="font-family:Rockwell;-inkscape-font-specification:Rockwell"
         id="path22531" />
    </g>
    <g
       aria-label="stretch"
       id="text79187-1-0-5-83-3-1-3"
       style="font-size:3.52778px;line-height:1.25;font-family:'Train One';-inkscape-font-specification:'Train One';display:inline;stroke-width:0.264583">
      <path
         d="m 39.614622,25.924081 v -0.07752 h 0.310059 v 0.60117 h -0.310059 v -0.110243 q -0.15503,-0.222209 -0.423747,-0.222209 -0.141249,0 -0.230822,0.06201 -0.08957,0.06201 -0.08957,0.160197 0,0.08785 0.06718,0.137804 0.0689,0.04995 0.306614,0.08785 l 0.239434,0.04651 q 0.535713,0.09818 0.535713,0.525377 0,0.24977 -0.194648,0.401354 -0.192926,0.151584 -0.51332,0.151584 -0.127468,0 -0.251492,-0.03617 -0.122301,-0.0379 -0.204983,-0.09302 v 0.09819 h -0.316949 v -0.620117 h 0.316949 v 0.06201 q 0.02584,0.130914 0.144694,0.210151 0.120578,0.07924 0.279053,0.07924 0.173977,0 0.273885,-0.06029 0.09991,-0.06201 0.09991,-0.18259 0,-0.08785 -0.07924,-0.130913 -0.07924,-0.04479 -0.318672,-0.0913 l -0.184313,-0.03962 q -0.273885,-0.05512 -0.401353,-0.189481 -0.127469,-0.134358 -0.127469,-0.342787 0,-0.16881 0.09302,-0.287665 0.09474,-0.120579 0.241156,-0.180868 0.146417,-0.06029 0.301446,-0.06029 0.260105,0 0.437528,0.10163 z"
         style="font-family:Rockwell;-inkscape-font-specification:Rockwell"
         id="path22534" />
      <path
         d="m 41.194199,25.846566 v 0.318672 H 40.86347 v 0.949124 q 0,0.14814 0.03101,0.192926 0.03273,0.04306 0.110243,0.04306 0.09474,0 0.18948,-0.03273 v 0.322117 q -0.165365,0.04823 -0.266995,0.04823 -0.223931,0 -0.322117,-0.111966 -0.09819,-0.113688 -0.09819,-0.387573 v -1.023194 h -0.235989 v -0.318672 h 0.235989 v -0.273885 l 0.356568,-0.325562 v 0.599447 z"
         style="font-family:Rockwell;-inkscape-font-specification:Rockwell"
         id="path22536" />
      <path
         d="m 42.098537,26.93005 v 0.409966 h 0.394464 v 0.316949 h -1.111044 v -0.316949 h 0.363458 v -1.174778 h -0.363458 v -0.318672 h 0.645956 v 0.409967 q 0.108521,-0.242879 0.268718,-0.33762 0.161919,-0.09646 0.461643,-0.09646 h 0.08096 v 0.360012 h -0.07751 q -0.289388,0 -0.430637,0.07579 -0.141249,0.07579 -0.187758,0.229099 -0.04479,0.153306 -0.04479,0.442695 z"
         style="font-family:Rockwell;-inkscape-font-specification:Rockwell"
         id="path22538" />
      <path
         d="m 44.73576,26.8422 h -1.517566 q 0.03273,0.260105 0.201538,0.411689 0.16881,0.149862 0.413412,0.149862 0.179145,0 0.332452,-0.07407 0.153307,-0.07407 0.25666,-0.227376 l 0.313504,0.141249 q -0.14814,0.230821 -0.389296,0.349677 -0.239435,0.117133 -0.521933,0.117133 -0.292833,0 -0.520209,-0.122301 -0.227377,-0.122301 -0.354846,-0.341064 -0.125746,-0.218764 -0.125746,-0.492649 0,-0.272163 0.124024,-0.490927 0.125746,-0.218763 0.342787,-0.341064 0.217041,-0.124024 0.478869,-0.124024 0.285943,0 0.497816,0.127469 0.213596,0.125746 0.335897,0.361735 0.122301,0.234267 0.132637,0.554661 z M 43.7763,26.094613 q -0.201538,0 -0.353123,0.136082 -0.151584,0.134359 -0.194648,0.356567 h 1.133438 q -0.04995,-0.222208 -0.211874,-0.356567 -0.16192,-0.136082 -0.373793,-0.136082 z"
         style="font-family:Rockwell;-inkscape-font-specification:Rockwell"
         id="path22540" />
      <path
         d="m 45.913983,25.846566 v 0.318672 h -0.330729 v 0.949124 q 0,0.14814 0.03101,0.192926 0.03273,0.04306 0.110243,0.04306 0.09474,0 0.18948,-0.03273 v 0.322117 q -0.165364,0.04823 -0.266995,0.04823 -0.223931,0 -0.322116,-0.111966 -0.09819,-0.113688 -0.09819,-0.387573 v -1.023194 h -0.235989 v -0.318672 h 0.235989 v -0.273885 l 0.356568,-0.325562 v 0.599447 z"
         style="font-family:Rockwell;-inkscape-font-specification:Rockwell"
         id="path22542" />
      <path
         d="m 47.555572,25.97748 v -0.130914 h 0.316949 v 0.685575 h -0.316949 q -0.02067,-0.198093 -0.158474,-0.301446 -0.137804,-0.105076 -0.318672,-0.105076 -0.155029,0 -0.279053,0.08268 -0.122301,0.08268 -0.18948,0.223931 -0.06718,0.141249 -0.06718,0.308336 0,0.284221 0.151585,0.465088 0.151584,0.179146 0.399631,0.179146 0.384128,0 0.542603,-0.356568 l 0.296278,0.141249 q -0.249769,0.54088 -0.854384,0.54088 -0.27044,0 -0.480591,-0.127468 -0.210151,-0.127469 -0.325562,-0.349678 -0.113688,-0.222209 -0.113688,-0.492649 0,-0.265272 0.115411,-0.482313 0.117133,-0.217042 0.320394,-0.33762 0.203261,-0.122301 0.45303,-0.122301 0.296279,0 0.508152,0.179145 z"
         style="font-family:Rockwell;-inkscape-font-specification:Rockwell"
         id="path22544" />
      <path
         d="m 49.355635,25.798335 q 0.504707,0 0.504707,0.546048 v 0.995633 h 0.306614 v 0.316949 h -0.663181 v -1.185113 q 0,-0.194648 -0.05684,-0.273886 -0.05512,-0.07924 -0.172255,-0.07924 -0.198093,0 -0.515042,0.232544 v 0.988743 h 0.313503 v 0.316949 h -0.99391 v -0.316949 h 0.323839 v -1.965428 h -0.323839 v -0.313504 h 0.680407 v 0.997356 q 0.320394,-0.260105 0.596001,-0.260105 z"
         style="font-family:Rockwell;-inkscape-font-specification:Rockwell"
         id="path22546" />
    </g>
    <g
       aria-label="attack"
       id="text79187-1-0-5-83-3-0-9"
       style="font-size:3.52778px;line-height:1.25;font-family:'Train One';-inkscape-font-specification:'Train One';display:inline;stroke-width:0.264583"
       transform="translate(-0.25085558,-1.5051335)">
      <path
         d="m 2.7793675,46.824516 v 0.854385 H 3.0825361 V 47.99585 H 2.4658637 v -0.222209 q -0.2583824,0.253214 -0.5753314,0.253214 -0.1670872,0 -0.3066137,-0.07751 -0.1378039,-0.07751 -0.2222088,-0.206706 -0.082682,-0.130914 -0.082682,-0.289388 0,-0.170533 0.091295,-0.303169 0.093018,-0.134359 0.2497696,-0.206706 0.1567519,-0.07235 0.3152264,-0.07235 0.2652725,0 0.4943715,0.15503 v -0.194648 q 0,-0.211874 -0.089573,-0.303169 -0.089573,-0.0913 -0.2945559,-0.0913 -0.1446941,0 -0.2428794,0.0534 -0.096463,0.05168 -0.160197,0.158474 l -0.3410647,-0.0844 q 0.1154108,-0.215319 0.3117814,-0.320395 0.1963705,-0.106798 0.4668107,-0.106798 0.3634578,0 0.5305451,0.165365 0.1688097,0.165365 0.1688097,0.521932 z M 1.9387637,47.75297 q 0.2618274,0 0.4909264,-0.218763 V 47.322333 Q 2.197146,47.141465 1.9646019,47.141465 q -0.141249,0 -0.2446019,0.08957 -0.1016304,0.08785 -0.1016304,0.222209 0,0.129191 0.089573,0.215318 0.089573,0.0844 0.2308215,0.0844 z"
         style="font-family:Rockwell;-inkscape-font-specification:Rockwell"
         id="path22581" />
      <path
         d="m 4.1901352,46.185451 v 0.318671 H 3.8594058 v 0.949125 q 0,0.148139 0.031006,0.192925 0.032728,0.04306 0.1102431,0.04306 0.09474,0 0.1894804,-0.03273 v 0.322117 q -0.1653647,0.04823 -0.2669951,0.04823 -0.2239314,0 -0.3221166,-0.111965 -0.098185,-0.113688 -0.098185,-0.387574 V 46.504122 H 3.266849 v -0.318671 h 0.2359892 v -0.273886 l 0.3565676,-0.325561 v 0.599447 z"
         style="font-family:Rockwell;-inkscape-font-specification:Rockwell"
         id="path22583" />
      <path
         d="m 5.3407978,46.185451 v 0.318671 H 5.0100685 v 0.949125 q 0,0.148139 0.031006,0.192925 0.032729,0.04306 0.1102432,0.04306 0.09474,0 0.1894803,-0.03273 v 0.322117 q -0.1653647,0.04823 -0.266995,0.04823 -0.2239314,0 -0.3221167,-0.111965 -0.098185,-0.113688 -0.098185,-0.387574 V 46.504122 H 4.4175116 v -0.318671 h 0.2359892 v -0.273886 l 0.3565677,-0.325561 v 0.599447 z"
         style="font-family:Rockwell;-inkscape-font-specification:Rockwell"
         id="path22585" />
      <path
         d="m 7.127081,46.824516 v 0.854385 H 7.4302496 V 47.99585 H 6.8135771 v -0.222209 q -0.2583823,0.253214 -0.5753313,0.253214 -0.1670872,0 -0.3066137,-0.07751 -0.1378039,-0.07751 -0.2222088,-0.206706 -0.082682,-0.130914 -0.082682,-0.289388 0,-0.170533 0.091295,-0.303169 0.093018,-0.134359 0.2497695,-0.206706 0.156752,-0.07235 0.3152265,-0.07235 0.2652725,0 0.4943715,0.15503 v -0.194648 q 0,-0.211874 -0.089573,-0.303169 -0.089573,-0.0913 -0.2945559,-0.0913 -0.1446941,0 -0.2428794,0.0534 -0.096463,0.05168 -0.160197,0.158474 l -0.3410647,-0.0844 q 0.1154108,-0.215319 0.3117813,-0.320395 0.1963706,-0.106798 0.4668108,-0.106798 0.3634578,0 0.530545,0.165365 0.1688098,0.165365 0.1688098,0.521932 z M 6.2864772,47.75297 q 0.2618274,0 0.4909264,-0.218763 v -0.211874 q -0.2325441,-0.180868 -0.4650882,-0.180868 -0.141249,0 -0.2446019,0.08957 -0.1016304,0.08785 -0.1016304,0.222209 0,0.129191 0.089573,0.215318 0.089573,0.0844 0.2308216,0.0844 z"
         style="font-family:Rockwell;-inkscape-font-specification:Rockwell"
         id="path22587" />
      <path
         d="m 9.0287751,46.316364 v -0.130913 h 0.316949 v 0.685574 H 9.0287751 Q 9.0081045,46.672932 8.8703006,46.569579 8.7324967,46.464504 8.551629,46.464504 q -0.1550294,0 -0.2790529,0.08268 -0.122301,0.08268 -0.1894804,0.223931 -0.067179,0.141249 -0.067179,0.308337 0,0.28422 0.1515843,0.465088 0.1515843,0.179145 0.3996314,0.179145 0.3841284,0 0.5426029,-0.356568 l 0.2962784,0.141249 q -0.2497696,0.540881 -0.8543843,0.540881 -0.2704401,0 -0.4805911,-0.127469 -0.210151,-0.127469 -0.3255617,-0.349677 -0.1136883,-0.222209 -0.1136883,-0.492649 0,-0.265273 0.1154108,-0.482314 0.1171333,-0.217041 0.3203941,-0.33762 0.2032608,-0.122301 0.4530304,-0.122301 0.2962784,0 0.5081519,0.179145 z"
         style="font-family:Rockwell;-inkscape-font-specification:Rockwell"
         id="path22589" />
      <path
         d="M 10.892573,46.481729 H 10.60663 v -0.296278 h 1.002524 v 0.296278 h -0.279053 l -0.676962,0.561551 0.639066,0.635621 h 0.316949 v 0.316949 h -0.470256 l -0.906061,-0.912951 v 0.596002 h 0.306614 V 47.99585 H 9.5524302 V 47.678901 H 9.8762694 V 45.713472 H 9.5524302 v -0.313504 h 0.6804068 v 1.636422 z"
         style="font-family:Rockwell;-inkscape-font-specification:Rockwell"
         id="path22591" />
    </g>
    <g
       aria-label="pick pos"
       id="text79187-1-0-5-83-3-6-4"
       style="font-size:3.52778px;line-height:1.25;font-family:'Train One';-inkscape-font-specification:'Train One';display:inline;stroke-width:0.264583"
       transform="translate(0,-2.2434205)">
      <path
         d="m 20.04235,47.878025 q 0,0.253215 -0.117133,0.473701 -0.117133,0.220486 -0.320394,0.347955 -0.201538,0.127468 -0.447863,0.127468 -0.363458,0 -0.63562,-0.279053 v 0.720026 h 0.353122 v 0.316949 h -1.036974 v -0.316949 h 0.327284 v -1.986099 h -0.303169 v -0.318672 h 0.659737 v 0.289389 q 0.134358,-0.158475 0.296278,-0.23599 0.16192,-0.07751 0.346232,-0.07751 0.25666,0 0.456476,0.127468 0.199816,0.125746 0.310059,0.341065 0.111965,0.215319 0.111965,0.470256 z m -0.890557,0.623563 q 0.148139,0 0.266995,-0.08613 0.118855,-0.08613 0.186035,-0.234267 0.06718,-0.148139 0.06718,-0.313503 0,-0.167088 -0.07407,-0.306614 -0.07407,-0.141249 -0.203261,-0.223931 -0.129191,-0.0844 -0.291111,-0.0844 -0.16881,0 -0.303168,0.08957 -0.134359,0.08785 -0.208429,0.234267 -0.07407,0.146417 -0.07407,0.322116 0,0.282498 0.177422,0.442696 0.179145,0.160197 0.456476,0.160197 z"
         style="font-family:Rockwell;-inkscape-font-specification:Rockwell"
         id="path22566" />
      <path
         d="m 20.926018,46.353569 q 0,0.08785 -0.06373,0.151584 -0.06373,0.06374 -0.151585,0.06374 -0.08785,0 -0.149861,-0.06374 -0.06201,-0.06373 -0.06201,-0.151584 0,-0.08785 0.06201,-0.151584 0.06201,-0.06373 0.149861,-0.06373 0.09129,0 0.153307,0.06201 0.06201,0.06201 0.06201,0.153307 z m 0.254937,2.103232 v 0.316949 h -0.914673 v -0.316949 h 0.282498 v -1.174778 h -0.282498 v -0.318672 h 0.639065 v 1.49345 z"
         style="font-family:Rockwell;-inkscape-font-specification:Rockwell"
         id="path22568" />
      <path
         d="m 22.791538,47.094265 v -0.130914 h 0.316949 v 0.685575 h -0.316949 q -0.02067,-0.198093 -0.158474,-0.301446 -0.137804,-0.105076 -0.318672,-0.105076 -0.155029,0 -0.279053,0.08268 -0.122301,0.08268 -0.18948,0.223931 -0.06718,0.141249 -0.06718,0.308336 0,0.284221 0.151584,0.465089 0.151584,0.179145 0.399631,0.179145 0.384129,0 0.542603,-0.356568 l 0.296279,0.141249 q -0.24977,0.54088 -0.854385,0.54088 -0.27044,0 -0.480591,-0.127468 Q 21.623649,48.572209 21.508238,48.35 21.39455,48.127791 21.39455,47.857351 q 0,-0.265272 0.115411,-0.482313 0.117133,-0.217042 0.320394,-0.33762 0.203261,-0.122301 0.45303,-0.122301 0.296279,0 0.508152,0.179145 z"
         style="font-family:Rockwell;-inkscape-font-specification:Rockwell"
         id="path22570" />
      <path
         d="m 24.655336,47.25963 h -0.285943 v -0.296279 h 1.002524 v 0.296279 h -0.279053 l -0.676962,0.561551 0.639066,0.63562 h 0.316949 V 48.77375 H 24.901661 L 23.9956,47.860799 v 0.596002 h 0.306614 v 0.316949 h -0.987021 v -0.316949 h 0.32384 v -1.965428 h -0.32384 V 46.177869 H 23.9956 v 1.636422 z"
         style="font-family:Rockwell;-inkscape-font-specification:Rockwell"
         id="path22572" />
      <path
         d="m 28.634424,47.878025 q 0,0.253215 -0.117134,0.473701 -0.117133,0.220486 -0.320394,0.347955 -0.201538,0.127468 -0.447862,0.127468 -0.363458,0 -0.635621,-0.279053 v 0.720026 h 0.353123 v 0.316949 h -1.036975 v -0.316949 h 0.327285 v -1.986099 h -0.303169 v -0.318672 h 0.659736 v 0.289389 q 0.134359,-0.158475 0.296279,-0.23599 0.161919,-0.07751 0.346232,-0.07751 0.25666,0 0.456475,0.127468 0.199816,0.125746 0.310059,0.341065 0.111966,0.215319 0.111966,0.470256 z m -0.890558,0.623563 q 0.148139,0 0.266995,-0.08613 0.118856,-0.08613 0.186035,-0.234267 0.06718,-0.148139 0.06718,-0.313503 0,-0.167088 -0.07407,-0.306614 -0.07407,-0.141249 -0.203261,-0.223931 -0.129191,-0.0844 -0.29111,-0.0844 -0.16881,0 -0.303169,0.08957 -0.134359,0.08785 -0.208428,0.234267 -0.07407,0.146417 -0.07407,0.322116 0,0.282498 0.177423,0.442696 0.179145,0.160197 0.456475,0.160196 z"
         style="font-family:Rockwell;-inkscape-font-specification:Rockwell"
         id="path22574" />
      <path
         d="m 30.806558,47.871135 q 0,0.26355 -0.125746,0.482313 -0.125746,0.218764 -0.342788,0.346233 -0.217041,0.127468 -0.480591,0.127468 -0.272162,0 -0.490926,-0.127468 -0.218764,-0.127469 -0.341065,-0.346233 -0.120578,-0.218763 -0.120578,-0.482313 0,-0.275608 0.120578,-0.492649 0.122301,-0.217041 0.339342,-0.339342 0.217041,-0.124024 0.492649,-0.124024 0.266995,0 0.484037,0.130914 0.217041,0.129191 0.341064,0.347955 0.124024,0.218763 0.124024,0.477146 z m -0.949125,0.609782 q 0.158475,0 0.291111,-0.08268 0.132636,-0.08268 0.206706,-0.222209 0.07407,-0.139527 0.07407,-0.304891 0,-0.16192 -0.07407,-0.301446 -0.07407,-0.139527 -0.206706,-0.223932 -0.132636,-0.08613 -0.294556,-0.08613 -0.158474,0 -0.291111,0.0844 -0.132636,0.08268 -0.208428,0.223931 -0.07579,0.141249 -0.07579,0.303169 0,0.161919 0.07579,0.303168 0.07579,0.141249 0.210151,0.223932 0.134359,0.08268 0.292833,0.08268 z"
         style="font-family:Rockwell;-inkscape-font-specification:Rockwell"
         id="path22576" />
      <path
         d="m 32.172539,47.040866 v -0.07751 h 0.310059 v 0.60117 h -0.310059 v -0.110243 q -0.155029,-0.222209 -0.423747,-0.222209 -0.141249,0 -0.230821,0.06201 -0.08957,0.06201 -0.08957,0.160197 0,0.08785 0.06718,0.137804 0.0689,0.04995 0.306613,0.08785 l 0.239435,0.04651 q 0.535712,0.09819 0.535712,0.525377 0,0.24977 -0.194648,0.401354 -0.192925,0.151584 -0.513319,0.151584 -0.127469,0 -0.251492,-0.03617 -0.122301,-0.0379 -0.204984,-0.09302 v 0.09819 h -0.316949 v -0.620117 h 0.316949 v 0.06201 q 0.02584,0.130914 0.144695,0.210151 0.120578,0.07924 0.279052,0.07924 0.173978,0 0.273886,-0.06029 0.09991,-0.06201 0.09991,-0.18259 0,-0.08785 -0.07924,-0.130913 -0.07924,-0.04479 -0.318671,-0.0913 l -0.184313,-0.03962 q -0.273885,-0.05512 -0.401354,-0.189481 -0.127468,-0.134358 -0.127468,-0.342787 0,-0.16881 0.09302,-0.287665 0.09474,-0.120579 0.241157,-0.180868 0.146417,-0.06029 0.301446,-0.06029 0.260105,0 0.437527,0.10163 z"
         style="font-family:Rockwell;-inkscape-font-specification:Rockwell"
         id="path22578" />
    </g>
    <g
       aria-label="dynamics"
       id="text79187-1-0-5-83-3-7-1"
       style="font-size:3.52778px;line-height:1.25;font-family:'Train One';-inkscape-font-specification:'Train One';display:inline;stroke-width:0.264583"
       transform="translate(0,-1.9994685)">
      <path
         d="m 36.180329,48.212859 v 0.316949 h -0.680407 v -0.265272 q -0.272162,0.296278 -0.649401,0.296278 -0.261827,0 -0.463365,-0.122301 -0.199816,-0.124024 -0.311782,-0.335897 -0.110243,-0.211874 -0.110243,-0.468533 0,-0.261828 0.117134,-0.482314 0.118855,-0.220486 0.327284,-0.349677 0.208428,-0.130914 0.451308,-0.130914 0.1757,0 0.332452,0.07062 0.158474,0.07062 0.306613,0.222209 v -0.71658 h -0.349677 v -0.313504 h 0.7028 v 2.278932 z m -1.262628,0.03101 q 0.165364,0 0.298001,-0.08785 0.132636,-0.08785 0.208428,-0.234267 0.07579,-0.146416 0.07579,-0.313504 0,-0.168809 -0.07579,-0.308336 -0.07579,-0.139526 -0.210151,-0.220486 -0.134359,-0.08096 -0.303168,-0.08096 -0.163643,0 -0.292834,0.08785 -0.127468,0.08613 -0.201538,0.230822 -0.07407,0.142971 -0.07407,0.306613 0,0.1757 0.07579,0.316949 0.07579,0.141249 0.206705,0.222209 0.130914,0.08096 0.292834,0.08096 z"
         style="font-family:Rockwell;-inkscape-font-specification:Rockwell"
         id="path22549" />
      <path
         d="m 36.969256,47.038081 0.392741,1.023194 0.380684,-1.023194 h -0.241157 v -0.318672 h 0.864719 v 0.318672 h -0.266995 l -0.894002,2.303048 H 36.602353 V 49.03107 h 0.356568 l 0.215319,-0.532268 -0.592557,-1.460721 h -0.303169 v -0.318672 h 0.906061 v 0.318672 z"
         style="font-family:Rockwell;-inkscape-font-specification:Rockwell"
         id="path22551" />
      <path
         d="m 40.285163,47.311966 v 0.900893 h 0.303169 v 0.316949 h -0.659737 v -1.195449 q 0,-0.170532 -0.04995,-0.244602 -0.04823,-0.07407 -0.160197,-0.07407 -0.237711,0 -0.53399,0.234266 v 0.962905 h 0.311782 v 0.316949 h -0.981853 v -0.316949 h 0.318671 V 47.03808 h -0.318671 v -0.318672 h 0.670071 v 0.218764 q 0.332452,-0.242879 0.625285,-0.242879 0.24288,0 0.358291,0.149861 0.117133,0.149862 0.117133,0.466811 z"
         style="font-family:Rockwell;-inkscape-font-specification:Rockwell"
         id="path22553" />
      <path
         d="m 42.279874,47.358475 v 0.854384 h 0.303169 v 0.316949 H 41.96637 v -0.222209 q -0.258382,0.253215 -0.575331,0.253215 -0.167087,0 -0.306614,-0.07751 -0.137804,-0.07751 -0.222209,-0.206706 -0.08268,-0.130913 -0.08268,-0.289388 0,-0.170532 0.0913,-0.303168 0.09302,-0.134359 0.24977,-0.206706 0.156752,-0.07235 0.315226,-0.07235 0.265273,0 0.494372,0.155029 v -0.194648 q 0,-0.211873 -0.08957,-0.303169 -0.08957,-0.0913 -0.294556,-0.0913 -0.144694,0 -0.242879,0.0534 -0.09646,0.05168 -0.160197,0.158475 l -0.341065,-0.0844 q 0.115411,-0.215319 0.311782,-0.320394 0.19637,-0.106798 0.46681,-0.106798 0.363458,0 0.530545,0.165365 0.16881,0.165364 0.16881,0.521932 z m -0.840604,0.928454 q 0.261828,0 0.490927,-0.218764 v -0.211874 q -0.232544,-0.180867 -0.465088,-0.180867 -0.141249,0 -0.244602,0.08957 -0.101631,0.08785 -0.101631,0.222209 0,0.129191 0.08957,0.215319 0.08957,0.08441 0.230821,0.08441 z"
         style="font-family:Rockwell;-inkscape-font-specification:Rockwell"
         id="path22555" />
      <path
         d="m 43.056744,48.212859 v -1.174778 h -0.304891 v -0.318672 h 0.659736 v 0.229099 q 0.318672,-0.253214 0.625286,-0.253214 0.313503,0 0.430637,0.282498 0.347955,-0.282498 0.656291,-0.282498 0.218764,0 0.347955,0.129191 0.130914,0.129191 0.130914,0.396186 v 0.992188 h 0.316949 v 0.316949 h -0.670072 v -1.147217 q 0,-0.118856 -0.01206,-0.192926 -0.01206,-0.07407 -0.06373,-0.125746 -0.04995,-0.05168 -0.160197,-0.05168 -0.09819,0 -0.229099,0.05857 -0.130914,0.05857 -0.275608,0.1757 v 0.96635 h 0.306614 v 0.316949 h -0.663182 v -1.192004 q 0,-0.173977 -0.0534,-0.249769 -0.05168,-0.07579 -0.172255,-0.07579 -0.19637,0 -0.515042,0.234266 v 0.96635 h 0.318672 v 0.316949 h -0.999078 v -0.316949 z"
         style="font-family:Rockwell;-inkscape-font-specification:Rockwell"
         id="path22557" />
      <path
         d="m 46.718883,46.109627 q 0,0.08785 -0.06374,0.151584 -0.06373,0.06373 -0.151584,0.06373 -0.08785,0 -0.149862,-0.06373 -0.06201,-0.06373 -0.06201,-0.151584 0,-0.08785 0.06201,-0.151584 0.06201,-0.06374 0.149862,-0.06374 0.0913,0 0.153307,0.06201 0.06201,0.06201 0.06201,0.153307 z m 0.254937,2.103232 v 0.316949 h -0.914674 v -0.316949 h 0.282498 v -1.174778 h -0.282498 v -0.318672 h 0.639066 v 1.49345 z"
         style="font-family:Rockwell;-inkscape-font-specification:Rockwell"
         id="path22559" />
      <path
         d="m 48.584404,46.850323 v -0.130914 h 0.316949 v 0.685575 h -0.316949 q -0.02067,-0.198093 -0.158475,-0.301446 -0.137804,-0.105076 -0.318671,-0.105076 -0.15503,0 -0.279053,0.08268 -0.122301,0.08268 -0.189481,0.223932 -0.06718,0.141249 -0.06718,0.308336 0,0.284221 0.151584,0.465088 0.151584,0.179145 0.399632,0.179145 0.384128,0 0.542602,-0.356567 l 0.296279,0.141249 q -0.24977,0.54088 -0.854384,0.54088 -0.270441,0 -0.480592,-0.127469 -0.210151,-0.127468 -0.325561,-0.349677 -0.113689,-0.222209 -0.113689,-0.492649 0,-0.265272 0.115411,-0.482314 0.117134,-0.217041 0.320394,-0.337619 0.203261,-0.122301 0.453031,-0.122301 0.296278,0 0.508152,0.179145 z"
         style="font-family:Rockwell;-inkscape-font-specification:Rockwell"
         id="path22561" />
      <path
         d="m 50.275946,46.796924 v -0.07751 h 0.310059 v 0.60117 h -0.310059 v -0.110243 q -0.155029,-0.222209 -0.423747,-0.222209 -0.141249,0 -0.230821,0.06201 -0.08957,0.06201 -0.08957,0.160197 0,0.08785 0.06718,0.137804 0.0689,0.04995 0.306613,0.08785 l 0.239435,0.04651 q 0.535712,0.09819 0.535712,0.525378 0,0.249769 -0.194648,0.401354 -0.192925,0.151584 -0.513319,0.151584 -0.127469,0 -0.251492,-0.03617 -0.122301,-0.0379 -0.204984,-0.09302 v 0.09819 H 49.199353 V 47.90969 h 0.316949 v 0.06201 q 0.02584,0.130914 0.144694,0.210151 0.120579,0.07924 0.279053,0.07924 0.173978,0 0.273886,-0.06029 0.09991,-0.06201 0.09991,-0.18259 0,-0.08785 -0.07924,-0.130914 -0.07924,-0.04479 -0.318671,-0.09129 l -0.184313,-0.03962 q -0.273885,-0.05512 -0.401354,-0.189481 -0.127469,-0.134359 -0.127469,-0.342787 0,-0.16881 0.09302,-0.287666 0.09474,-0.120578 0.241157,-0.180867 0.146417,-0.06029 0.301446,-0.06029 0.260105,0 0.437527,0.10163 z"
         style="font-family:Rockwell;-inkscape-font-specification:Rockwell"
         id="path22563" />
    </g>
    <circle
       style="fill:none;stroke:#000000;stroke-width:0"
       id="path1081"
       cx="-33.591331"
       cy="108.42607"
       r="8.0411673" />
  </g>
  <g
     style="display:none;opacity:1"
     inkscape:label="components"
     id="layer2"
     inkscape:groupmode="layer"
     sodipodi:insensitive="true">
    <circle
       inkscape:label="thresh"
       r="4.2865553"
       cy="20.969362"
       cx="10.166086"
       id="path847"
       style="fill:#ff0000;fill-opacity:1;stroke:#fff700;stroke-width:0" />
    <circle
       inkscape:label="analog"
       style="fill:#0000ff;fill-opacity:1;stroke:#fff700;stroke-width:0"
       id="path847-5-4-8"
       cx="10.629498"
       cy="111.68212"
       r="4.2865553" />
    <circle
       inkscape:label="thresh_cv"
       style="fill:#ff0000;fill-opacity:1;stroke:#fff700;stroke-width:0"
       id="path847-1"
       cx="10.397792"
       cy="35.04549"
       r="4.2865553" />
    <circle
       inkscape:label="thresh_cv"
       style="fill:#00ff00;fill-opacity:1;stroke:#fff700;stroke-width:0"
       id="path847-5-4-7"
       cx="10.861203"
       cy="99.382431"
       r="4.2865553" />
  </g>
</svg>
