<?xml version="1.0" encoding="UTF-8" standalone="no"?>
<svg
   width="50.799999mm"
   height="128.5mm"
   viewBox="0 0 50.8 128.5"
   version="1.1"
   id="svg1238"
   inkscape:version="1.1 (c4e8f9e, 2021-05-24)"
   sodipodi:docname="PulseTrain.svg"
   xmlns:inkscape="http://www.inkscape.org/namespaces/inkscape"
   xmlns:sodipodi="http://sodipodi.sourceforge.net/DTD/sodipodi-0.dtd"
   xmlns="http://www.w3.org/2000/svg"
   xmlns:svg="http://www.w3.org/2000/svg"
   xmlns:rdf="http://www.w3.org/1999/02/22-rdf-syntax-ns#"
   xmlns:cc="http://creativecommons.org/ns#"
   xmlns:dc="http://purl.org/dc/elements/1.1/">
  <defs
     id="defs1232">
    <marker
       style="overflow:visible;"
       id="Arrow1Send"
       refX="0.0"
       refY="0.0"
       orient="auto"
       inkscape:stockid="Arrow1Send"
       inkscape:isstock="true">
      <path
         transform="scale(0.2) rotate(180) translate(6,0)"
         style="fill-rule:evenodd;fill:context-stroke;stroke:context-stroke;stroke-width:1.0pt;"
         d="M 0.0,0.0 L 5.0,-5.0 L -12.5,0.0 L 5.0,5.0 L 0.0,0.0 z "
         id="path2602" />
    </marker>
    <marker
       style="overflow:visible;"
       id="Arrow1Lend"
       refX="0.0"
       refY="0.0"
       orient="auto"
       inkscape:stockid="Arrow1Lend"
       inkscape:isstock="true">
      <path
         transform="scale(0.8) rotate(180) translate(12.5,0)"
         style="fill-rule:evenodd;fill:context-stroke;stroke:context-stroke;stroke-width:1.0pt;"
         d="M 0.0,0.0 L 5.0,-5.0 L -12.5,0.0 L 5.0,5.0 L 0.0,0.0 z "
         id="path2590" />
    </marker>
    <marker
       style="overflow:visible"
       id="marker2867"
       refX="0.0"
       refY="0.0"
       orient="auto"
       inkscape:stockid="Arrow1Lstart"
       inkscape:isstock="true">
      <path
         transform="scale(0.8) translate(12.5,0)"
         style="fill-rule:evenodd;fill:context-stroke;stroke:context-stroke;stroke-width:1.0pt"
         d="M 0.0,0.0 L 5.0,-5.0 L -12.5,0.0 L 5.0,5.0 L 0.0,0.0 z "
         id="path2865" />
    </marker>
    <marker
       style="overflow:visible"
       id="marker2857"
       refX="0.0"
       refY="0.0"
       orient="auto"
       inkscape:stockid="Arrow1Lstart"
       inkscape:isstock="true">
      <path
         transform="scale(0.8) translate(12.5,0)"
         style="fill-rule:evenodd;fill:context-stroke;stroke:context-stroke;stroke-width:1.0pt"
         d="M 0.0,0.0 L 5.0,-5.0 L -12.5,0.0 L 5.0,5.0 L 0.0,0.0 z "
         id="path2855" />
    </marker>
    <marker
       style="overflow:visible"
       id="Arrow1Lstart"
       refX="0.0"
       refY="0.0"
       orient="auto"
       inkscape:stockid="Arrow1Lstart"
       inkscape:isstock="true">
      <path
         transform="scale(0.8) translate(12.5,0)"
         style="fill-rule:evenodd;fill:context-stroke;stroke:context-stroke;stroke-width:1.0pt"
         d="M 0.0,0.0 L 5.0,-5.0 L -12.5,0.0 L 5.0,5.0 L 0.0,0.0 z "
         id="path2587" />
    </marker>
  </defs>
  <sodipodi:namedview
     id="base"
     pagecolor="#ffffff"
     bordercolor="#666666"
     borderopacity="1.0"
     inkscape:pageopacity="0.0"
     inkscape:pageshadow="2"
     inkscape:zoom="0.99372559"
     inkscape:cx="-128.30504"
     inkscape:cy="160.00393"
     inkscape:document-units="mm"
     inkscape:current-layer="layer3"
     inkscape:document-rotation="0"
     showgrid="false"
     inkscape:window-width="1469"
     inkscape:window-height="847"
     inkscape:window-x="1585"
     inkscape:window-y="119"
     inkscape:window-maximized="0"
     inkscape:pagecheckerboard="0"
     width="50.8mm" />
  <metadata
     id="metadata1235">
    <rdf:RDF>
      <cc:Work
         rdf:about="">
        <dc:format>image/svg+xml</dc:format>
        <dc:type
           rdf:resource="http://purl.org/dc/dcmitype/StillImage" />
      </cc:Work>
    </rdf:RDF>
  </metadata>
  <g
     style="display:inline"
     inkscape:label="Layer 1"
     inkscape:groupmode="layer"
     id="layer1"
     sodipodi:insensitive="true">
    <rect
       y="4.6888422e-07"
       x="8.422399e-07"
       height="128.5"
       width="50.799999"
       id="rect1391"
       style="opacity:0.98;fill:#c6c6c6;fill-opacity:1;stroke:#fff700;stroke-width:0" />
  </g>
  <g
     inkscape:groupmode="layer"
     id="layer3"
     inkscape:label="Panel Art">
    <g
       aria-label="ZEROLAB"
       id="text21901-7"
       style="font-size:4.23333px;line-height:1.25;font-family:'Train One';-inkscape-font-specification:'Train One';display:inline;fill:none;stroke:#000000;stroke-width:0.2"
       transform="translate(0,-0.05184393)">
      <path
         d="m 17.134061,124.44357 v -0.3048 h -2.133598 v -0.2032 h 2.336798 v 0.57574 l -1.553632,2.0828 h 1.557865 v 0.2032 h -1.960032 z m -2.243665,2.1717 1.536699,-2.03623 h -1.426632 v -0.2032 h 1.833032 l -1.739899,2.30717 v 0.35136 h 2.247898 v 0.2032 h -2.451098 z"
         id="path11464" />
      <path
         d="m 17.956451,123.93557 h 2.285998 v 0.2032 h -2.082798 v 2.8956 h 2.167465 v 0.2032 h -2.370665 z m 0.567267,0.44027 h 1.718731 v 0.2032 h -1.515532 v 0.65193 h 1.299633 v 0.2032 h -1.502832 z m 0,1.2827 h 1.502832 v 0.2032 h -1.299633 v 0.73237 h 1.600199 v 0.2032 h -1.803398 z"
         id="path11466" />
      <path
         d="m 22.488032,125.72204 q 0.254,-0.0931 0.3937,-0.2032 0.143933,-0.11007 0.198967,-0.25823 0.05927,-0.14817 0.05927,-0.34714 0,-0.23706 -0.1143,-0.41063 -0.110066,-0.17357 -0.3048,-0.2667 -0.194733,-0.0974 -0.448732,-0.0974 h -1.193799 v 3.0988 h -0.2032 v -3.302 h 1.396999 q 0.317499,0 0.558799,0.12277 0.2413,0.12277 0.376766,0.3429 0.135467,0.2159 0.135467,0.51223 0,0.38524 -0.148167,0.60537 -0.143933,0.2159 -0.414866,0.31327 l 0.783166,1.40546 h -0.2413 z m -1.054099,-1.3462 h 0.694266 q 0.287867,0 0.461433,0.15663 0.173567,0.1524 0.173567,0.4191 0,0.2921 -0.173567,0.45297 -0.169333,0.16087 -0.457199,0.16087 h -0.6985 z m 0.6985,0.98637 q 0.194733,0 0.309033,-0.10584 0.118533,-0.11006 0.118533,-0.3048 0,-0.1778 -0.122767,-0.27516 -0.118533,-0.0974 -0.309033,-0.0974 h -0.491066 v 0.78317 z m -0.06773,0.60536 H 21.6329 v 1.27 h -0.2032 v -1.4732 h 0.766233 l 0.677332,1.4732 h -0.224366 z"
         id="path11468" />
      <path
         d="m 25.355187,127.32224 q -0.457199,0 -0.800099,-0.21167 -0.3429,-0.21166 -0.5334,-0.60113 -0.190499,-0.3937 -0.190499,-0.93133 0,-0.52494 0.190499,-0.9144 0.1905,-0.38947 0.5334,-0.60114 0.3429,-0.2159 0.800099,-0.2159 0.4572,0 0.795866,0.2159 0.3429,0.2159 0.529167,0.60537 0.186266,0.38947 0.186266,0.91017 0,0.53763 -0.186266,0.93133 -0.186267,0.38947 -0.529167,0.60113 -0.338666,0.21167 -0.795866,0.21167 z m 0,-0.19897 q 0.402167,0 0.694266,-0.1905 0.2921,-0.1905 0.452967,-0.53763 0.160866,-0.34713 0.160866,-0.81703 0,-0.4572 -0.160866,-0.8001 -0.160867,-0.3429 -0.452967,-0.5334 -0.292099,-0.19474 -0.694266,-0.19474 -0.402166,0 -0.698499,0.1905 -0.296333,0.1905 -0.461433,0.5334 -0.160867,0.3429 -0.160867,0.80434 0,0.4699 0.160867,0.81703 0.1651,0.34713 0.461433,0.53763 0.296333,0.1905 0.698499,0.1905 z m 0,-0.25823 q -0.253999,0 -0.469899,-0.14817 -0.211667,-0.14816 -0.338667,-0.4318 -0.127,-0.28786 -0.127,-0.70696 0,-0.42334 0.135467,-0.70274 0.135467,-0.28363 0.347133,-0.42333 0.2159,-0.14393 0.452966,-0.14393 0.254,0 0.461433,0.14393 0.211667,0.1397 0.334433,0.42333 0.127,0.2794 0.127,0.70274 0,0.4191 -0.131233,0.70696 -0.131233,0.28364 -0.3429,0.4318 -0.207433,0.14817 -0.448733,0.14817 z m 0,-0.2032 q 0.198967,0 0.359833,-0.127 0.1651,-0.127 0.262467,-0.3683 0.09737,-0.24553 0.09737,-0.58843 0,-0.51647 -0.203199,-0.79164 -0.2032,-0.27516 -0.516467,-0.27516 -0.194733,0 -0.364066,0.12276 -0.1651,0.12277 -0.2667,0.35984 -0.1016,0.23706 -0.1016,0.5842 0,0.3429 0.09313,0.58843 0.09737,0.2413 0.262466,0.3683 0.169333,0.127 0.376766,0.127 z"
         id="path11470" />
      <path
         d="m 28.028336,123.93557 h 0.2032 v 2.61197 h 1.401232 v 0.2032 h -1.604432 z m -0.579966,0 h 0.2032 v 3.0988 h 1.981198 v 0.2032 H 27.44837 Z"
         id="path11472" />
      <path
         d="m 31.697641,124.13877 h -0.6858 l -1.037165,3.0988 h -0.211667 l 1.100666,-3.302 h 0.982132 l 1.100666,3.302 H 32.72634 Z m -0.474133,0.33444 h 0.245533 l 0.508,1.54516 h -1.261533 z m 0.474133,1.34196 q -0.02117,-0.0677 -0.06773,-0.2032 -0.04657,-0.13546 -0.1016,-0.30056 -0.05503,-0.16934 -0.1016,-0.33444 -0.04657,-0.16933 -0.06773,-0.30056 h -0.0254 q -0.02117,0.127 -0.06773,0.29633 -0.04233,0.1651 -0.09737,0.33443 -0.05503,0.1651 -0.1016,0.3048 -0.04657,0.13547 -0.06773,0.2032 z m 0.211666,0.6477 h -1.117599 l -0.262466,0.7747 h -0.211667 l 0.3302,-0.9779 h 1.409699 l 0.3175,0.9779 h -0.211667 z"
         id="path11474" />
      <path
         d="m 33.318808,123.93557 h 1.384299 q 0.313266,0 0.541866,0.11007 0.2286,0.10583 0.3556,0.2921 0.126999,0.18627 0.126999,0.42757 0,0.2794 -0.114299,0.46566 -0.110067,0.18204 -0.300567,0.22437 l 0.0042,0.0127 q 0.127,0.008 0.262467,0.1143 0.1397,0.1016 0.232833,0.28363 0.09737,0.18204 0.09737,0.44027 0,0.27093 -0.135467,0.4826 -0.131233,0.20743 -0.385233,0.3302 -0.249766,0.11853 -0.605366,0.11853 h -1.464732 z m 1.464732,3.0988 q 0.427566,0 0.673099,-0.19896 0.249767,-0.2032 0.249767,-0.52917 0,-0.1905 -0.09313,-0.36407 -0.0889,-0.1778 -0.245534,-0.2921 -0.156633,-0.11853 -0.347133,-0.13546 l -0.01693,-0.0593 q 0.211667,-0.0423 0.321733,-0.15663 0.1143,-0.1143 0.156633,-0.25824 0.04233,-0.14816 0.04233,-0.27516 0,-0.28364 -0.2286,-0.45297 -0.2286,-0.17357 -0.592666,-0.17357 H 33.52201 v 2.8956 z m -0.897466,-2.6797 h 0.698499 q 0.249767,0 0.414867,0.1524 0.1651,0.1524 0.1651,0.40217 0,0.23707 -0.143934,0.38523 -0.143933,0.14394 -0.419099,0.14394 h -0.715433 z m 0.715433,0.88054 q 0.173566,0 0.266699,-0.0889 0.09313,-0.0889 0.09313,-0.23707 0,-0.16087 -0.110067,-0.254 -0.105833,-0.0974 -0.2667,-0.0974 H 34.08927 v 0.67734 z m -0.715433,0.38946 h 0.766233 q 0.300566,0 0.491066,0.15664 0.194733,0.15663 0.194733,0.42333 0,0.27517 -0.1778,0.43603 -0.173566,0.16087 -0.486833,0.16087 h -0.787399 z m 0.787399,0.97367 q 0.211667,0 0.334433,-0.1016 0.127,-0.10583 0.127,-0.2921 0,-0.18203 -0.1397,-0.2794 -0.135466,-0.0974 -0.342899,-0.0974 h -0.563033 v 0.77047 z"
         id="path11476" />
    </g>
    <text
       xml:space="preserve"
       style="font-size:4.23333px;line-height:1.25;font-family:'Train One';-inkscape-font-specification:'Train One';display:inline;fill:none;fill-opacity:1;stroke:#000000;stroke-width:0.2;stroke-linejoin:miter;stroke-miterlimit:4;stroke-dasharray:none;stroke-dashoffset:0;stroke-opacity:1"
       x="-49.462685"
       y="74.408691"
       id="text21901-7-6"><tspan
         sodipodi:role="line"
         id="tspan21899-4-1"
         style="font-size:4.23333px;fill:none;fill-opacity:1;stroke:#000000;stroke-width:0.2;stroke-linejoin:miter;stroke-miterlimit:4;stroke-dasharray:none;stroke-dashoffset:0;stroke-opacity:1"
         x="-49.462685"
         y="74.408691">ZEROLAB</tspan></text>
    <text
       xml:space="preserve"
       style="font-style:normal;font-variant:normal;font-weight:normal;font-stretch:normal;font-size:6.35px;line-height:1.25;font-family:Rockwell;-inkscape-font-specification:Rockwell;display:inline;stroke-width:0.264583"
       x="-56.506004"
       y="10.923462"
       id="text59999"><tspan
         sodipodi:role="line"
         id="tspan59997"
         style="font-style:normal;font-variant:normal;font-weight:normal;font-stretch:normal;font-size:6.35px;font-family:Rockwell;-inkscape-font-specification:Rockwell;stroke-width:0.264583"
         x="-56.506004"
         y="10.923462">pulsetrain</tspan><tspan
         sodipodi:role="line"
         style="font-style:normal;font-variant:normal;font-weight:normal;font-stretch:normal;font-size:6.35px;font-family:Rockwell;-inkscape-font-specification:Rockwell;stroke-width:0.264583"
         x="-56.506004"
         y="18.860962"
         id="tspan1946" /></text>
    <g
       aria-label="pulsetrain
"
       id="text59999-3"
       style="font-size:6.35px;line-height:1.25;font-family:Rockwell;-inkscape-font-specification:Rockwell;display:inline;stroke-width:0.264583">
      <path
         d="m 14.152528,4.5557719 q 0,0.4557861 -0.21084,0.8526611 -0.21084,0.396875 -0.576709,0.6263183 -0.362769,0.2294434 -0.806152,0.2294434 -0.654224,0 -1.144117,-0.5022949 v 1.2960449 h 0.635621 V 7.6284525 H 10.183778 V 7.0579447 h 0.589111 V 3.4829691 H 10.227186 V 2.9093607 h 1.187524 v 0.5208985 q 0.241846,-0.2852539 0.533301,-0.4247803 0.291455,-0.1395264 0.623218,-0.1395264 0.461987,0 0.821655,0.2294434 0.359668,0.2263428 0.558106,0.613916 0.201538,0.3875732 0.201538,0.84646 z m -1.603003,1.122412 q 0.26665,0 0.480591,-0.1550293 0.21394,-0.1550292 0.334863,-0.4216796 0.120923,-0.2666504 0.120923,-0.5643067 0,-0.3007568 -0.133325,-0.5519043 -0.133326,-0.254248 -0.36587,-0.4030761 -0.232543,-0.1519287 -0.523999,-0.1519287 -0.303857,0 -0.545703,0.1612304 -0.241845,0.1581299 -0.375171,0.4216797 -0.133325,0.2635498 -0.133325,0.5798096 0,0.5084961 0.319361,0.7968506 0.322461,0.2883544 0.821655,0.2883544 z"
         id="path26307" />
      <path
         d="m 16.099695,5.6657816 q 0.430982,0 0.933277,-0.4185791 V 3.4829691 H 16.456263 V 2.9093607 h 1.21853 v 2.688208 h 0.558106 V 6.1680765 H 17.032972 V 5.7929056 q -0.564307,0.4309815 -1.072803,0.4309815 -0.458887,0 -0.679028,-0.2728516 Q 15.0641,5.6781839 15.0641,5.0456644 V 3.4829691 H 14.608314 V 2.9093607 h 1.097607 v 2.2696289 q 0,0.2511475 0.08992,0.3689697 0.09302,0.1178223 0.303857,0.1178223 z"
         id="path26309" />
      <path
         d="M 20.214173,5.5975687 V 6.1680765 H 18.499549 V 5.5975687 h 0.576709 V 2.0598002 H 18.499549 V 1.4954936 h 1.21853 v 4.1020751 z"
         id="path26311" />
      <path
         d="M 22.629529,3.0488871 V 2.9093607 h 0.558105 V 3.9914652 H 22.629529 V 3.7930277 q -0.279053,-0.3999756 -0.762744,-0.3999756 -0.254248,0 -0.415479,0.1116211 -0.16123,0.1116211 -0.16123,0.2883545 0,0.1581299 0.120923,0.2480469 0.124023,0.089917 0.551904,0.1581299 l 0.430981,0.083716 q 0.964283,0.1767334 0.964283,0.9456787 0,0.4495849 -0.350367,0.7224365 -0.347265,0.2728516 -0.923974,0.2728516 -0.229444,0 -0.452686,-0.065112 -0.220141,-0.068213 -0.368969,-0.1674317 V 6.1680765 H 20.691663 V 5.0518656 h 0.570508 v 0.1116211 q 0.04651,0.2356445 0.260449,0.3782715 0.217041,0.1426269 0.502295,0.1426269 0.313159,0 0.492993,-0.1085205 0.179834,-0.1116211 0.179834,-0.3286621 0,-0.1581299 -0.142627,-0.2356445 -0.142627,-0.080615 -0.573608,-0.1643311 L 21.649744,4.7759135 Q 21.156751,4.6766947 20.927307,4.434849 20.697864,4.1930033 20.697864,3.8178324 q 0,-0.3038574 0.167432,-0.5177978 0.170532,-0.217041 0.434082,-0.3255616 0.263549,-0.1085205 0.542602,-0.1085205 0.468189,0 0.787549,0.1829346 z"
         id="path26313" />
      <path
         d="m 27.283509,4.7014994 h -2.731616 q 0.05891,0.4681885 0.362768,0.74104 0.303858,0.269751 0.744141,0.269751 0.322461,0 0.598413,-0.1333252 0.275952,-0.1333252 0.461987,-0.4092773 l 0.564307,0.254248 q -0.266651,0.4154785 -0.700733,0.6294189 -0.430981,0.2108399 -0.939477,0.2108399 -0.5271,0 -0.936377,-0.2201416 -0.409277,-0.2201416 -0.638721,-0.613916 -0.226343,-0.3937744 -0.226343,-0.8867676 0,-0.4898926 0.223243,-0.883667 0.226342,-0.3937744 0.617016,-0.613916 0.390674,-0.2232422 0.861963,-0.2232422 0.514697,0 0.896069,0.2294434 0.384473,0.2263428 0.604615,0.651123 0.220141,0.4216797 0.238745,0.9983887 z M 25.556482,3.3558451 q -0.362768,0 -0.63562,0.2449463 -0.272851,0.2418457 -0.350366,0.6418213 h 2.040186 Q 26.520765,3.8426371 26.22931,3.6007914 25.937855,3.3558451 25.556482,3.3558451 Z"
         id="path26315" />
      <path
         d="M 29.40431,2.9093607 V 3.4829691 H 28.808998 V 5.191392 q 0,0.2666503 0.05581,0.3472656 0.05891,0.077515 0.198438,0.077515 0.170532,0 0.341064,-0.058911 v 0.5798096 q -0.297656,0.086816 -0.480591,0.086816 -0.403076,0 -0.579809,-0.2015381 Q 28.167176,5.8177103 28.167176,5.3247172 V 3.4829691 h -0.42478 V 2.9093607 h 0.42478 V 2.4163676 l 0.641822,-0.5860107 v 1.0790038 z"
         id="path26317" />
      <path
         d="M 31.032116,4.8596293 V 5.5975687 H 31.74215 V 6.1680765 H 29.742272 V 5.5975687 h 0.654224 V 3.4829691 H 29.742272 V 2.9093607 h 1.16272 v 0.7379395 q 0.195337,-0.4371826 0.483691,-0.6077148 0.291456,-0.1736329 0.830958,-0.1736329 h 0.145727 V 3.513975 h -0.139526 q -0.520899,0 -0.775147,0.1364258 -0.254248,0.1364258 -0.337964,0.4123779 -0.08062,0.2759521 -0.08062,0.7968506 z"
         id="path26319" />
      <path
         d="m 35.49696,4.0596781 v 1.5378906 h 0.545703 V 6.1680765 H 34.932654 V 5.7681009 q -0.465088,0.4557862 -1.035596,0.4557862 -0.300757,0 -0.551904,-0.1395264 Q 33.097107,5.9448343 32.945178,5.7122904 32.79635,5.4766459 32.79635,5.191392 q 0,-0.306958 0.164331,-0.5457032 0.167432,-0.2418457 0.449585,-0.3720703 0.282153,-0.1302246 0.567407,-0.1302246 0.47749,0 0.889868,0.2790528 V 4.0720805 q 0,-0.3813721 -0.16123,-0.5457032 -0.161231,-0.164331 -0.5302,-0.164331 -0.26045,0 -0.437183,0.096118 -0.173633,0.093018 -0.288354,0.2852539 L 32.836658,3.5914896 q 0.207739,-0.3875732 0.561206,-0.5767089 0.353466,-0.1922364 0.840258,-0.1922364 0.654224,0 0.954981,0.2976563 0.303857,0.2976562 0.303857,0.9394775 z m -1.513086,1.6712158 q 0.471289,0 0.883667,-0.3937744 V 4.9557474 q -0.418579,-0.3255615 -0.837158,-0.3255615 -0.254248,0 -0.440283,0.1612305 -0.182935,0.1581299 -0.182935,0.3999756 0,0.2325439 0.161231,0.3875732 0.16123,0.1519287 0.415478,0.1519287 z"
         id="path26321" />
      <path
         d="m 37.509241,1.8117533 q 0,0.1581299 -0.114722,0.2728516 -0.114721,0.1147217 -0.272851,0.1147217 -0.15813,0 -0.269751,-0.1147217 -0.111621,-0.1147217 -0.111621,-0.2728516 0,-0.1581298 0.111621,-0.2728515 0.111621,-0.1147217 0.269751,-0.1147217 0.164331,0 0.275952,0.1116211 0.111621,0.1116211 0.111621,0.2759521 z m 0.458887,3.7858154 V 6.1680765 H 36.321716 V 5.5975687 h 0.508497 V 3.4829691 H 36.321716 V 2.9093607 h 1.150318 v 2.688208 z"
         id="path26323" />
      <path
         d="M 41.456287,3.9759623 V 5.5975687 H 42.00199 V 6.1680765 H 40.814466 V 4.0162699 q 0,-0.306958 -0.08992,-0.4402832 -0.08682,-0.1333252 -0.288355,-0.1333252 -0.42788,0 -0.961181,0.4216797 v 1.7332275 h 0.561206 V 6.1680765 H 38.268885 V 5.5975687 h 0.573608 V 3.4829691 H 38.268885 V 2.9093607 h 1.206128 v 0.3937745 q 0.598413,-0.4371827 1.125512,-0.4371827 0.437183,0 0.644922,0.269751 0.21084,0.269751 0.21084,0.8402588 z"
         id="path26325" />
    </g>
    <text
       xml:space="preserve"
       style="font-style:normal;font-variant:normal;font-weight:normal;font-stretch:normal;font-size:6.35px;line-height:1.25;font-family:Rockwell;-inkscape-font-specification:Rockwell;display:inline;stroke-width:0.264583"
       x="-70.769295"
       y="42.548893"
       id="text59999-2"><tspan
         sodipodi:role="line"
         id="tspan59997-2"
         style="font-style:normal;font-variant:normal;font-weight:normal;font-stretch:normal;font-size:6.35px;font-family:Rockwell;-inkscape-font-specification:Rockwell;stroke-width:0.264583"
         x="-70.769295"
         y="42.548893">pluckt</tspan></text>
    <text
       xml:space="preserve"
       style="font-size:3.52778px;line-height:1.25;font-family:'Train One';-inkscape-font-specification:'Train One';display:inline;stroke-width:0.264583"
       x="-100.51591"
       y="11.419454"
       id="text79187-1-0-5-83-3"><tspan
         sodipodi:role="line"
         id="tspan79185-2-97-7-9-6"
         style="font-style:normal;font-variant:normal;font-weight:normal;font-stretch:normal;font-size:3.52778px;font-family:Rockwell;-inkscape-font-specification:Rockwell;stroke-width:0.264583"
         x="-100.51591"
         y="11.419454">freq</tspan></text>
    <g
       aria-label="length"
       id="text79187-1-0-5-83-3-53"
       style="font-size:3.52778px;line-height:1.25;font-family:'Train One';-inkscape-font-specification:'Train One';display:inline;stroke-width:0.264583">
      <path
         d="m 3.0479975,45.865199 v 0.316949 H 2.095428 V 45.865199 H 2.415822 V 43.899771 H 2.095428 v -0.313504 h 0.6769617 v 2.278932 z"
         style="font-family:Rockwell;-inkscape-font-specification:Rockwell"
         id="path26328" />
      <path
         d="M 5.2046286,45.367382 H 3.6870631 q 0.032728,0.260105 0.2015382,0.41169 0.1688098,0.149861 0.4134117,0.149861 0.1791451,0 0.3324519,-0.07407 0.1533069,-0.07407 0.2566598,-0.227377 l 0.3135039,0.141249 q -0.1481392,0.230822 -0.389296,0.349678 -0.2394343,0.117133 -0.5219323,0.117133 -0.2928334,0 -0.5202098,-0.122301 -0.2273765,-0.122301 -0.3548451,-0.341065 -0.125746,-0.218763 -0.125746,-0.492649 0,-0.272162 0.1240235,-0.490926 0.1257461,-0.218764 0.3427872,-0.341065 0.2170412,-0.124023 0.4788686,-0.124023 0.2859431,0 0.4978166,0.127468 0.2135961,0.125746 0.335897,0.361736 0.122301,0.234266 0.1326363,0.55466 z M 4.2451689,44.619796 q -0.2015382,0 -0.3531225,0.136082 -0.1515843,0.134358 -0.1946481,0.356567 H 4.8308355 Q 4.7808816,44.890236 4.618962,44.755878 4.4570424,44.619796 4.2451689,44.619796 Z"
         style="font-family:Rockwell;-inkscape-font-specification:Rockwell"
         id="path26330" />
      <path
         d="m 7.2010627,44.964306 v 0.900893 h 0.3031686 v 0.316949 H 6.8444951 v -1.195449 q 0,-0.170532 -0.049954,-0.244602 -0.048231,-0.07407 -0.1601971,-0.07407 -0.2377117,0 -0.5339901,0.234266 v 0.962905 h 0.3117813 v 0.316949 H 5.4302825 V 45.865199 H 5.748954 V 44.690421 H 5.4302825 V 44.371749 H 6.100354 v 0.218764 q 0.3324519,-0.24288 0.6252852,-0.24288 0.2428794,0 0.3582902,0.149862 0.1171333,0.149862 0.1171333,0.466811 z"
         style="font-family:Rockwell;-inkscape-font-specification:Rockwell"
         id="path26332" />
      <path
         d="m 9.2440054,44.633577 v -0.261828 h 0.6804068 v 0.318672 H 9.5971279 v 1.357368 q 0,0.473701 -0.2394343,0.730361 -0.2377117,0.258382 -0.6959097,0.258382 -0.4340823,0 -0.740696,-0.244602 l 0.229099,-0.25666 q 0.1240235,0.0913 0.248047,0.136082 0.1257461,0.04651 0.2738853,0.04651 0.2687176,0 0.4203019,-0.167088 0.1515843,-0.167087 0.1515843,-0.442695 v -0.168809 q -0.1171333,0.137803 -0.2980009,0.217041 -0.1791451,0.07924 -0.3582902,0.07924 -0.2514921,0 -0.4530304,-0.127469 Q 7.9348683,45.98061 7.8211801,45.770459 7.7092144,45.558585 7.7092144,45.307093 q 0,-0.25666 0.1171333,-0.477146 0.1188559,-0.220486 0.3238392,-0.3514 0.2049833,-0.130914 0.4547529,-0.130914 0.1791451,0 0.3341745,0.07062 0.1567519,0.07062 0.3048911,0.215319 z m -0.5891117,1.283298 q 0.1688098,0 0.3048911,-0.0844 0.1360814,-0.0844 0.2118736,-0.227377 0.075792,-0.142971 0.075792,-0.308336 0,-0.15503 -0.075792,-0.298001 -0.075792,-0.142972 -0.210151,-0.230822 -0.1343588,-0.08785 -0.2997235,-0.08785 -0.1619196,0 -0.2945559,0.08441 -0.1326362,0.0844 -0.2067058,0.227377 -0.07407,0.142971 -0.07407,0.308336 0,0.16881 0.070625,0.310059 0.070624,0.141249 0.1998156,0.223931 0.1309138,0.08268 0.298001,0.08268 z"
         style="font-family:Rockwell;-inkscape-font-specification:Rockwell"
         id="path26334" />
      <path
         d="m 11.006173,44.371749 v 0.318672 h -0.33073 v 0.949124 q 0,0.148139 0.03101,0.192926 0.03273,0.04306 0.110243,0.04306 0.09474,0 0.189481,-0.03273 v 0.322116 q -0.165365,0.04823 -0.266995,0.04823 -0.223932,0 -0.322117,-0.111966 -0.09819,-0.113688 -0.09819,-0.387573 v -1.023194 h -0.235989 v -0.318672 h 0.235989 v -0.273885 l 0.356567,-0.325562 v 0.599447 z"
         style="font-family:Rockwell;-inkscape-font-specification:Rockwell"
         id="path26336" />
      <path
         d="m 12.456559,44.323518 q 0.504707,0 0.504707,0.546048 v 0.995633 h 0.306613 v 0.316949 h -0.663181 v -1.185114 q 0,-0.194648 -0.05684,-0.273885 -0.05512,-0.07924 -0.172255,-0.07924 -0.198093,0 -0.515042,0.232544 v 0.988743 h 0.313504 v 0.316949 H 11.18015 v -0.316949 h 0.323839 V 43.899771 H 11.18015 v -0.313504 h 0.680407 v 0.997356 q 0.320394,-0.260105 0.596002,-0.260105 z"
         style="font-family:Rockwell;-inkscape-font-specification:Rockwell"
         id="path26338" />
    </g>
    <text
       xml:space="preserve"
       style="font-size:3.52778px;line-height:1.25;font-family:'Train One';-inkscape-font-specification:'Train One';display:inline;stroke-width:0.264583"
       x="-87.659615"
       y="61.044132"
       id="text79187-1-0-5-83-3-53-9"><tspan
         sodipodi:role="line"
         style="font-style:normal;font-variant:normal;font-weight:normal;font-stretch:normal;font-size:3.52778px;font-family:Rockwell;-inkscape-font-specification:Rockwell;stroke-width:0.264583"
         x="-87.659615"
         y="61.044132"
         id="tspan12239-4">length</tspan></text>
    <g
       aria-label="duty"
       id="text79187-1-0-5-83-3-53-9-2"
       style="font-size:3.52778px;line-height:1.25;font-family:'Train One';-inkscape-font-specification:'Train One';display:inline;stroke-width:0.264583">
      <path
         d="m 5.2162776,63.123469 v 0.316949 H 4.5358708 v -0.265272 q -0.2721628,0.296278 -0.649401,0.296278 -0.2618274,0 -0.4633656,-0.122301 Q 3.2232885,63.2251 3.1113229,63.013226 3.0010797,62.801353 3.0010797,62.544693 q 0,-0.261828 0.1171333,-0.482314 0.1188559,-0.220486 0.3272843,-0.349677 0.2084284,-0.130914 0.4513078,-0.130914 0.1757,0 0.332452,0.07062 0.1584745,0.07062 0.3066137,0.222208 v -0.71658 H 4.1861933 v -0.313504 h 0.7028 v 2.278932 z m -1.2626284,0.03101 q 0.1653647,0 0.298001,-0.08785 0.1326363,-0.08785 0.2084284,-0.234267 0.075792,-0.146416 0.075792,-0.313503 0,-0.16881 -0.075792,-0.308337 -0.075792,-0.139526 -0.210151,-0.220486 -0.1343588,-0.08096 -0.3031686,-0.08096 -0.1636421,0 -0.2928333,0.08785 -0.1274686,0.08613 -0.2015382,0.230822 -0.07407,0.142971 -0.07407,0.306614 0,0.1757 0.075792,0.316949 0.075792,0.141249 0.2067058,0.222208 0.1309138,0.08096 0.2928333,0.08096 z"
         style="font-family:Rockwell;-inkscape-font-specification:Rockwell"
         id="path26341" />
      <path
         d="m 6.203298,63.161365 q 0.2394343,0 0.5184872,-0.232544 v -0.98013 H 6.4013911 v -0.318672 h 0.6769617 v 1.49345 h 0.3100588 v 0.316949 H 6.7217852 V 63.23199 q -0.3135039,0.239434 -0.5960019,0.239434 -0.2549372,0 -0.3772382,-0.151584 Q 5.6279667,63.168256 5.6279667,62.816856 V 61.948691 H 5.374752 v -0.318672 h 0.6097823 v 1.260906 q 0,0.139527 0.049954,0.204983 0.051677,0.06546 0.1688098,0.06546 z"
         style="font-family:Rockwell;-inkscape-font-specification:Rockwell"
         id="path26343" />
      <path
         d="m 8.5097911,61.630019 v 0.318672 H 8.1790617 v 0.949124 q 0,0.14814 0.031006,0.192926 0.032728,0.04306 0.1102431,0.04306 0.09474,0 0.1894804,-0.03273 v 0.322117 q -0.1653647,0.04823 -0.2669951,0.04823 -0.2239314,0 -0.3221166,-0.111966 -0.098185,-0.113688 -0.098185,-0.387573 V 61.948691 H 7.5865049 v -0.318672 h 0.2359892 v -0.273885 l 0.3565676,-0.325562 v 0.599447 z"
         style="font-family:Rockwell;-inkscape-font-specification:Rockwell"
         id="path26345" />
      <path
         d="m 9.3676202,61.948691 0.3927411,1.023194 0.3806837,-1.023194 H 9.8998878 v -0.318672 h 0.8647192 v 0.318672 H 10.497612 L 9.6036094,64.251739 H 9.0007173 V 63.94168 H 9.3572849 L 9.5726035,63.409412 8.9800467,61.948691 H 8.6768781 v -0.318672 h 0.9060607 v 0.318672 z"
         style="font-family:Rockwell;-inkscape-font-specification:Rockwell"
         id="path26347" />
    </g>
    <g
       aria-label="v/oct"
       id="text79187-1-0-1-4-9"
       style="font-size:2.82222px;line-height:1.25;font-family:'Train One';-inkscape-font-specification:'Train One';display:inline;stroke-width:0.264583"
       transform="translate(28.89849,-30.306752)">
      <path
         d="M 2.2117856,107.94531 2.5246,108.76662 2.8360364,107.94531 H 2.634843 v -0.25494 h 0.6945307 v 0.25494 H 3.1088878 l -0.4616425,1.21818 H 2.3895524 L 1.9182637,107.94531 H 1.6619488 v -0.25494 h 0.7386279 v 0.25494 z"
         style="font-family:Rockwell;-inkscape-font-specification:Rockwell"
         id="path22627" />
      <path
         d="M 3.3886293,109.17314 4.452474,107.01927 H 4.6991427 L 3.636676,109.17314 Z"
         style="font-family:Rockwell;-inkscape-font-specification:Rockwell"
         id="path22629" />
      <path
         d="m 6.3431409,108.4166 q 0,0.21084 -0.1005967,0.38585 -0.1005967,0.17501 -0.2742294,0.27698 -0.1736327,0.10198 -0.3844724,0.10198 -0.2177298,0 -0.3927406,-0.10198 -0.1750107,-0.10197 -0.2728513,-0.27698 -0.096463,-0.17501 -0.096463,-0.38585 0,-0.22049 0.096463,-0.39412 0.097841,-0.17364 0.2714733,-0.27148 0.1736327,-0.0992 0.3941186,-0.0992 0.2135958,0 0.3872285,0.10473 0.1736327,0.10335 0.2728513,0.27836 0.099219,0.17501 0.099219,0.38172 z m -0.7592985,0.48782 q 0.1267795,0 0.2328883,-0.0661 0.1061089,-0.0661 0.1653645,-0.17777 0.059256,-0.11162 0.059256,-0.24391 0,-0.12954 -0.059256,-0.24116 -0.059256,-0.11162 -0.1653645,-0.17915 -0.1061088,-0.0689 -0.2356443,-0.0689 -0.1267795,0 -0.2328883,0.0675 -0.1061089,0.0661 -0.1667425,0.17914 -0.060634,0.113 -0.060634,0.24254 0,0.12953 0.060634,0.24253 0.060634,0.113 0.1681205,0.17915 0.1074869,0.0661 0.2342663,0.0661 z"
         style="font-family:Rockwell;-inkscape-font-specification:Rockwell"
         id="path22631" />
      <path
         d="m 7.6757027,107.7951 v -0.10473 h 0.2535588 v 0.54846 H 7.6757027 q -0.016536,-0.15848 -0.1267794,-0.24116 -0.110243,-0.0841 -0.2549369,-0.0841 -0.1240233,0 -0.223242,0.0661 -0.097841,0.0661 -0.1515841,0.17914 -0.053743,0.113 -0.053743,0.24667 0,0.22738 0.1212672,0.37207 0.1212673,0.14332 0.3197047,0.14332 0.3073022,0 0.4340817,-0.28526 l 0.2370223,0.113 q -0.1998153,0.43271 -0.6835064,0.43271 -0.2163518,0 -0.3844723,-0.10198 -0.1681206,-0.10197 -0.2604491,-0.27974 -0.09095,-0.17777 -0.09095,-0.39412 0,-0.21222 0.092329,-0.38585 0.093706,-0.17363 0.2563149,-0.27009 0.1626084,-0.0978 0.3624238,-0.0978 0.2370223,0 0.4065209,0.14331 z"
         style="font-family:Rockwell;-inkscape-font-specification:Rockwell"
         id="path22633" />
      <path
         d="m 8.875973,107.69037 v 0.25494 H 8.6113899 v 0.7593 q 0,0.11851 0.024805,0.15434 0.026183,0.0345 0.088194,0.0345 0.075792,0 0.1515841,-0.0262 v 0.2577 q -0.1322915,0.0386 -0.2135957,0.0386 -0.1791449,0 -0.257693,-0.0896 -0.078548,-0.091 -0.078548,-0.31006 v -0.81855 H 8.1373451 v -0.25494 h 0.1887911 v -0.21911 l 0.2852537,-0.26045 v 0.47956 z"
         style="font-family:Rockwell;-inkscape-font-specification:Rockwell"
         id="path22635" />
    </g>
    <g
       aria-label="pluck"
       id="text79187-1-0-1-4-9-6"
       style="font-size:2.82222px;line-height:1.25;font-family:'Train One';-inkscape-font-specification:'Train One';display:inline;stroke-width:0.264583"
       transform="translate(-59.141339,1.619996)">
      <path
         d="m 5.5513213,120.46745 q 0,0.20257 -0.093706,0.37896 -0.093706,0.17639 -0.2563149,0.27836 -0.1612303,0.10198 -0.3582897,0.10198 -0.2907658,0 -0.5084957,-0.22324 v 0.57602 h 0.2824976 v 0.25355 H 3.7874338 v -0.25355 h 0.261827 v -1.58888 H 3.8067263 v -0.25494 h 0.5277882 v 0.23151 q 0.1074869,-0.12678 0.2370224,-0.18879 0.1295355,-0.062 0.2769855,-0.062 0.2053275,0 0.3651798,0.10197 0.1598523,0.1006 0.2480467,0.27286 0.089572,0.17225 0.089572,0.3762 z m -0.7124452,0.49885 q 0.1185112,0 0.2135958,-0.0689 0.095085,-0.0689 0.148828,-0.18742 0.053743,-0.11851 0.053743,-0.2508 0,-0.13367 -0.059256,-0.24529 -0.059256,-0.113 -0.1626084,-0.17914 -0.1033528,-0.0675 -0.2328883,-0.0675 -0.1350477,0 -0.2425345,0.0717 -0.1074869,0.0703 -0.1667425,0.18741 -0.059256,0.11714 -0.059256,0.2577 0,0.22599 0.1419378,0.35415 0.1433158,0.12816 0.3651798,0.12816 z"
         style="font-family:Rockwell;-inkscape-font-specification:Rockwell"
         id="path22638" />
      <path
         d="m 6.4759843,120.93047 v 0.25356 H 5.7139297 v -0.25356 h 0.2563149 v -1.57234 H 5.7139297 v -0.2508 h 0.5415686 v 1.82314 z"
         style="font-family:Rockwell;-inkscape-font-specification:Rockwell"
         id="path22640" />
      <path
         d="m 7.3207211,120.96079 q 0.1915472,0 0.4147892,-0.18604 v -0.7841 H 7.4791954 v -0.25494 H 8.020764 v 1.19476 h 0.2480467 v 0.25356 H 7.7355103 v -0.16674 q -0.2508028,0.19154 -0.4768009,0.19154 -0.2039495,0 -0.3017901,-0.12126 -0.096463,-0.12127 -0.096463,-0.40239 v -0.69453 H 6.6578852 v -0.25494 h 0.4878252 v 1.00872 q 0,0.11163 0.039963,0.16399 0.041341,0.0524 0.1350476,0.0524 z"
         style="font-family:Rockwell;-inkscape-font-specification:Rockwell"
         id="path22642" />
      <path
         d="m 9.5586534,119.84044 v -0.10473 h 0.2535588 v 0.54846 H 9.5586534 q -0.016537,-0.15847 -0.1267794,-0.24116 -0.110243,-0.0841 -0.2549369,-0.0841 -0.1240234,0 -0.223242,0.0661 -0.097841,0.0662 -0.1515841,0.17914 -0.053743,0.113 -0.053743,0.24667 0,0.22738 0.1212673,0.37207 0.1212673,0.14332 0.3197046,0.14332 0.3073023,0 0.4340817,-0.28525 l 0.2370224,0.11299 q -0.1998154,0.43271 -0.6835064,0.43271 -0.2163518,0 -0.3844724,-0.10198 -0.1681205,-0.10197 -0.260449,-0.27974 -0.09095,-0.17777 -0.09095,-0.39412 0,-0.21221 0.092328,-0.38585 0.093707,-0.17363 0.2563149,-0.27009 0.1626084,-0.0978 0.3624238,-0.0978 0.2370224,0 0.406521,0.14331 z"
         style="font-family:Rockwell;-inkscape-font-specification:Rockwell"
         id="path22644" />
      <path
         d="m 11.04969,119.97273 h -0.228755 v -0.23702 h 0.802018 v 0.23702 h -0.223242 l -0.541569,0.44924 0.511252,0.5085 h 0.253559 v 0.25356 h -0.376204 l -0.724848,-0.73036 v 0.4768 h 0.245291 v 0.25356 H 9.9775766 v -0.25356 h 0.2590714 v -1.57234 H 9.9775766 v -0.2508 h 0.5443244 v 1.30913 z"
         style="font-family:Rockwell;-inkscape-font-specification:Rockwell"
         id="path22646" />
    </g>
    <g
       aria-label="refret"
       id="text79187-1-0-1-4-9-5"
       style="font-size:2.82222px;line-height:1.25;font-family:'Train One';-inkscape-font-specification:'Train One';display:inline;stroke-width:0.264583"
       transform="translate(-65.46626,3.584156)">
      <path
         d="m 16.875761,120.08665 v 0.32797 h 0.315571 v 0.25356 h -0.888834 v -0.25356 h 0.290766 v -0.93982 h -0.290766 v -0.25493 h 0.516764 v 0.32797 q 0.08682,-0.19431 0.214974,-0.2701 0.129535,-0.0772 0.369314,-0.0772 h 0.06477 v 0.28801 h -0.06201 q -0.231511,0 -0.34451,0.0606 -0.112999,0.0606 -0.150206,0.18328 -0.03583,0.12264 -0.03583,0.35415 z"
         style="font-family:Rockwell;-inkscape-font-specification:Rockwell"
         id="path22649" />
      <path
         d="m 18.985536,120.01637 h -1.214051 q 0.02618,0.20808 0.161231,0.32935 0.135047,0.11989 0.330729,0.11989 0.143316,0 0.265961,-0.0592 0.122645,-0.0593 0.205327,-0.18191 l 0.250803,0.113 q -0.118511,0.18466 -0.311436,0.27974 -0.191547,0.0937 -0.417546,0.0937 -0.234266,0 -0.416167,-0.0978 -0.181901,-0.0978 -0.283875,-0.27285 -0.100597,-0.17501 -0.100597,-0.39412 0,-0.21773 0.09922,-0.39274 0.100596,-0.17501 0.274229,-0.27285 0.173633,-0.0992 0.383094,-0.0992 0.228754,0 0.398253,0.10198 0.170877,0.10059 0.268717,0.28938 0.09784,0.18742 0.106109,0.44373 z m -0.767567,-0.59807 q -0.16123,0 -0.282497,0.10887 -0.121267,0.10748 -0.155718,0.28525 h 0.906748 q -0.03996,-0.17777 -0.169498,-0.28525 -0.129536,-0.10887 -0.299035,-0.10887 z"
         style="font-family:Rockwell;-inkscape-font-specification:Rockwell"
         id="path22651" />
      <path
         d="m 20.148599,118.88225 -0.253559,0.0386 q -0.0124,-0.14056 -0.107486,-0.14056 -0.06752,0 -0.09095,0.0482 -0.02205,0.0482 -0.02205,0.17226 v 0.21911 H 19.9226 v 0.25493 h -0.248046 v 0.93982 h 0.272851 v 0.25356 h -0.770323 v -0.25356 H 19.3893 v -0.93982 h -0.212218 v -0.25493 H 19.3893 v -0.22462 q 0,-0.19844 0.09646,-0.32247 0.09784,-0.12402 0.28801,-0.12402 0.157096,0 0.252181,0.0841 0.09646,0.0827 0.122645,0.24943 z"
         style="font-family:Rockwell;-inkscape-font-specification:Rockwell"
         id="path22653" />
      <path
         d="m 20.624022,120.08665 v 0.32797 h 0.315571 v 0.25356 h -0.888834 v -0.25356 h 0.290766 v -0.93982 h -0.290766 v -0.25493 h 0.516764 v 0.32797 q 0.08682,-0.19431 0.214974,-0.2701 0.129535,-0.0772 0.369313,-0.0772 h 0.06477 v 0.28801 h -0.06201 q -0.231511,0 -0.34451,0.0606 -0.112999,0.0606 -0.150206,0.18328 -0.03583,0.12264 -0.03583,0.35415 z"
         style="font-family:Rockwell;-inkscape-font-specification:Rockwell"
         id="path22655" />
      <path
         d="m 22.733797,120.01637 h -1.21405 q 0.02618,0.20808 0.16123,0.32935 0.135048,0.11989 0.330729,0.11989 0.143316,0 0.265961,-0.0592 0.122645,-0.0593 0.205328,-0.18191 l 0.250802,0.113 q -0.118511,0.18466 -0.311436,0.27974 -0.191547,0.0937 -0.417545,0.0937 -0.234267,0 -0.416168,-0.0978 -0.1819,-0.0978 -0.283875,-0.27285 -0.100597,-0.17501 -0.100597,-0.39412 0,-0.21773 0.09922,-0.39274 0.100597,-0.17501 0.274229,-0.27285 0.173633,-0.0992 0.383095,-0.0992 0.228754,0 0.398252,0.10198 0.170877,0.10059 0.268717,0.28938 0.09784,0.18742 0.106109,0.44373 z m -0.767566,-0.59807 q -0.161231,0 -0.282498,0.10887 -0.121267,0.10748 -0.155718,0.28525 h 0.906748 q -0.03996,-0.17777 -0.169498,-0.28525 -0.129536,-0.10887 -0.299034,-0.10887 z"
         style="font-family:Rockwell;-inkscape-font-specification:Rockwell"
         id="path22657" />
      <path
         d="m 23.676374,119.21987 v 0.25493 h -0.264583 v 0.7593 q 0,0.11851 0.02481,0.15434 0.02618,0.0344 0.08819,0.0344 0.07579,0 0.151584,-0.0262 v 0.25769 q -0.132291,0.0386 -0.213595,0.0386 -0.179145,0 -0.257693,-0.0896 -0.07855,-0.0909 -0.07855,-0.31005 v -0.81856 h -0.188792 v -0.25493 h 0.188792 v -0.21911 l 0.285253,-0.26045 v 0.47956 z"
         style="font-family:Rockwell;-inkscape-font-specification:Rockwell"
         id="path22659" />
    </g>
    <g
       aria-label="dry out"
       id="text79187-1-0-1-4-9-9"
       style="font-size:2.82222px;line-height:1.25;font-family:'Train One';-inkscape-font-specification:'Train One';display:inline;stroke-width:0.264583"
       transform="translate(8.3720786,-0.10559)">
      <path
         d="m 29.152613,120.54338 v 0.25356 h -0.544325 v -0.21221 q -0.21773,0.23702 -0.51952,0.23702 -0.209461,0 -0.370692,-0.0978 -0.159852,-0.0992 -0.249425,-0.26872 -0.08819,-0.1695 -0.08819,-0.37483 0,-0.20946 0.09371,-0.38585 0.09508,-0.17638 0.261827,-0.27974 0.166742,-0.10473 0.361045,-0.10473 0.14056,0 0.265962,0.0565 0.126779,0.0565 0.24529,0.17777 v -0.57327 h -0.279741 v -0.2508 h 0.562239 v 1.82314 z m -1.010101,0.0248 q 0.132291,0 0.2384,-0.0703 0.106109,-0.0703 0.166743,-0.18741 0.06063,-0.11714 0.06063,-0.25081 0,-0.13504 -0.06063,-0.24666 -0.06063,-0.11163 -0.168121,-0.17639 -0.107487,-0.0648 -0.242535,-0.0648 -0.130913,0 -0.234266,0.0703 -0.101975,0.0689 -0.16123,0.18466 -0.05926,0.11437 -0.05926,0.24529 0,0.14056 0.06063,0.25355 0.06063,0.113 0.165364,0.17777 0.104731,0.0648 0.234267,0.0648 z"
         style="font-family:Rockwell;-inkscape-font-specification:Rockwell"
         id="path22662" />
      <path
         d="m 29.820961,120.21541 v 0.32797 h 0.31557 v 0.25356 h -0.888834 v -0.25356 h 0.290766 v -0.93982 h -0.290766 v -0.25493 h 0.516764 v 0.32797 q 0.08682,-0.1943 0.214974,-0.2701 0.129536,-0.0772 0.369314,-0.0772 h 0.06477 v 0.28801 h -0.06201 q -0.23151,0 -0.344509,0.0606 -0.112999,0.0606 -0.150206,0.18328 -0.03583,0.12264 -0.03583,0.35415 z"
         style="font-family:Rockwell;-inkscape-font-specification:Rockwell"
         id="path22664" />
      <path
         d="m 31.117694,119.60356 0.314192,0.81856 0.304546,-0.81856 h -0.192925 v -0.25493 h 0.691775 v 0.25493 h -0.213596 l -0.715201,1.84244 h -0.482313 v -0.24805 h 0.285254 l 0.172254,-0.42581 -0.474045,-1.16858 h -0.242534 v -0.25493 h 0.724847 v 0.25493 z"
         style="font-family:Rockwell;-inkscape-font-specification:Rockwell"
         id="path22666" />
      <path
         d="m 34.678542,120.07485 q 0,0.21084 -0.100597,0.38585 -0.100597,0.17501 -0.27423,0.27699 -0.173632,0.10197 -0.384472,0.10197 -0.21773,0 -0.39274,-0.10197 -0.175011,-0.10198 -0.272852,-0.27699 -0.09646,-0.17501 -0.09646,-0.38585 0,-0.22048 0.09646,-0.39412 0.09784,-0.17363 0.271474,-0.27147 0.173632,-0.0992 0.394118,-0.0992 0.213596,0 0.387229,0.10473 0.173632,0.10336 0.272851,0.27837 0.09922,0.17501 0.09922,0.38171 z m -0.759299,0.48783 q 0.12678,0 0.232888,-0.0661 0.106109,-0.0661 0.165365,-0.17777 0.05926,-0.11162 0.05926,-0.24391 0,-0.12953 -0.05926,-0.24115 -0.05926,-0.11163 -0.165365,-0.17915 -0.106108,-0.0689 -0.235644,-0.0689 -0.126779,0 -0.232888,0.0675 -0.106109,0.0661 -0.166743,0.17915 -0.06063,0.113 -0.06063,0.24253 0,0.12954 0.06063,0.24254 0.06063,0.113 0.168121,0.17914 0.107487,0.0661 0.234266,0.0661 z"
         style="font-family:Rockwell;-inkscape-font-specification:Rockwell"
         id="path22668" />
      <path
         d="m 35.542571,120.5737 q 0.191547,0 0.414789,-0.18603 v -0.78411 h -0.256314 v -0.25493 h 0.541568 v 1.19475 h 0.248047 v 0.25356 H 35.95736 v -0.16674 q -0.250802,0.19155 -0.4768,0.19155 -0.20395,0 -0.301791,-0.12127 -0.09646,-0.12127 -0.09646,-0.40239 v -0.69453 h -0.202572 v -0.25493 h 0.487826 v 1.00872 q 0,0.11162 0.03996,0.16399 0.04134,0.0524 0.135047,0.0524 z"
         style="font-family:Rockwell;-inkscape-font-specification:Rockwell"
         id="path22670" />
      <path
         d="m 37.387763,119.34863 v 0.25493 H 37.12318 v 0.7593 q 0,0.11851 0.0248,0.15434 0.02618,0.0344 0.08819,0.0344 0.07579,0 0.151584,-0.0262 v 0.25769 q -0.132292,0.0386 -0.213596,0.0386 -0.179145,0 -0.257693,-0.0896 -0.07855,-0.091 -0.07855,-0.31006 v -0.81856 h -0.188791 v -0.25493 h 0.188791 v -0.21911 l 0.285254,-0.26045 v 0.47956 z"
         style="font-family:Rockwell;-inkscape-font-specification:Rockwell"
         id="path22672" />
    </g>
    <text
       xml:space="preserve"
       style="font-size:2.82222px;line-height:1.25;font-family:'Train One';-inkscape-font-specification:'Train One';display:inline;stroke-width:0.264583"
       x="-131.1868"
       y="108.54278"
       id="text79187-1-0-1-4-9-8"><tspan
         sodipodi:role="line"
         id="tspan79185-2-97-3-3-6-4"
         style="font-style:normal;font-variant:normal;font-weight:normal;font-stretch:normal;font-size:2.82222px;font-family:Rockwell;-inkscape-font-specification:Rockwell;stroke-width:0.264583"
         x="-131.1868"
         y="108.54278">v/oct</tspan></text>
    <text
       xml:space="preserve"
       style="font-size:2.82222px;line-height:1.25;font-family:'Train One';-inkscape-font-specification:'Train One';display:inline;stroke-width:0.264583"
       x="-129.05029"
       y="120.58812"
       id="text79187-1-0-1-4-9-6-8"><tspan
         sodipodi:role="line"
         id="tspan79185-2-97-3-3-6-7-3"
         style="font-style:normal;font-variant:normal;font-weight:normal;font-stretch:normal;font-size:2.82222px;font-family:Rockwell;-inkscape-font-specification:Rockwell;stroke-width:0.264583"
         x="-129.05029"
         y="120.58812">pluck</tspan></text>
    <g
       aria-label="wave in"
       id="text79187-1-0-1-4-9-6-8-1-1"
       style="font-size:2.82222px;line-height:1.25;font-family:'Train One';-inkscape-font-specification:'Train One';display:inline;stroke-width:0.264583">
      <path
         d="m 3.8426714,109.21694 0.2742294,0.87229 0.2756074,-0.87229 H 4.238168 V 108.962 h 0.6959088 v 0.25494 H 4.7742245 l 0.2797415,0.87229 0.2783635,-0.87229 H 5.1325142 V 108.962 h 0.6518115 v 0.25494 H 5.5748641 l -0.3858504,1.21818 H 4.9202964 l -0.3321069,-1.04593 -0.3362411,1.04593 H 3.9859872 L 3.5973808,109.21694 H 3.42237 V 108.962 h 0.6090925 v 0.25494 z"
         style="font-family:Rockwell;-inkscape-font-specification:Rockwell;text-align:center;text-anchor:middle"
         id="path26350" />
      <path
         d="m 7.087949,109.47325 v 0.68351 h 0.2425345 v 0.25356 H 6.8371462 v -0.17777 q -0.2067056,0.20257 -0.4602644,0.20257 -0.1336696,0 -0.2452906,-0.062 -0.110243,-0.062 -0.1777668,-0.16536 -0.066146,-0.10474 -0.066146,-0.23152 0,-0.13642 0.073036,-0.24253 0.074414,-0.10749 0.1998154,-0.16536 0.1254013,-0.0579 0.2521808,-0.0579 0.2122177,0 0.3954966,0.12402 v -0.15572 q 0,-0.1695 -0.071658,-0.24253 -0.071658,-0.073 -0.2356444,-0.073 -0.1157551,0 -0.1943032,0.0427 -0.07717,0.0413 -0.1281575,0.12678 l -0.2728513,-0.0675 q 0.092328,-0.17226 0.2494247,-0.25632 0.1570963,-0.0854 0.3734481,-0.0854 0.2907658,0 0.4244354,0.1323 0.1350477,0.13229 0.1350477,0.41754 z m -0.6724822,0.74276 q 0.2094617,0 0.3927406,-0.17501 v -0.1695 q -0.186035,-0.14469 -0.37207,-0.14469 -0.1129991,0 -0.1956813,0.0717 -0.081304,0.0703 -0.081304,0.17776 0,0.10336 0.071658,0.17226 0.071658,0.0675 0.1846569,0.0675 z"
         style="font-family:Rockwell;-inkscape-font-specification:Rockwell;text-align:center;text-anchor:middle"
         id="path26352" />
      <path
         d="m 7.9078811,109.21694 0.3128144,0.82131 0.3114364,-0.82131 H 8.3309385 V 108.962 h 0.6945307 v 0.25494 h -0.220486 l -0.4616424,1.21818 H 8.0856479 L 7.6143591,109.21694 H 7.3580442 V 108.962 h 0.7386279 v 0.25494 z"
         style="font-family:Rockwell;-inkscape-font-specification:Rockwell;text-align:center;text-anchor:middle"
         id="path26354" />
      <path
         d="M 10.708053,109.7585 H 9.4940021 q 0.026183,0.20809 0.1612303,0.32936 0.1350476,0.11989 0.3307289,0.11989 0.1433157,0 0.2659607,-0.0593 0.122646,-0.0593 0.205328,-0.1819 l 0.250803,0.113 q -0.118511,0.18465 -0.311437,0.27974 -0.191547,0.0937 -0.4175449,0.0937 -0.2342663,0 -0.4161672,-0.0979 -0.1819009,-0.0978 -0.2838756,-0.27285 -0.1005967,-0.17501 -0.1005967,-0.39412 0,-0.21772 0.099219,-0.39274 0.1005967,-0.17501 0.2742294,-0.27285 0.1736327,-0.0992 0.3830943,-0.0992 0.2287541,0 0.3982531,0.10198 0.170876,0.1006 0.268717,0.28939 0.09784,0.18741 0.106109,0.44372 z m -0.7675669,-0.59806 q -0.1612303,0 -0.2824976,0.10886 -0.1212673,0.10749 -0.1557182,0.28526 h 0.9067487 q -0.03996,-0.17777 -0.169499,-0.28526 -0.129535,-0.10886 -0.2990339,-0.10886 z"
         style="font-family:Rockwell;-inkscape-font-specification:Rockwell;text-align:center;text-anchor:middle"
         id="path26356" />
      <path
         d="m 12.182552,108.47417 q 0,0.0703 -0.05099,0.12127 -0.05099,0.051 -0.121268,0.051 -0.07028,0 -0.119889,-0.051 -0.04961,-0.051 -0.04961,-0.12127 0,-0.0703 0.04961,-0.12126 0.04961,-0.051 0.119889,-0.051 0.07304,0 0.122646,0.0496 0.04961,0.0496 0.04961,0.12264 z m 0.20395,1.68259 v 0.25356 h -0.731738 v -0.25356 h 0.225998 v -0.93982 H 11.654764 V 108.962 h 0.511252 v 1.19476 z"
         style="font-family:Rockwell;-inkscape-font-specification:Rockwell;text-align:center;text-anchor:middle"
         id="path26358" />
      <path
         d="m 13.936794,109.43604 v 0.72072 h 0.242535 v 0.25356 H 13.65154 v -0.95636 q 0,-0.13643 -0.03996,-0.19568 -0.03859,-0.0593 -0.128157,-0.0593 -0.190169,0 -0.427192,0.18741 v 0.77033 h 0.249425 v 0.25356 h -0.785481 v -0.25356 h 0.254937 v -0.93982 H 12.520172 V 108.962 h 0.536056 v 0.17501 q 0.265961,-0.1943 0.500228,-0.1943 0.194303,0 0.286631,0.11989 0.09371,0.11989 0.09371,0.37344 z"
         style="font-family:Rockwell;-inkscape-font-specification:Rockwell;text-align:center;text-anchor:middle"
         id="path26360" />
    </g>
    <text
       xml:space="preserve"
       style="font-size:2.82222px;line-height:1.25;font-family:'Train One';-inkscape-font-specification:'Train One';display:inline;stroke-width:0.264583"
       x="-116.56278"
       y="120.07227"
       id="text79187-1-0-1-4-9-5-9"><tspan
         sodipodi:role="line"
         id="tspan79185-2-97-3-3-6-5-2"
         style="font-style:normal;font-variant:normal;font-weight:normal;font-stretch:normal;font-size:2.82222px;font-family:Rockwell;-inkscape-font-specification:Rockwell;stroke-width:0.264583"
         x="-116.56278"
         y="120.07227">refret</tspan></text>
    <g
       aria-label="wave out"
       id="text79187-1-0-1-4-9-5-9-5"
       style="font-size:2.82222px;line-height:1.25;font-family:'Train One';-inkscape-font-specification:'Train One';display:inline;stroke-width:0.264583">
      <path
         d="m 3.9056846,119.92548 0.2742294,0.8723 0.2756074,-0.8723 H 4.3011812 v -0.25494 H 4.99709 v 0.25494 H 4.8372377 l 0.2797415,0.8723 0.2783635,-0.8723 H 5.1955274 v -0.25494 h 0.6518115 v 0.25494 H 5.6378773 l -0.3858504,1.21818 H 4.9833096 l -0.3321069,-1.04593 -0.3362411,1.04593 H 4.0490004 L 3.660394,119.92548 H 3.4853833 v -0.25494 h 0.6090924 v 0.25494 z"
         style="font-family:Rockwell;-inkscape-font-specification:Rockwell"
         id="path26363" />
      <path
         d="m 7.1509622,120.18179 v 0.68351 h 0.2425345 v 0.25356 H 6.9001594 v -0.17777 q -0.2067056,0.20257 -0.4602644,0.20257 -0.1336696,0 -0.2452906,-0.062 -0.110243,-0.062 -0.1777668,-0.16536 -0.066146,-0.10473 -0.066146,-0.23151 0,-0.13643 0.073036,-0.24254 0.074414,-0.10748 0.1998154,-0.16536 0.1254014,-0.0579 0.2521808,-0.0579 0.2122177,0 0.3954966,0.12402 v -0.15571 q 0,-0.1695 -0.071658,-0.24254 -0.071658,-0.073 -0.2356444,-0.073 -0.1157551,0 -0.1943032,0.0427 -0.07717,0.0413 -0.1281574,0.12678 l -0.2728514,-0.0675 q 0.092328,-0.17226 0.2494247,-0.25632 0.1570963,-0.0854 0.3734481,-0.0854 0.2907658,0 0.4244354,0.13229 0.1350477,0.13229 0.1350477,0.41754 z M 6.47848,120.92456 q 0.2094617,0 0.3927406,-0.17502 v -0.16949 q -0.186035,-0.1447 -0.37207,-0.1447 -0.112999,0 -0.1956813,0.0717 -0.081304,0.0703 -0.081304,0.17777 0,0.10335 0.071658,0.17225 0.071658,0.0675 0.1846569,0.0675 z"
         style="font-family:Rockwell;-inkscape-font-specification:Rockwell"
         id="path26365" />
      <path
         d="m 7.9708943,119.92548 0.3128144,0.82131 0.3114364,-0.82131 H 8.3939517 v -0.25494 h 0.6945307 v 0.25494 H 8.8679965 L 8.406354,121.14366 H 8.1486611 l -0.4712887,-1.21818 h -0.256315 v -0.25494 h 0.738628 v 0.25494 z"
         style="font-family:Rockwell;-inkscape-font-specification:Rockwell"
         id="path26367" />
      <path
         d="M 10.771066,120.46705 H 9.5570153 q 0.026183,0.20808 0.1612303,0.32935 0.1350477,0.11989 0.3307294,0.11989 0.143315,0 0.265961,-0.0593 0.122645,-0.0592 0.205327,-0.1819 l 0.250803,0.113 q -0.118511,0.18466 -0.311436,0.27974 -0.191548,0.0937 -0.417546,0.0937 -0.234266,0 -0.4161669,-0.0978 -0.1819009,-0.0978 -0.2838756,-0.27285 -0.1005967,-0.17502 -0.1005967,-0.39412 0,-0.21773 0.099219,-0.39274 0.1005967,-0.17501 0.2742294,-0.27286 0.1736327,-0.0992 0.3830944,-0.0992 0.2287538,0 0.3982528,0.10197 0.170877,0.1006 0.268717,0.28939 0.09784,0.18741 0.106109,0.44373 z m -0.767567,-0.59807 q -0.16123,0 -0.2824973,0.10886 -0.1212673,0.10749 -0.1557182,0.28526 h 0.9067485 q -0.03996,-0.17777 -0.169499,-0.28526 -0.129535,-0.10886 -0.299034,-0.10886 z"
         style="font-family:Rockwell;-inkscape-font-specification:Rockwell"
         id="path26369" />
      <path
         d="m 13.276337,120.39677 q 0,0.21084 -0.100597,0.38585 -0.100596,0.17501 -0.274229,0.27698 -0.173633,0.10198 -0.384472,0.10198 -0.21773,0 -0.392741,-0.10198 -0.175011,-0.10197 -0.272851,-0.27698 -0.09646,-0.17501 -0.09646,-0.38585 0,-0.22049 0.09646,-0.39412 0.09784,-0.17363 0.271473,-0.27148 0.173633,-0.0992 0.394119,-0.0992 0.213595,0 0.387228,0.10473 0.173633,0.10335 0.272851,0.27836 0.09922,0.17501 0.09922,0.38172 z m -0.759298,0.48782 q 0.126779,0 0.232888,-0.0661 0.106109,-0.0661 0.165364,-0.17777 0.05926,-0.11162 0.05926,-0.24391 0,-0.12954 -0.05926,-0.24116 -0.05926,-0.11162 -0.165364,-0.17914 -0.106109,-0.0689 -0.235644,-0.0689 -0.12678,0 -0.232889,0.0675 -0.106109,0.0661 -0.166742,0.17914 -0.06063,0.113 -0.06063,0.24254 0,0.12953 0.06063,0.24253 0.06063,0.113 0.16812,0.17915 0.107487,0.0661 0.234267,0.0661 z"
         style="font-family:Rockwell;-inkscape-font-specification:Rockwell"
         id="path26371" />
      <path
         d="m 14.140367,120.89562 q 0.191547,0 0.414789,-0.18604 v -0.7841 h -0.256315 v -0.25494 h 0.541569 v 1.19476 h 0.248046 v 0.25356 h -0.5333 v -0.16674 q -0.250803,0.19154 -0.476801,0.19154 -0.203949,0 -0.30179,-0.12126 -0.09646,-0.12127 -0.09646,-0.40239 v -0.69453 h -0.202571 v -0.25494 h 0.487825 v 1.00872 q 0,0.11163 0.03996,0.16399 0.04134,0.0524 0.135048,0.0524 z"
         style="font-family:Rockwell;-inkscape-font-specification:Rockwell"
         id="path26373" />
      <path
         d="m 15.985558,119.67054 v 0.25494 h -0.264583 v 0.7593 q 0,0.11851 0.02481,0.15434 0.02618,0.0345 0.08819,0.0345 0.07579,0 0.151584,-0.0262 v 0.25769 q -0.132291,0.0386 -0.213595,0.0386 -0.179145,0 -0.257693,-0.0896 -0.07855,-0.091 -0.07855,-0.31006 v -0.81855 h -0.188791 v -0.25494 h 0.188791 v -0.21911 l 0.285253,-0.26045 v 0.47956 z"
         style="font-family:Rockwell;-inkscape-font-specification:Rockwell"
         id="path26375" />
    </g>
    <g
       aria-label="env out"
       id="text79187-1-0-1-4-9-5-9-5-4"
       style="font-size:2.82222px;line-height:1.25;font-family:'Train One';-inkscape-font-specification:'Train One';display:inline;stroke-width:0.264583">
      <path
         d="m 22.765698,120.63754 h -1.214051 q 0.02618,0.20808 0.16123,0.32935 0.135048,0.11989 0.330729,0.11989 0.143316,0 0.265961,-0.0593 0.122646,-0.0593 0.205328,-0.18191 l 0.250803,0.113 q -0.118511,0.18466 -0.311437,0.27975 -0.191547,0.0937 -0.417545,0.0937 -0.234266,0 -0.416167,-0.0978 -0.181901,-0.0978 -0.283876,-0.27285 -0.100596,-0.17501 -0.100596,-0.39412 0,-0.21773 0.09922,-0.39274 0.100597,-0.17501 0.27423,-0.27285 0.173632,-0.0992 0.383094,-0.0992 0.228754,0 0.398253,0.10198 0.170876,0.10059 0.268717,0.28938 0.09784,0.18742 0.106109,0.44373 z m -0.767567,-0.59807 q -0.16123,0 -0.282498,0.10887 -0.121267,0.10748 -0.155718,0.28525 h 0.906749 q -0.03996,-0.17777 -0.169499,-0.28525 -0.129535,-0.10887 -0.299034,-0.10887 z"
         style="font-family:Rockwell;-inkscape-font-specification:Rockwell"
         id="path26378" />
      <path
         d="m 24.362843,120.31508 v 0.72071 h 0.242534 v 0.25356 h -0.527788 v -0.95636 q 0,-0.13642 -0.03996,-0.19568 -0.03859,-0.0593 -0.128157,-0.0593 -0.19017,0 -0.427192,0.18741 v 0.77032 h 0.249425 v 0.25356 h -0.785481 v -0.25356 h 0.254936 v -0.93982 h -0.254936 v -0.25493 h 0.536056 v 0.17501 q 0.265961,-0.19431 0.500228,-0.19431 0.194303,0 0.286631,0.11989 0.09371,0.11989 0.09371,0.37345 z"
         style="font-family:Rockwell;-inkscape-font-specification:Rockwell"
         id="path26380" />
      <path
         d="m 25.185531,120.09597 0.312815,0.82131 0.311436,-0.82131 h -0.201194 v -0.25493 h 0.694531 v 0.25493 h -0.220486 l -0.461642,1.21819 h -0.257693 l -0.471289,-1.21819 h -0.256315 v -0.25493 h 0.738628 v 0.25493 z"
         style="font-family:Rockwell;-inkscape-font-specification:Rockwell"
         id="path26382" />
      <path
         d="m 28.743623,120.56726 q 0,0.21084 -0.100597,0.38585 -0.100597,0.17501 -0.274229,0.27699 -0.173633,0.10197 -0.384473,0.10197 -0.21773,0 -0.39274,-0.10197 -0.175011,-0.10198 -0.272852,-0.27699 -0.09646,-0.17501 -0.09646,-0.38585 0,-0.22048 0.09646,-0.39412 0.09784,-0.17363 0.271474,-0.27147 0.173632,-0.0992 0.394118,-0.0992 0.213596,0 0.387229,0.10473 0.173632,0.10335 0.272851,0.27836 0.09922,0.17502 0.09922,0.38172 z m -0.759299,0.48783 q 0.12678,0 0.232889,-0.0662 0.106108,-0.0661 0.165364,-0.17777 0.05926,-0.11162 0.05926,-0.24391 0,-0.12953 -0.05926,-0.24116 -0.05926,-0.11162 -0.165364,-0.17914 -0.106109,-0.0689 -0.235645,-0.0689 -0.126779,0 -0.232888,0.0675 -0.106109,0.0662 -0.166743,0.17915 -0.06063,0.113 -0.06063,0.24253 0,0.12954 0.06063,0.24254 0.06063,0.11299 0.168121,0.17914 0.107487,0.0662 0.234266,0.0662 z"
         style="font-family:Rockwell;-inkscape-font-specification:Rockwell"
         id="path26384" />
      <path
         d="m 29.607652,121.06611 q 0.191548,0 0.41479,-0.18603 v -0.78411 h -0.256315 v -0.25493 h 0.541568 v 1.19475 h 0.248047 v 0.25356 h -0.5333 v -0.16674 q -0.250803,0.19155 -0.476801,0.19155 -0.20395,0 -0.30179,-0.12127 -0.09646,-0.12127 -0.09646,-0.40239 v -0.69453 h -0.202571 v -0.25493 h 0.487825 v 1.00872 q 0,0.11162 0.03996,0.16398 0.04134,0.0524 0.135047,0.0524 z"
         style="font-family:Rockwell;-inkscape-font-specification:Rockwell"
         id="path26386" />
      <path
         d="m 31.452844,119.84104 v 0.25493 H 31.18826 v 0.7593 q 0,0.11851 0.02481,0.15434 0.02618,0.0345 0.08819,0.0345 0.07579,0 0.151584,-0.0262 v 0.25769 q -0.132292,0.0386 -0.213596,0.0386 -0.179145,0 -0.257693,-0.0896 -0.07855,-0.091 -0.07855,-0.31005 v -0.81856 h -0.188791 v -0.25493 h 0.188791 v -0.21911 l 0.285253,-0.26045 v 0.47956 z"
         style="font-family:Rockwell;-inkscape-font-specification:Rockwell"
         id="path26388" />
    </g>
    <text
       xml:space="preserve"
       style="font-size:2.82222px;line-height:1.25;font-family:'Train One';-inkscape-font-specification:'Train One';display:inline;stroke-width:0.264583"
       x="-105.5303"
       y="120.20103"
       id="text79187-1-0-1-4-9-9-3"><tspan
         sodipodi:role="line"
         id="tspan79185-2-97-3-3-6-51-0"
         style="font-style:normal;font-variant:normal;font-weight:normal;font-stretch:normal;font-size:2.82222px;font-family:Rockwell;-inkscape-font-specification:Rockwell;stroke-width:0.264583"
         x="-105.5303"
         y="120.20103">dry out</tspan></text>
    <text
       xml:space="preserve"
       style="font-size:2.82222px;line-height:1.25;font-family:'Train One';-inkscape-font-specification:'Train One';display:inline;stroke-width:0.264583"
       x="-93.429611"
       y="120.12719"
       id="text79187-1-0-1-4-9-0-9"><tspan
         sodipodi:role="line"
         id="tspan79185-2-97-3-3-6-3-2"
         style="font-style:normal;font-variant:normal;font-weight:normal;font-stretch:normal;font-size:2.82222px;font-family:Rockwell;-inkscape-font-specification:Rockwell;stroke-width:0.264583"
         x="-93.429611"
         y="120.12719">mix out</tspan></text>
    <text
       xml:space="preserve"
       style="font-size:3.52778px;line-height:1.25;font-family:'Train One';-inkscape-font-specification:'Train One';display:inline;stroke-width:0.264583"
       x="-101.77751"
       y="15.389394"
       id="text79187-1-0-5-83-3-5"><tspan
         sodipodi:role="line"
         id="tspan79185-2-97-7-9-6-8"
         style="font-style:normal;font-variant:normal;font-weight:normal;font-stretch:normal;font-size:3.52778px;font-family:Rockwell;-inkscape-font-specification:Rockwell;stroke-width:0.264583"
         x="-101.77751"
         y="15.389394">decay</tspan></text>
    <text
       xml:space="preserve"
       style="font-size:3.52778px;line-height:1.25;font-family:'Train One';-inkscape-font-specification:'Train One';display:inline;stroke-width:0.264583"
       x="-103.31948"
       y="18.773655"
       id="text79187-1-0-5-83-3-1"><tspan
         sodipodi:role="line"
         id="tspan79185-2-97-7-9-6-1"
         style="font-style:normal;font-variant:normal;font-weight:normal;font-stretch:normal;font-size:3.52778px;font-family:Rockwell;-inkscape-font-specification:Rockwell;stroke-width:0.264583"
         x="-103.31948"
         y="18.773655">stretch</tspan></text>
    <text
       xml:space="preserve"
       style="font-size:3.52778px;line-height:1.25;font-family:'Train One';-inkscape-font-specification:'Train One';display:inline;stroke-width:0.264583"
       x="-103.72338"
       y="24.562914"
       id="text79187-1-0-5-83-3-0"><tspan
         sodipodi:role="line"
         id="tspan79185-2-97-7-9-6-18"
         style="font-style:normal;font-variant:normal;font-weight:normal;font-stretch:normal;font-size:3.52778px;font-family:Rockwell;-inkscape-font-specification:Rockwell;stroke-width:0.264583"
         x="-103.72338"
         y="24.562914">attack</tspan></text>
    <text
       xml:space="preserve"
       style="font-size:3.52778px;line-height:1.25;font-family:'Train One';-inkscape-font-specification:'Train One';display:inline;stroke-width:0.264583"
       x="-103.58875"
       y="28.601934"
       id="text79187-1-0-5-83-3-6"><tspan
         sodipodi:role="line"
         id="tspan79185-2-97-7-9-6-2"
         style="font-style:normal;font-variant:normal;font-weight:normal;font-stretch:normal;font-size:3.52778px;font-family:Rockwell;-inkscape-font-specification:Rockwell;stroke-width:0.264583"
         x="-103.58875"
         y="28.601934">pick pos</tspan></text>
    <text
       xml:space="preserve"
       style="font-size:3.52778px;line-height:1.25;font-family:'Train One';-inkscape-font-specification:'Train One';display:inline;stroke-width:0.264583"
       x="-103.85802"
       y="32.371685"
       id="text79187-1-0-5-83-3-7"><tspan
         sodipodi:role="line"
         id="tspan79185-2-97-7-9-6-7"
         style="font-style:normal;font-variant:normal;font-weight:normal;font-stretch:normal;font-size:3.52778px;font-family:Rockwell;-inkscape-font-specification:Rockwell;stroke-width:0.264583"
         x="-103.85802"
         y="32.371685">dynamics</tspan></text>
    <text
       xml:space="preserve"
       style="font-size:3.52778px;line-height:1.25;font-family:'Train One';-inkscape-font-specification:'Train One';display:inline;stroke-width:0.264583"
       x="-103.45412"
       y="36.67997"
       id="text79187-1-0-5-83-3-3"><tspan
         sodipodi:role="line"
         id="tspan79185-2-97-7-9-6-89"
         style="font-style:normal;font-variant:normal;font-weight:normal;font-stretch:normal;font-size:3.52778px;font-family:Rockwell;-inkscape-font-specification:Rockwell;stroke-width:0.264583"
         x="-103.45412"
         y="36.67997">body size</tspan></text>
    <text
       xml:space="preserve"
       style="font-size:3.52778px;line-height:1.25;font-family:'Train One';-inkscape-font-specification:'Train One';display:inline;stroke-width:0.264583"
       x="-103.05022"
       y="41.257526"
       id="text79187-1-0-5-83-3-2"><tspan
         sodipodi:role="line"
         id="tspan79185-2-97-7-9-6-4"
         style="font-style:normal;font-variant:normal;font-weight:normal;font-stretch:normal;font-size:3.52778px;font-family:Rockwell;-inkscape-font-specification:Rockwell;stroke-width:0.264583"
         x="-103.05022"
         y="41.257526">Q</tspan></text>
    <text
       xml:space="preserve"
       style="font-size:3.52778px;line-height:1.25;font-family:'Train One';-inkscape-font-specification:'Train One';display:inline;stroke-width:0.264583"
       x="-102.10778"
       y="45.969715"
       id="text79187-1-0-5-83-3-59"><tspan
         sodipodi:role="line"
         id="tspan79185-2-97-7-9-6-19"
         style="font-style:normal;font-variant:normal;font-weight:normal;font-stretch:normal;font-size:3.52778px;font-family:Rockwell;-inkscape-font-specification:Rockwell;stroke-width:0.264583"
         x="-102.10778"
         y="45.969715">res mix</tspan></text>
    <g
       aria-label="freq"
       id="text79187-1-0-5-83-3-22"
       style="font-size:3.52778px;line-height:1.25;font-family:'Train One';-inkscape-font-specification:'Train One';display:inline;stroke-width:0.264583">
      <path
         d="m 3.2745113,24.204079 -0.316949,0.04823 q -0.015503,-0.1757 -0.1343588,-0.1757 -0.084405,0 -0.1136883,0.06029 -0.027561,0.06029 -0.027561,0.215318 v 0.273886 h 0.3100587 v 0.318671 H 2.6819545 v 1.174778 h 0.3410646 v 0.316949 H 2.0601143 V 26.119553 H 2.3253868 V 24.944775 H 2.0601143 v -0.318671 h 0.2652725 v -0.280776 q 0,-0.248047 0.1205785,-0.403076 0.1223009,-0.15503 0.3600127,-0.15503 0.1963705,0 0.3152264,0.105076 0.1205784,0.103353 0.1533069,0.311781 z"
         style="font-family:Rockwell;-inkscape-font-specification:Rockwell"
         id="path22514" />
      <path
         d="m 3.8687906,25.709587 v 0.409966 h 0.3944637 v 0.316949 H 3.1522103 V 26.119553 H 3.5156681 V 24.944775 H 3.1522103 v -0.318671 h 0.6459558 v 0.409966 q 0.1085206,-0.242879 0.2687176,-0.337619 0.1619196,-0.09646 0.4616431,-0.09646 h 0.08096 v 0.360013 h -0.077515 q -0.2893882,0 -0.4306372,0.07579 -0.141249,0.07579 -0.1877578,0.229099 -0.044786,0.153307 -0.044786,0.442695 z"
         style="font-family:Rockwell;-inkscape-font-specification:Rockwell"
         id="path22516" />
      <path
         d="M 6.506013,25.621737 H 4.9884475 q 0.032728,0.260105 0.2015382,0.411689 0.1688098,0.149862 0.4134117,0.149862 0.1791451,0 0.332452,-0.07407 0.1533068,-0.07407 0.2566598,-0.227376 l 0.3135038,0.141249 q -0.1481392,0.230821 -0.389296,0.349677 -0.2394343,0.117133 -0.5219323,0.117133 -0.2928333,0 -0.5202098,-0.1223 Q 4.8471985,26.2453 4.7197299,26.026536 4.5939838,25.807772 4.5939838,25.533887 q 0,-0.272163 0.1240235,-0.490927 0.1257461,-0.218763 0.3427873,-0.341064 0.2170411,-0.124024 0.4788685,-0.124024 0.2859431,0 0.4978167,0.127469 0.213596,0.125746 0.335897,0.361735 0.122301,0.234267 0.1326362,0.554661 z M 5.5465533,24.874151 q -0.2015382,0 -0.3531225,0.136081 -0.1515843,0.134359 -0.194648,0.356568 H 6.1322199 Q 6.082266,25.144591 5.9203464,25.010232 5.7584268,24.874151 5.5465533,24.874151 Z"
         style="font-family:Rockwell;-inkscape-font-specification:Rockwell"
         id="path22518" />
      <path
         d="m 8.2991862,24.915492 v -0.289388 h 0.6580136 v 0.318671 H 8.6540312 v 1.986099 h 0.3290069 v 0.316949 H 7.9495087 v -0.316949 h 0.3496775 v -0.723471 q -0.2721628,0.282498 -0.6390657,0.282498 -0.2549372,0 -0.4564754,-0.129191 -0.1998157,-0.129191 -0.3135039,-0.347955 -0.1119657,-0.218763 -0.1119657,-0.475423 0,-0.258382 0.1119657,-0.473701 0.1136882,-0.215319 0.3135039,-0.33762 0.2015382,-0.124023 0.4530303,-0.124023 0.3841284,0 0.6425108,0.313504 z M 7.730745,26.16434 q 0.1550294,0 0.2859431,-0.07751 0.1326363,-0.07752 0.210151,-0.215319 0.079237,-0.137803 0.079237,-0.310058 0,-0.16881 -0.075792,-0.316949 -0.075792,-0.14814 -0.2118735,-0.237712 -0.1360814,-0.09129 -0.3100588,-0.09129 -0.2497696,0 -0.404799,0.172255 -0.1550294,0.170532 -0.1550294,0.44614 0,0.285943 0.1584745,0.458198 0.1584745,0.172255 0.423747,0.172255 z"
         style="font-family:Rockwell;-inkscape-font-specification:Rockwell"
         id="path22520" />
    </g>
  </g>
  <g
     style="display:none;opacity:1"
     inkscape:label="components"
     id="layer2"
     inkscape:groupmode="layer"
     sodipodi:insensitive="true">
    <circle
       inkscape:label="thresh"
       r="4.2865553"
       cy="20.969362"
       cx="10.166086"
       id="path847"
       style="fill:#ff0000;fill-opacity:1;stroke:#fff700;stroke-width:0" />
    <circle
       inkscape:label="analog"
       style="fill:#0000ff;fill-opacity:1;stroke:#fff700;stroke-width:0"
       id="path847-5-4-8"
       cx="10.629498"
       cy="111.68212"
       r="4.2865553" />
    <circle
       inkscape:label="thresh_cv"
       style="fill:#ff0000;fill-opacity:1;stroke:#fff700;stroke-width:0"
       id="path847-1"
       cx="10.397792"
       cy="35.04549"
       r="4.2865553" />
    <circle
       inkscape:label="thresh_cv"
       style="fill:#00ff00;fill-opacity:1;stroke:#fff700;stroke-width:0"
       id="path847-5-4-7"
       cx="10.861203"
       cy="99.382431"
       r="4.2865553" />
  </g>
</svg>
