<?xml version="1.0" encoding="UTF-8" standalone="no"?>
<svg
   width="50.799999mm"
   height="128.5mm"
   viewBox="0 0 50.8 128.5"
   version="1.1"
   id="svg1238"
   inkscape:version="1.1 (c4e8f9e, 2021-05-24)"
   sodipodi:docname="SpectralMix.svg"
   xmlns:inkscape="http://www.inkscape.org/namespaces/inkscape"
   xmlns:sodipodi="http://sodipodi.sourceforge.net/DTD/sodipodi-0.dtd"
   xmlns="http://www.w3.org/2000/svg"
   xmlns:svg="http://www.w3.org/2000/svg"
   xmlns:rdf="http://www.w3.org/1999/02/22-rdf-syntax-ns#"
   xmlns:cc="http://creativecommons.org/ns#"
   xmlns:dc="http://purl.org/dc/elements/1.1/">
  <defs
     id="defs1232" />
  <sodipodi:namedview
     id="base"
     pagecolor="#ffffff"
     bordercolor="#666666"
     borderopacity="1.0"
     inkscape:pageopacity="0.0"
     inkscape:pageshadow="2"
     inkscape:zoom="3.5585879"
     inkscape:cx="81.211988"
     inkscape:cy="530.54752"
     inkscape:document-units="mm"
     inkscape:current-layer="layer4"
     inkscape:document-rotation="0"
     showgrid="false"
     inkscape:window-width="1353"
     inkscape:window-height="847"
     inkscape:window-x="1815"
     inkscape:window-y="117"
     inkscape:window-maximized="0"
     inkscape:pagecheckerboard="0"
     width="50.8mm" />
  <metadata
     id="metadata1235">
    <rdf:RDF>
      <cc:Work
         rdf:about="">
        <dc:format>image/svg+xml</dc:format>
        <dc:type
           rdf:resource="http://purl.org/dc/dcmitype/StillImage" />
      </cc:Work>
    </rdf:RDF>
  </metadata>
  <g
     style="display:inline"
     inkscape:label="Layer 1"
     inkscape:groupmode="layer"
     id="layer1">
    <rect
       y="4.6888422e-07"
       x="8.422399e-07"
       height="128.5"
       width="50.799999"
       id="rect1391"
       style="opacity:0.98;fill:#c6c6c6;fill-opacity:1;stroke:#fff700;stroke-width:0" />
  </g>
  <g
     inkscape:groupmode="layer"
     id="layer4"
     inkscape:label="Panel Art">
    <g
       aria-label="ZEROLAB"
       id="text21901-7"
       style="font-size:4.23333px;line-height:1.25;font-family:'Train One';-inkscape-font-specification:'Train One';display:inline;fill:none;stroke:#000000;stroke-width:0.2"
       transform="translate(0,1.1239719)">
      <path
         d="m 17.134061,123.28507 v -0.3048 h -2.133598 v -0.2032 h 2.336798 v 0.57573 l -1.553632,2.0828 h 1.557865 v 0.2032 h -1.960032 z m -2.243665,2.17169 1.536699,-2.03623 h -1.426632 v -0.2032 h 1.833032 l -1.739899,2.30717 v 0.35136 h 2.247898 v 0.2032 h -2.451098 z"
         id="path14263" />
      <path
         d="m 17.956451,122.77707 h 2.285998 v 0.2032 h -2.082798 v 2.89559 h 2.167465 v 0.2032 h -2.370665 z m 0.567267,0.44026 h 1.718731 v 0.2032 h -1.515532 v 0.65194 h 1.299633 v 0.20319 h -1.502832 z m 0,1.2827 h 1.502832 v 0.2032 h -1.299633 v 0.73237 h 1.600199 v 0.2032 h -1.803398 z"
         id="path14265" />
      <path
         d="m 22.488032,124.56353 q 0.254,-0.0931 0.3937,-0.2032 0.143933,-0.11007 0.198967,-0.25823 0.05927,-0.14817 0.05927,-0.34713 0,-0.23707 -0.1143,-0.41064 -0.110066,-0.17356 -0.3048,-0.2667 -0.194733,-0.0974 -0.448732,-0.0974 h -1.193799 v 3.09879 h -0.2032 v -3.30199 h 1.396999 q 0.317499,0 0.558799,0.12276 0.2413,0.12277 0.376766,0.3429 0.135467,0.2159 0.135467,0.51224 0,0.38523 -0.148167,0.60536 -0.143933,0.2159 -0.414866,0.31327 l 0.783166,1.40546 h -0.2413 z m -1.054099,-1.3462 h 0.694266 q 0.287867,0 0.461433,0.15664 0.173567,0.1524 0.173567,0.4191 0,0.2921 -0.173567,0.45296 -0.169333,0.16087 -0.457199,0.16087 h -0.6985 z m 0.6985,0.98637 q 0.194733,0 0.309033,-0.10583 0.118533,-0.11007 0.118533,-0.3048 0,-0.1778 -0.122767,-0.27517 -0.118533,-0.0974 -0.309033,-0.0974 h -0.491066 v 0.78317 z m -0.06773,0.60536 H 21.6329 v 1.27 h -0.2032 v -1.4732 h 0.766233 l 0.677332,1.4732 h -0.224366 z"
         id="path14267" />
      <path
         d="m 25.355187,126.16373 q -0.457199,0 -0.800099,-0.21167 -0.3429,-0.21166 -0.5334,-0.60113 -0.190499,-0.3937 -0.190499,-0.93133 0,-0.52493 0.190499,-0.9144 0.1905,-0.38947 0.5334,-0.60113 0.3429,-0.2159 0.800099,-0.2159 0.4572,0 0.795866,0.2159 0.3429,0.2159 0.529167,0.60536 0.186266,0.38947 0.186266,0.91017 0,0.53763 -0.186266,0.93133 -0.186267,0.38947 -0.529167,0.60113 -0.338666,0.21167 -0.795866,0.21167 z m 0,-0.19897 q 0.402167,0 0.694266,-0.1905 0.2921,-0.1905 0.452967,-0.53763 0.160866,-0.34713 0.160866,-0.81703 0,-0.4572 -0.160866,-0.8001 -0.160867,-0.3429 -0.452967,-0.5334 -0.292099,-0.19473 -0.694266,-0.19473 -0.402166,0 -0.698499,0.1905 -0.296333,0.1905 -0.461433,0.5334 -0.160867,0.3429 -0.160867,0.80433 0,0.4699 0.160867,0.81703 0.1651,0.34713 0.461433,0.53763 0.296333,0.1905 0.698499,0.1905 z m 0,-0.25823 q -0.253999,0 -0.469899,-0.14817 -0.211667,-0.14816 -0.338667,-0.4318 -0.127,-0.28786 -0.127,-0.70696 0,-0.42333 0.135467,-0.70273 0.135467,-0.28364 0.347133,-0.42334 0.2159,-0.14393 0.452966,-0.14393 0.254,0 0.461433,0.14393 0.211667,0.1397 0.334433,0.42334 0.127,0.2794 0.127,0.70273 0,0.4191 -0.131233,0.70696 -0.131233,0.28364 -0.3429,0.4318 -0.207433,0.14817 -0.448733,0.14817 z m 0,-0.2032 q 0.198967,0 0.359833,-0.127 0.1651,-0.127 0.262467,-0.3683 0.09737,-0.24553 0.09737,-0.58843 0,-0.51647 -0.203199,-0.79163 -0.2032,-0.27517 -0.516467,-0.27517 -0.194733,0 -0.364066,0.12277 -0.1651,0.12276 -0.2667,0.35983 -0.1016,0.23707 -0.1016,0.5842 0,0.3429 0.09313,0.58843 0.09737,0.2413 0.262466,0.3683 0.169333,0.127 0.376766,0.127 z"
         id="path14269" />
      <path
         d="m 28.028336,122.77707 h 0.2032 v 2.61196 h 1.401232 v 0.2032 h -1.604432 z m -0.579966,0 h 0.2032 v 3.09879 h 1.981198 v 0.2032 H 27.44837 Z"
         id="path14271" />
      <path
         d="m 31.697641,122.98027 h -0.6858 l -1.037165,3.09879 h -0.211667 l 1.100666,-3.30199 h 0.982132 l 1.100666,3.30199 H 32.72634 Z m -0.474133,0.33443 h 0.245533 l 0.508,1.54516 h -1.261533 z m 0.474133,1.34196 q -0.02117,-0.0677 -0.06773,-0.2032 -0.04657,-0.13546 -0.1016,-0.30056 -0.05503,-0.16933 -0.1016,-0.33443 -0.04657,-0.16934 -0.06773,-0.30057 h -0.0254 q -0.02117,0.127 -0.06773,0.29633 -0.04233,0.1651 -0.09737,0.33444 -0.05503,0.16509 -0.1016,0.30479 -0.04657,0.13547 -0.06773,0.2032 z m 0.211666,0.6477 h -1.117599 l -0.262466,0.7747 h -0.211667 l 0.3302,-0.9779 h 1.409699 l 0.3175,0.9779 h -0.211667 z"
         id="path14273" />
      <path
         d="m 33.318808,122.77707 h 1.384299 q 0.313266,0 0.541866,0.11006 0.2286,0.10584 0.3556,0.2921 0.126999,0.18627 0.126999,0.42757 0,0.2794 -0.114299,0.46567 -0.110067,0.18203 -0.300567,0.22436 l 0.0042,0.0127 q 0.127,0.008 0.262467,0.1143 0.1397,0.1016 0.232833,0.28363 0.09737,0.18204 0.09737,0.44027 0,0.27093 -0.135467,0.4826 -0.131233,0.20743 -0.385233,0.3302 -0.249766,0.11853 -0.605366,0.11853 h -1.464732 z m 1.464732,3.09879 q 0.427566,0 0.673099,-0.19896 0.249767,-0.2032 0.249767,-0.52917 0,-0.1905 -0.09313,-0.36407 -0.0889,-0.1778 -0.245534,-0.2921 -0.156633,-0.11853 -0.347133,-0.13546 l -0.01693,-0.0593 q 0.211667,-0.0423 0.321733,-0.15663 0.1143,-0.1143 0.156633,-0.25823 0.04233,-0.14817 0.04233,-0.27517 0,-0.28363 -0.2286,-0.45297 -0.2286,-0.17356 -0.592666,-0.17356 H 33.52201 v 2.89559 z m -0.897466,-2.67969 h 0.698499 q 0.249767,0 0.414867,0.1524 0.1651,0.1524 0.1651,0.40216 0,0.23707 -0.143934,0.38524 -0.143933,0.14393 -0.419099,0.14393 h -0.715433 z m 0.715433,0.88053 q 0.173566,0 0.266699,-0.0889 0.09313,-0.0889 0.09313,-0.23707 0,-0.16086 -0.110067,-0.254 -0.105833,-0.0974 -0.2667,-0.0974 H 34.08927 v 0.67733 z m -0.715433,0.38946 h 0.766233 q 0.300566,0 0.491066,0.15664 0.194733,0.15663 0.194733,0.42333 0,0.27517 -0.1778,0.43603 -0.173566,0.16087 -0.486833,0.16087 h -0.787399 z m 0.787399,0.97367 q 0.211667,0 0.334433,-0.1016 0.127,-0.10583 0.127,-0.2921 0,-0.18203 -0.1397,-0.2794 -0.135466,-0.0974 -0.342899,-0.0974 h -0.563033 v 0.77047 z"
         id="path14275" />
    </g>
    <text
       xml:space="preserve"
       style="font-size:4.23333px;line-height:1.25;font-family:'Train One';-inkscape-font-specification:'Train One';display:inline;fill:none;fill-opacity:1;stroke:#000000;stroke-width:0.2;stroke-linejoin:miter;stroke-miterlimit:4;stroke-dasharray:none;stroke-dashoffset:0;stroke-opacity:1"
       x="-62.669907"
       y="66.530701"
       id="text21901-7-6"><tspan
         sodipodi:role="line"
         id="tspan21899-4-3"
         style="font-size:4.23333px;fill:none;fill-opacity:1;stroke:#000000;stroke-width:0.2;stroke-linejoin:miter;stroke-miterlimit:4;stroke-dasharray:none;stroke-dashoffset:0;stroke-opacity:1"
         x="-62.669907"
         y="66.530701">ZEROLAB</tspan></text>
    <g
       aria-label="bandwreck"
       id="text59999"
       style="font-size:6.35px;line-height:1.25;font-family:Rockwell;-inkscape-font-specification:Rockwell;display:inline;stroke-width:0.264583"
       transform="translate(0,-2.3311234)">
      <path
         d="m 10.008693,5.2086394 q 0.449584,0 0.812353,0.2294433 0.362769,0.2263428 0.564307,0.613916 0.204638,0.3875733 0.204638,0.8371582 0,0.4650879 -0.207739,0.8588623 -0.204639,0.3937744 -0.567407,0.629419 -0.362769,0.2325439 -0.812354,0.2325439 -0.356567,0 -0.679028,-0.1457275 Q 9.0041027,8.318527 8.8211681,8.064279 V 8.5541716 H 7.6212414 V 7.9836638 h 0.576709 V 4.4458953 H 7.6212414 V 3.8815886 H 8.8211681 V 5.7605437 Q 9.3110607,5.2086394 10.008693,5.2086394 Z M 9.8753673,8.0394743 q 0.3038577,0 0.5426027,-0.164331 0.238745,-0.1643311 0.36897,-0.4309815 0.130224,-0.2666504 0.130224,-0.5674072 0,-0.2976563 -0.133325,-0.5457031 -0.133325,-0.2480469 -0.36897,-0.3937744 -0.235644,-0.1457276 -0.5333005,-0.1457276 -0.2976563,0 -0.5333008,0.1519287 Q 9.1126232,6.095407 8.979298,6.3558562 8.8459728,6.6163054 8.8459728,6.9356657 q 0,0.3038574 0.1364258,0.5581055 0.1364258,0.254248 0.3720703,0.3999756 0.2356445,0.1457275 0.5208984,0.1457275 z"
         id="path14244" />
      <path
         d="m 14.845606,6.4457732 v 1.5378906 h 0.545703 V 8.5541716 H 14.2813 V 8.154196 q -0.465088,0.4557861 -1.035596,0.4557861 -0.300757,0 -0.551904,-0.1395264 Q 12.445753,8.3309294 12.293824,8.0983854 12.144996,7.8627409 12.144996,7.577487 q 0,-0.306958 0.164331,-0.5457031 0.167432,-0.2418457 0.449585,-0.3720703 0.282153,-0.1302246 0.567407,-0.1302246 0.477491,0 0.889868,0.2790527 V 6.4581755 q 0,-0.3813721 -0.16123,-0.5457031 -0.16123,-0.1643311 -0.5302,-0.1643311 -0.260449,0 -0.437183,0.096118 -0.173633,0.093018 -0.288354,0.2852539 L 12.185304,5.9775847 q 0.207739,-0.3875732 0.561206,-0.576709 0.353467,-0.1922363 0.840259,-0.1922363 0.654223,0 0.95498,0.2976562 0.303857,0.2976563 0.303857,0.9394776 z M 13.33252,8.116989 q 0.47129,0 0.883667,-0.3937745 V 7.3418425 Q 13.797608,7.016281 13.379029,7.016281 q -0.254248,0 -0.440283,0.1612304 -0.182935,0.1581299 -0.182935,0.3999756 0,0.2325439 0.161231,0.3875732 0.16123,0.1519288 0.415478,0.1519288 z"
         id="path14246" />
      <path
         d="m 18.857764,6.3620573 v 1.6216065 h 0.545703 V 8.5541716 H 18.215943 V 6.402365 q 0,-0.306958 -0.08992,-0.4402832 -0.08682,-0.1333252 -0.288355,-0.1333252 -0.427881,0 -0.961181,0.4216796 v 1.7332276 h 0.561206 V 8.5541716 H 15.670362 V 7.9836638 H 16.24397 V 5.8690642 H 15.670362 V 5.2954558 h 1.206128 v 0.3937744 q 0.598413,-0.4371826 1.125512,-0.4371826 0.437183,0 0.644922,0.269751 0.21084,0.2697509 0.21084,0.8402587 z"
         id="path14248" />
      <path
         d="M 23.759791,7.9836638 V 8.5541716 H 22.53506 V 8.0766813 q -0.489893,0.5333008 -1.168921,0.5333008 -0.471289,0 -0.834058,-0.2201416 -0.359668,-0.2232422 -0.561206,-0.6046142 -0.198437,-0.3813721 -0.198437,-0.8433594 0,-0.4712891 0.21084,-0.8681641 0.21394,-0.3968749 0.589111,-0.6294189 0.375171,-0.2356445 0.812353,-0.2356445 0.31626,0 0.598413,0.127124 0.285254,0.127124 0.551905,0.3999756 V 4.4458953 H 21.905641 V 3.8815886 h 1.265039 v 4.1020752 z m -2.272729,0.05581 q 0.297656,0 0.536401,-0.1581299 0.238745,-0.1581299 0.375171,-0.4216797 0.136426,-0.2635498 0.136426,-0.5643066 0,-0.3038574 -0.136426,-0.5550049 -0.136426,-0.2511474 -0.378272,-0.396875 -0.241845,-0.1457275 -0.545703,-0.1457275 -0.294555,0 -0.527099,0.1581299 -0.229444,0.1550293 -0.362769,0.4154785 -0.133325,0.2573486 -0.133325,0.5519043 0,0.3162597 0.136426,0.5705078 0.136426,0.254248 0.37207,0.3999756 0.235645,0.1457275 0.5271,0.1457275 z"
         id="path14250" />
      <path
         d="M 24.882202,5.8690642 25.499218,7.831735 26.119336,5.8690642 H 25.77207 V 5.2954558 h 1.565796 V 5.8690642 H 26.978198 L 27.607617,7.831735 28.233935,5.8690642 H 27.78435 V 5.2954558 h 1.466577 V 5.8690642 H 28.779638 L 27.911474,8.6099821 H 27.30686 L 26.559619,6.2566374 25.803076,8.6099821 H 25.204663 L 24.330297,5.8690642 H 23.936523 V 5.2954558 h 1.370459 v 0.5736084 z"
         id="path14252" />
      <path
         d="m 30.782617,7.2457243 v 0.7379395 h 0.710034 V 8.5541716 H 29.492773 V 7.9836638 h 0.654224 V 5.8690642 H 29.492773 V 5.2954558 h 1.16272 V 6.0333952 Q 30.85083,5.5962126 31.139184,5.4256804 31.430639,5.2520476 31.970141,5.2520476 h 0.145728 V 5.90007 h -0.139527 q -0.520898,0 -0.775146,0.1364258 -0.254248,0.1364258 -0.337964,0.4123779 -0.08062,0.2759522 -0.08062,0.7968506 z"
         id="path14254" />
      <path
         d="m 35.529615,7.0875944 h -2.731616 q 0.05891,0.4681885 0.362768,0.7410401 0.303858,0.2697509 0.744141,0.2697509 0.322461,0 0.598413,-0.1333252 0.275952,-0.1333252 0.461987,-0.4092773 l 0.564307,0.254248 q -0.26665,0.4154786 -0.700732,0.629419 -0.430982,0.2108398 -0.939478,0.2108398 -0.5271,0 -0.936377,-0.2201416 -0.409277,-0.2201416 -0.638721,-0.613916 -0.226342,-0.3937744 -0.226342,-0.8867675 0,-0.4898926 0.223242,-0.883667 0.226343,-0.3937744 0.617016,-0.613916 0.390674,-0.2232422 0.861963,-0.2232422 0.514698,0 0.89607,0.2294433 0.384472,0.2263428 0.604614,0.6511231 0.220141,0.4216797 0.238745,0.9983886 z M 33.802589,5.7419402 q -0.362769,0 -0.63562,0.2449462 -0.272852,0.2418457 -0.350367,0.6418213 h 2.040186 Q 34.766871,6.2287321 34.475416,5.9868864 34.183961,5.7419402 33.802589,5.7419402 Z"
         id="path14256" />
      <path
         d="M 38.534083,5.5311003 V 5.2954558 h 0.570508 V 6.529489 H 38.534083 Q 38.496876,6.1729216 38.248829,5.9868864 38.000782,5.7977507 37.675221,5.7977507 q -0.279053,0 -0.502295,0.1488281 -0.220142,0.1488282 -0.341065,0.4030762 -0.120922,0.254248 -0.120922,0.5550049 0,0.5115966 0.272851,0.8371582 0.272852,0.3224609 0.719336,0.3224609 0.691431,0 0.976685,-0.6418213 l 0.5333,0.2542481 q -0.449585,0.9735839 -1.53789,0.9735839 -0.486792,0 -0.865064,-0.2294433 -0.378271,-0.2294434 -0.58601,-0.629419 -0.204639,-0.3999755 -0.204639,-0.8867675 0,-0.4774903 0.207739,-0.8681641 0.21084,-0.3906738 0.576709,-0.6077148 0.365869,-0.2201416 0.815454,-0.2201416 0.533301,0 0.914673,0.3224609 z"
         id="path14258" />
      <path
         d="M 41.888916,5.8287566 H 41.374219 V 5.2954558 h 1.804541 v 0.5333008 h -0.502295 l -1.21853,1.010791 1.150317,1.1441162 H 43.17876 V 8.5541716 H 42.3323 L 40.701392,6.910861 v 1.0728028 h 0.551904 V 8.5541716 H 39.47666 V 7.9836638 h 0.58291 V 4.4458953 H 39.47666 V 3.8815886 h 1.224732 v 2.9455566 z"
         id="path14260" />
    </g>
    <text
       xml:space="preserve"
       style="font-style:normal;font-variant:normal;font-weight:normal;font-stretch:normal;font-size:6.35px;line-height:1.25;font-family:Rockwell;-inkscape-font-specification:Rockwell;display:inline;stroke-width:0.264583"
       x="-65.167641"
       y="52.10495"
       id="text59999-8"><tspan
         sodipodi:role="line"
         id="tspan59997-7"
         style="font-style:normal;font-variant:normal;font-weight:normal;font-stretch:normal;font-size:6.35px;font-family:Rockwell;-inkscape-font-specification:Rockwell;stroke-width:0.264583"
         x="-65.167641"
         y="52.10495">bandwreck</tspan></text>
  </g>
  <g
     style="display:none;opacity:1"
     inkscape:label="components"
     id="layer2"
     inkscape:groupmode="layer">
    <circle
       inkscape:label="thresh"
       r="4.2865553"
       cy="20.969362"
       cx="10.166086"
       id="path847"
       style="fill:#ff0000;fill-opacity:1;stroke:#fff700;stroke-width:0" />
    <circle
       inkscape:label="analog"
       style="fill:#0000ff;fill-opacity:1;stroke:#fff700;stroke-width:0"
       id="path847-5-4-8"
       cx="10.629498"
       cy="111.68212"
       r="4.2865553" />
    <circle
       inkscape:label="thresh_cv"
       style="fill:#ff0000;fill-opacity:1;stroke:#fff700;stroke-width:0"
       id="path847-1"
       cx="10.397792"
       cy="35.04549"
       r="4.2865553" />
    <circle
       inkscape:label="thresh_cv"
       style="fill:#00ff00;fill-opacity:1;stroke:#fff700;stroke-width:0"
       id="path847-5-4-7"
       cx="10.861203"
       cy="99.382431"
       r="4.2865553" />
  </g>
</svg>
